<svg width="816" height="373" viewBox="0 0 816 373" fill="none" xmlns="http://www.w3.org/2000/svg">
<g clip-path="url(#clip0_272_203)">
<path d="M783.765 371.819C737.05 371.819 20.662 371.874 20.662 371.819C-5.58057 345.197 -13.3096 281.646 43.5242 220.27C64.3408 197.793 9.11193 154.684 44.9652 85.5262C58.5898 59.2456 113.008 14.0736 256.62 49.1273C317.683 64.0312 369.5 40.2319 380.973 31.6391C387.434 26.802 394.514 22.5764 402.091 18.9236C481.128 -19.3419 617.683 5.02701 677.29 51.0228C685.736 57.5431 724.143 91.2772 693.87 137.637C674.755 166.914 754.837 194.871 783.289 228.296C855.645 313.288 784.421 370.712 783.765 371.819Z" fill="#DCEAFF"/>
<path d="M556.791 175.771L559.016 176.33L561.975 164.527L559.753 163.969L556.791 175.771Z" fill="#ADC8FE"/>
<path d="M560.097 160.12C560.097 160.13 560.097 160.12 560.097 160.13C559.988 161.04 560.248 162.022 561.11 162.344C562.258 162.775 563.037 162.025 563.329 160.87C563.329 160.863 563.403 160.574 563.403 160.57C563.5 160.165 564.439 160.496 564.574 160.889C564.819 161.597 564.825 162.395 564.529 163.168C563.986 164.58 562.512 165.453 561.01 165.247C559.023 164.973 557.762 163.052 558.238 161.159C558.37 160.632 558.624 160.162 558.962 159.779C559.283 159.409 560.164 159.631 560.097 160.12Z" fill="#ADC8FE"/>
<path d="M558.968 180.381C558.968 180.372 558.968 180.381 558.968 180.372C559.077 179.461 558.817 178.479 557.955 178.158C556.803 177.726 556.025 178.476 555.735 179.631C555.732 179.638 555.661 179.928 555.658 179.934C555.562 180.34 554.623 180.008 554.488 179.612C554.243 178.904 554.237 178.106 554.533 177.334C555.076 175.921 556.549 175.049 558.051 175.255C560.039 175.528 561.3 177.449 560.824 179.342C560.692 179.87 560.438 180.34 560.1 180.722C559.779 181.096 558.9 180.874 558.968 180.381Z" fill="#ADC8FE"/>
<path d="M553.922 127.135C553.922 127.135 552.304 125.108 551.255 123.331C550.203 121.555 543.764 117.815 543.304 120.962C542.883 123.853 544.967 122.993 545.726 125.275C546.485 127.557 547.415 128.538 552.146 130.627L553.922 127.135Z" fill="#FFB27D"/>
<path d="M552.378 128.267C553.79 126.156 554.211 126.047 554.211 126.047C554.211 126.047 577.568 134.994 579.801 135.74C582.03 136.487 615.358 138.37 615.358 138.37L625.416 159.594C625.416 159.594 581.004 149.869 575.394 147.87C566.125 144.568 551.255 131.631 551.255 131.631C551.255 131.631 551.268 129.925 552.378 128.267Z" fill="#E58638"/>
<path d="M610.408 326.718C610.408 326.718 609.9 334.59 608.375 336.44H584.944C585.092 335.655 585.754 333.718 588.684 333.225C592.386 332.607 598.584 330.11 600.823 325.411C603.187 320.471 610.408 326.718 610.408 326.718Z" fill="#163560"/>
<path d="M652.057 323.481C652.057 323.481 653.533 335.421 651.526 335.598C651.259 335.621 641.874 335.604 639.323 335.971C635.158 336.57 628.208 336.049 628.208 336.049C627.336 336.084 626.767 335.18 627.21 334.459C627.696 333.67 628.626 332.824 630.395 332.499C634.084 331.816 640.234 329.216 642.389 324.479C644.653 319.497 652.057 323.481 652.057 323.481Z" fill="#163560"/>
<path d="M599.392 221.95C599.392 221.95 605.281 241.739 622.167 276.111C627.696 287.368 631.395 296.479 633.868 303.646C634.19 304.57 634.489 305.462 634.766 306.318C635.216 307.698 635.618 308.995 635.975 310.208C636.245 311.139 636.493 312.017 636.718 312.851C638.931 321.122 638.886 324.884 638.886 324.884C638.886 324.884 642.72 326.271 647.3 325.833C649.632 325.608 654.752 323.506 654.752 323.506C654.752 323.506 654.199 317.965 653.086 310.131C652.961 309.269 652.829 308.384 652.694 307.47C652.514 306.247 652.318 304.982 652.112 303.685C651.97 302.813 651.826 301.928 651.674 301.036C649.712 289.364 646.802 275.815 642.919 267.367C634.943 250.023 633.315 202.557 633.315 202.557L599.392 221.95Z" fill="#233862"/>
<path d="M589.971 211.853C590.157 222.976 591.039 246.305 594.988 273.197C596.896 286.193 597.922 296.607 598.449 304.672C598.51 305.622 598.565 306.536 598.61 307.417C598.691 308.837 598.752 310.175 598.8 311.427C598.835 312.377 598.864 313.278 598.884 314.134C599.105 322.814 598.639 326.801 598.639 326.801C598.639 326.801 598.974 326.997 599.672 327.248H599.678C600.868 327.677 603.1 328.256 606.461 328.256C607.973 328.256 609.272 328.063 610.315 327.818C612.132 327.393 613.171 326.811 613.171 326.811C613.171 326.811 614.058 321.8 615.068 314.527C615.194 313.654 615.316 312.753 615.438 311.82C615.606 310.587 615.763 309.306 615.93 307.984C616.037 307.099 616.146 306.201 616.252 305.287C617.587 293.736 618.619 280.014 617.506 270.745C617.33 269.268 617.246 267.623 617.24 265.843V265.837C617.23 257.492 619.005 246.254 621.138 235.778C621.138 235.778 621.144 235.749 621.157 235.691C623.354 224.91 625.924 214.953 627.313 209.797C627.94 207.46 628.326 206.112 628.326 206.112L627.159 206.073H627.152L617.921 205.79L592.737 205.005L591.187 204.957L589.932 204.918C589.936 204.918 589.894 207.412 589.971 211.853Z" fill="#2A4E96"/>
<path d="M616.033 133.199L609.794 137.637L600.778 135.815C600.904 135.027 601.499 131.754 602.039 128.79C602.071 128.616 602.103 128.439 602.135 128.268C602.599 125.748 603.001 123.579 603.001 123.579L611.421 119.55L614.56 118.047C614.551 118.098 614.316 120.847 614.284 121.246C613.698 128.365 616.033 133.199 616.033 133.199Z" fill="#FFB27D"/>
<path d="M601.408 130.958C601.608 130.877 613.676 127.46 614.985 127.875C616.297 128.29 617.072 130.726 617.072 130.726L598.44 135.821C598.443 135.824 598.887 131.978 601.408 130.958Z" fill="#E58638"/>
<path d="M633.904 208.703C631.861 217.663 589.215 189.551 589.781 184.083C589.842 183.481 589.907 182.876 589.968 182.278C590.756 174.667 591.508 167.216 591.563 162.357C591.605 158.141 592.21 153.828 593.017 149.911C593.757 146.294 594.667 143.015 595.461 140.456C596.018 138.657 597.06 137.071 598.443 135.825C599.424 134.94 600.572 134.229 601.846 133.746C602.19 133.604 602.544 133.492 602.904 133.392C608.041 131.96 615.146 130.19 617.076 130.73C622.296 132.208 626.172 141.026 628.918 152.271C634.052 173.312 635.239 202.865 633.904 208.703Z" fill="#F99746"/>
<path d="M613.656 121.371C611.807 124.769 604.917 127.708 602.042 128.786C602.074 128.612 602.106 128.435 602.138 128.264C602.602 125.744 603.004 123.575 603.004 123.575L611.424 119.546C613.283 119.52 614.419 119.974 613.656 121.371Z" fill="#FCA56B"/>
<path d="M598.909 123.105C598.909 123.105 614.103 127.656 616.908 118.529C619.713 109.402 623.566 103.84 613.981 100.548C604.4 97.2558 601.434 100.204 599.726 103.033C598.021 105.862 595.03 121.686 598.909 123.105Z" fill="#FFB27D"/>
<path d="M600.324 102.154C600.324 102.154 601.293 112.775 603.583 112.315C605.87 111.854 607.944 111.513 607.61 114.715C607.275 117.918 604.101 121.615 611.154 122.182C618.204 122.748 628.343 105.289 626.403 101.984C620.816 92.4417 592.248 90.5171 600.324 102.154Z" fill="#163560"/>
<path d="M591.071 204.917C595.294 206.382 590.997 200.888 591.071 199.742C591.399 194.706 589.34 188.337 589.971 182.277L615.766 167.473C615.766 167.473 621.887 204.683 591.071 204.917Z" fill="#E58638"/>
<path d="M633.904 208.703C622.891 228.296 621.138 235.778 621.138 235.778C611.553 234.729 595.13 216.639 589.923 211.812C589.923 211.812 589.215 189.551 589.781 184.083L597.742 183.864C597.742 183.864 612.132 187.366 615.863 182.612C619.594 177.862 617.979 154.536 617.979 154.536L628.915 152.264C634.051 173.311 636.859 203.441 633.904 208.703Z" fill="#2A4E96"/>
<path d="M568.566 171.152C568.566 171.152 563.323 167.747 562.329 167.451C561.335 167.155 558.074 166.833 557.923 167.081C557.772 167.325 557.324 168.081 557.894 168.339C558.463 168.593 559.174 168.503 558.958 168.683C558.746 168.86 556.604 167.882 556.109 168.931C555.613 169.98 555.179 173.575 557.694 174.663C560.21 175.754 566.414 174.769 566.861 174.895C570.66 175.953 568.566 171.152 568.566 171.152Z" fill="#FFB27D"/>
<path d="M568.518 170.232C568.518 170.232 594.101 174.41 596.368 173.347C599.987 171.655 594.963 146.735 594.963 146.735C594.963 146.735 594.747 141.087 601.618 139.755C607.59 138.596 613.351 142.893 613.351 142.893C613.351 142.893 618.591 147.395 617.922 152.387C616.439 163.454 614.129 185.963 606.42 189.413C596.475 193.864 567.701 177.074 567.701 177.074C567.701 177.074 566.742 175.948 566.877 173.856C567 172.009 568.518 170.232 568.518 170.232Z" fill="#F99746"/>
<path d="M620.099 154.095L617.979 154.536C617.979 154.536 613.499 135.915 598.443 135.825C599.424 134.94 600.572 134.229 601.846 133.746C607.362 135.162 616.94 139.69 620.099 154.095Z" fill="#2A4E96"/>
<g opacity="0.5">
<g opacity="0.5">
<path opacity="0.5" d="M633.868 303.645C634.19 304.569 634.489 305.46 634.766 306.316C640.42 306.323 645.788 305.306 649.757 304.315C650.61 304.102 651.404 303.887 652.112 303.684C651.97 302.812 651.825 301.927 651.674 301.035C647.657 302.197 640.906 303.8 633.868 303.645Z" fill="white"/>
</g>
</g>
<g opacity="0.5">
<g opacity="0.5">
<path opacity="0.5" d="M635.975 310.208C636.245 311.138 636.493 312.016 636.718 312.85C641.861 312.711 646.692 311.781 650.339 310.87C651.353 310.616 652.273 310.359 653.083 310.13C652.958 309.268 652.826 308.383 652.691 307.469C649.011 308.547 642.71 310.127 635.975 310.208Z" fill="white"/>
</g>
</g>
<path d="M553.285 126.307C553.285 126.307 552.992 124.286 552.371 122.822C551.75 121.358 550.962 119.497 550.795 120.453C550.625 121.412 551.245 123.044 550.795 123.836C550.345 124.627 553.285 126.307 553.285 126.307Z" fill="#FFB27D"/>
<path d="M598.449 304.672C598.51 305.621 598.565 306.535 598.61 307.417C603.827 308.357 608.915 308.389 612.778 308.202C613.952 308.144 615.01 308.067 615.93 307.987C616.036 307.102 616.146 306.204 616.252 305.29C612.418 305.65 605.467 306.049 598.449 304.672Z" fill="white"/>
<path d="M598.8 311.428C598.835 312.377 598.864 313.278 598.883 314.134C603.705 314.891 608.362 314.913 611.955 314.736C613.113 314.678 614.158 314.607 615.065 314.53C615.191 313.658 615.313 312.757 615.435 311.824C611.82 312.158 605.419 312.538 598.8 311.428Z" fill="white"/>
<path d="M157.327 172.176V172.652C157.327 181.783 149.595 189.21 140.093 189.21H88.4445C82.7064 189.21 78.0394 193.694 78.0394 199.206V200.787C78.0394 206.3 82.7064 210.783 88.4445 210.783H145.462C146.619 210.783 147.565 211.722 147.565 212.884C147.565 214.117 147.067 215.23 146.256 216.038C145.452 216.846 144.336 217.345 143.107 217.345H88.4445C78.94 217.345 71.2078 209.917 71.2078 200.787V199.206C71.2078 190.079 78.94 182.652 88.4445 182.652H140.093C145.828 182.652 150.498 178.162 150.498 172.652V172.176C150.498 166.663 145.828 162.177 140.093 162.177H87.4828C77.9815 162.177 70.2493 154.749 70.2493 145.619V143.401C70.2493 134.271 77.9815 126.843 87.4828 126.843H140.093C145.828 126.843 150.498 122.36 150.498 116.847C150.498 111.334 145.828 106.848 140.093 106.848H36.3774C36.995 104.692 37.6994 102.506 38.4938 100.289H140.097C149.598 100.289 157.33 107.717 157.33 116.847C157.33 125.974 149.598 133.405 140.097 133.405H87.4828C81.7479 133.405 77.0777 137.888 77.0777 143.401V145.619C77.0777 151.135 81.7479 155.618 87.4828 155.618H140.093C149.595 155.618 157.327 163.046 157.327 172.176Z" fill="#BDD1F9"/>
<path d="M454.342 102.248H366.045V104.234H454.342V102.248Z" fill="#99B9FF"/>
<path d="M365.026 102.951C365.026 101.792 365.962 100.855 367.12 100.855C368.277 100.855 369.213 101.792 369.213 102.951C369.213 104.109 368.274 105.046 367.12 105.046C365.965 105.046 365.026 104.109 365.026 102.951Z" fill="#99B9FF"/>
<path d="M451.643 102.951C451.643 101.792 452.583 100.855 453.737 100.855C454.895 100.855 455.831 101.792 455.831 102.951C455.831 104.109 454.895 105.046 453.737 105.046C452.583 105.046 451.643 104.109 451.643 102.951Z" fill="#99B9FF"/>
<path d="M445.764 102.304V170.615C438.987 171.774 421.293 170.779 411.21 171.938C401.123 173.097 378.239 171.542 378.239 171.542V102.619C378.239 101.486 379.152 100.572 380.284 100.569C390.332 100.553 434.387 100.486 443.934 100.473C444.947 100.473 445.764 101.29 445.764 102.304Z" fill="#F99746"/>
<path d="M445.764 144.01V170.612C438.987 171.771 421.293 170.776 411.21 171.935C401.123 173.093 378.239 171.539 378.239 171.539V145.938C378.396 145.024 378.486 144.493 378.486 144.493C378.486 144.493 393.189 145.632 406.25 144.805C419.245 143.984 434.86 146.108 445.764 144.01Z" fill="#FFAF73"/>
<path d="M390.622 159.644C385.096 159.644 378.637 159.377 378.274 159.364L378.341 157.713C378.461 157.716 390.268 158.202 395.617 157.88L396.878 157.803C403.359 157.401 416.842 156.564 422.477 157.504C428.266 158.469 446.133 157.285 446.314 157.272L446.423 158.923C445.68 158.974 428.18 160.13 422.204 159.135C416.755 158.228 402.895 159.087 396.981 159.454L395.716 159.531C394.324 159.612 392.529 159.644 390.622 159.644Z" fill="white"/>
<path d="M390.622 163.284C385.096 163.284 378.637 163.017 378.274 163.004L378.341 161.35C378.461 161.353 390.268 161.839 395.617 161.517L396.878 161.44C403.359 161.037 416.842 160.201 422.477 161.14C428.266 162.106 446.133 160.922 446.314 160.912L446.423 162.563C445.68 162.611 428.183 163.77 422.204 162.775C416.755 161.865 402.895 162.727 396.981 163.094L395.716 163.171C394.324 163.252 392.529 163.284 390.622 163.284Z" fill="white"/>
<path d="M581.174 98.4025C581.174 98.4025 560.087 115.421 557.952 114.349C555.816 113.284 555.423 110.59 555.423 110.59C551.011 111.443 547.354 117.136 545.71 120.12C545.112 121.211 544.784 121.941 544.784 121.941C542.815 122.414 541.689 120.943 541.689 120.943C543.996 112.215 553.452 101.705 563.152 98.129C572.847 94.5567 580.132 97.5529 581.174 98.4025Z" fill="#99B9FF"/>
<path d="M583.216 100.453C584.995 104.235 580.492 110.102 573.159 113.555C565.825 117.008 558.437 116.741 556.659 112.959C554.88 109.178 559.383 103.311 566.716 99.8577C574.05 96.4045 581.438 96.6684 583.216 100.453Z" fill="#D4E4FF"/>
<path d="M571.358 106.729C571.457 106.938 571.165 107.282 570.705 107.498C570.248 107.714 569.794 107.72 569.695 107.511C569.595 107.302 569.888 106.957 570.348 106.738C570.808 106.523 571.261 106.52 571.358 106.729Z" fill="#99B9FF"/>
<path d="M565.739 109.374C565.838 109.583 565.546 109.927 565.086 110.143C564.629 110.358 564.175 110.365 564.076 110.156C563.976 109.947 564.269 109.602 564.729 109.387C565.185 109.171 565.639 109.164 565.739 109.374Z" fill="#99B9FF"/>
<path d="M574.169 105.406C574.268 105.615 573.976 105.959 573.516 106.175C573.056 106.391 572.606 106.397 572.506 106.188C572.406 105.979 572.699 105.634 573.159 105.415C573.619 105.2 574.069 105.193 574.169 105.406Z" fill="#99B9FF"/>
<path d="M576.98 104.079C577.079 104.288 576.787 104.633 576.327 104.851C575.87 105.067 575.417 105.074 575.317 104.861C575.217 104.652 575.51 104.308 575.97 104.089C576.43 103.876 576.88 103.87 576.98 104.079Z" fill="#99B9FF"/>
<path d="M580.621 102.368C580.72 102.577 580.428 102.922 579.971 103.141C579.514 103.356 579.061 103.363 578.961 103.15C578.861 102.941 579.154 102.597 579.614 102.381C580.071 102.162 580.521 102.156 580.621 102.368Z" fill="#99B9FF"/>
<path d="M568.547 108.051C568.646 108.26 568.354 108.604 567.894 108.82C567.437 109.035 566.983 109.042 566.884 108.833C566.784 108.623 567.077 108.279 567.537 108.063C567.997 107.845 568.45 107.841 568.547 108.051Z" fill="#99B9FF"/>
<path d="M562.284 111.002C562.384 111.211 562.091 111.556 561.634 111.771C561.174 111.987 560.724 111.993 560.624 111.781C560.525 111.572 560.817 111.227 561.277 111.012C561.734 110.796 562.184 110.793 562.284 111.002Z" fill="#99B9FF"/>
<path d="M570.563 105.036C570.663 105.245 570.37 105.59 569.91 105.805C569.45 106.021 569 106.027 568.9 105.818C568.801 105.609 569.093 105.265 569.553 105.046C570.013 104.833 570.464 104.827 570.563 105.036Z" fill="#99B9FF"/>
<path d="M564.941 107.684C565.041 107.893 564.748 108.237 564.291 108.453C563.834 108.669 563.381 108.675 563.281 108.463C563.182 108.253 563.474 107.909 563.934 107.693C564.391 107.478 564.841 107.475 564.941 107.684Z" fill="#99B9FF"/>
<path d="M562.017 108.766C562.117 108.975 561.824 109.32 561.364 109.535C560.904 109.751 560.454 109.757 560.354 109.548C560.255 109.339 560.547 108.995 561.007 108.779C561.467 108.563 561.921 108.557 562.017 108.766Z" fill="#99B9FF"/>
<path d="M578.379 101.06C578.479 101.27 578.186 101.614 577.726 101.833C577.269 102.048 576.816 102.055 576.716 101.842C576.617 101.633 576.909 101.289 577.369 101.073C577.829 100.854 578.283 100.851 578.379 101.06Z" fill="#99B9FF"/>
<path d="M563.899 106.113C563.999 106.322 563.706 106.666 563.249 106.882C562.789 107.098 562.339 107.104 562.239 106.892C562.14 106.682 562.432 106.338 562.889 106.122C563.349 105.907 563.799 105.9 563.899 106.113Z" fill="#99B9FF"/>
<path d="M573.374 103.713C573.474 103.922 573.181 104.267 572.721 104.482C572.265 104.698 571.811 104.704 571.711 104.495C571.612 104.286 571.904 103.942 572.364 103.723C572.824 103.507 573.275 103.504 573.374 103.713Z" fill="#99B9FF"/>
<path d="M576.185 102.39C576.285 102.599 575.992 102.944 575.532 103.159C575.072 103.375 574.622 103.381 574.522 103.169C574.423 102.96 574.715 102.615 575.175 102.4C575.635 102.184 576.086 102.178 576.185 102.39Z" fill="#99B9FF"/>
<path d="M567.752 106.358C567.852 106.568 567.559 106.912 567.099 107.128C566.642 107.343 566.189 107.35 566.092 107.14C565.993 106.931 566.285 106.584 566.742 106.368C567.202 106.156 567.652 106.149 567.752 106.358Z" fill="#99B9FF"/>
<path d="M572.069 108.233C572.168 108.443 571.876 108.787 571.416 109.006C570.959 109.221 570.505 109.228 570.406 109.015C570.306 108.806 570.599 108.462 571.059 108.243C571.519 108.031 571.969 108.024 572.069 108.233Z" fill="#99B9FF"/>
<path d="M566.446 110.883C566.546 111.092 566.253 111.437 565.793 111.652C565.333 111.868 564.883 111.874 564.783 111.665C564.683 111.456 564.976 111.112 565.436 110.893C565.896 110.677 566.346 110.674 566.446 110.883Z" fill="#99B9FF"/>
<path d="M564.487 112.734C564.587 112.943 564.294 113.288 563.834 113.507C563.378 113.722 562.924 113.729 562.828 113.516C562.728 113.307 563.021 112.963 563.477 112.747C563.937 112.528 564.388 112.525 564.487 112.734Z" fill="#99B9FF"/>
<path d="M574.88 106.912C574.979 107.121 574.687 107.465 574.23 107.684C573.77 107.9 573.32 107.906 573.22 107.694C573.12 107.485 573.413 107.14 573.87 106.925C574.33 106.706 574.78 106.703 574.88 106.912Z" fill="#99B9FF"/>
<path d="M577.687 105.588C577.787 105.797 577.494 106.142 577.038 106.357C576.578 106.573 576.128 106.579 576.028 106.367C575.928 106.158 576.221 105.813 576.678 105.598C577.137 105.382 577.591 105.379 577.687 105.588Z" fill="#99B9FF"/>
<path d="M579.997 104.501C580.097 104.71 579.804 105.054 579.344 105.273C578.887 105.489 578.434 105.495 578.337 105.283C578.237 105.073 578.53 104.729 578.987 104.513C579.444 104.298 579.9 104.291 579.997 104.501Z" fill="#99B9FF"/>
<path d="M578.485 107.278C578.585 107.487 578.292 107.831 577.832 108.05C577.375 108.266 576.922 108.272 576.822 108.06C576.723 107.851 577.015 107.506 577.475 107.291C577.935 107.075 578.385 107.069 578.485 107.278Z" fill="#99B9FF"/>
<path d="M569.257 109.56C569.357 109.769 569.064 110.113 568.608 110.329C568.148 110.544 567.697 110.551 567.598 110.342C567.498 110.133 567.791 109.788 568.251 109.573C568.707 109.354 569.158 109.347 569.257 109.56Z" fill="#99B9FF"/>
<path d="M572.863 109.928C572.962 110.137 572.67 110.481 572.21 110.697C571.753 110.913 571.3 110.919 571.203 110.707C571.103 110.498 571.396 110.153 571.853 109.938C572.313 109.722 572.766 109.719 572.863 109.928Z" fill="#99B9FF"/>
<path d="M568.932 101.565C569.032 101.775 568.739 102.119 568.279 102.335C567.823 102.55 567.369 102.557 567.269 102.344C567.17 102.135 567.462 101.791 567.922 101.575C568.382 101.363 568.833 101.356 568.932 101.565Z" fill="#99B9FF"/>
<path d="M573.693 111.688C573.792 111.897 573.5 112.242 573.04 112.46C572.58 112.676 572.129 112.683 572.03 112.47C571.93 112.261 572.223 111.917 572.683 111.701C573.143 111.485 573.593 111.479 573.693 111.688Z" fill="#99B9FF"/>
<path d="M575.674 108.605C575.774 108.814 575.481 109.159 575.021 109.378C574.564 109.593 574.111 109.6 574.011 109.387C573.911 109.178 574.204 108.834 574.664 108.618C575.124 108.399 575.574 108.396 575.674 108.605Z" fill="#99B9FF"/>
<path d="M570.052 111.249C570.151 111.458 569.859 111.803 569.399 112.018C568.939 112.234 568.489 112.24 568.389 112.031C568.289 111.822 568.582 111.478 569.042 111.259C569.502 111.046 569.955 111.04 570.052 111.249Z" fill="#99B9FF"/>
<path d="M567.504 112.449C567.604 112.659 567.311 113.003 566.855 113.219C566.398 113.434 565.944 113.441 565.845 113.228C565.745 113.019 566.038 112.675 566.498 112.459C566.954 112.243 567.408 112.24 567.504 112.449Z" fill="#99B9FF"/>
<path d="M569.769 103.349C569.868 103.558 569.576 103.903 569.116 104.118C568.656 104.334 568.206 104.34 568.106 104.128C568.006 103.919 568.299 103.574 568.759 103.359C569.219 103.143 569.669 103.137 569.769 103.349Z" fill="#99B9FF"/>
<path d="M572.58 102.022C572.68 102.231 572.387 102.576 571.927 102.791C571.47 103.007 571.017 103.013 570.917 102.804C570.817 102.595 571.11 102.251 571.57 102.035C572.03 101.819 572.48 101.813 572.58 102.022Z" fill="#99B9FF"/>
<path d="M571.92 100.623C572.02 100.832 571.727 101.176 571.267 101.392C570.808 101.608 570.357 101.614 570.258 101.405C570.158 101.196 570.451 100.851 570.907 100.636C571.37 100.417 571.821 100.414 571.92 100.623Z" fill="#99B9FF"/>
<path d="M576.324 109.985C576.423 110.194 576.131 110.539 575.671 110.754C575.214 110.97 574.761 110.976 574.664 110.767C574.564 110.558 574.857 110.213 575.314 109.998C575.774 109.782 576.224 109.776 576.324 109.985Z" fill="#99B9FF"/>
<path d="M570.978 112.505C571.078 112.715 570.785 113.059 570.328 113.278C569.868 113.493 569.418 113.5 569.318 113.287C569.219 113.078 569.511 112.734 569.971 112.515C570.428 112.299 570.878 112.293 570.978 112.505Z" fill="#99B9FF"/>
<path d="M566.298 103.272C566.398 103.481 566.105 103.825 565.645 104.041C565.188 104.256 564.735 104.263 564.635 104.051C564.536 103.841 564.828 103.497 565.288 103.281C565.748 103.066 566.202 103.063 566.298 103.272Z" fill="#99B9FF"/>
<path d="M575.391 100.699C575.491 100.909 575.198 101.253 574.738 101.469C574.278 101.684 573.828 101.691 573.728 101.478C573.628 101.269 573.921 100.925 574.381 100.709C574.841 100.493 575.291 100.49 575.391 100.699Z" fill="#99B9FF"/>
<path d="M566.957 104.672C567.057 104.881 566.764 105.226 566.305 105.441C565.848 105.657 565.394 105.663 565.298 105.451C565.198 105.242 565.491 104.897 565.947 104.682C566.404 104.466 566.858 104.463 566.957 104.672Z" fill="#99B9FF"/>
<path d="M522.941 335.52H518.586V91.4899C518.586 90.5018 519.387 89.6973 520.378 89.6973H521.301C522.208 89.6973 522.941 90.431 522.941 91.3386V335.52Z" fill="#AEC3FF"/>
<path d="M523.067 186.41L522.816 183.433C525.45 183.349 527.766 182.596 529.895 181.122C536.759 176.375 540.869 164.699 541.776 147.356C542.474 134.055 540.995 122.076 540.979 121.957L545.864 121.729C546.115 123.714 551.773 170.505 533.575 183.092C530.57 185.171 527.036 186.287 523.067 186.41Z" fill="#99B9FF"/>
<path d="M563.214 236.323H523.88C522.16 236.323 520.764 234.926 520.764 233.204C520.764 231.483 522.16 230.086 523.88 230.086H563.214C564.934 230.086 566.33 231.483 566.33 233.204C566.33 234.926 564.934 236.323 563.214 236.323Z" fill="#AEC3FF"/>
<path d="M548.73 124.831H521.214C519.77 124.831 518.586 123.647 518.586 122.202C518.586 120.757 519.77 119.572 521.214 119.572H548.73C550.174 119.572 551.358 120.757 551.358 122.202C551.358 123.647 550.174 124.831 548.73 124.831Z" fill="#AEC3FF"/>
<path d="M561.696 190.111L559.309 223.784H549.531L547.585 190.111H561.696Z" fill="#F99746"/>
<path d="M559.309 223.783H549.531V230.085H559.309V223.783Z" fill="white"/>
<path d="M561.699 188.012H547.585V190.113H561.699V188.012Z" fill="#D87932"/>
<path d="M558.55 201.625C558.55 200.486 557.627 199.562 556.488 199.562C555.35 199.562 554.427 200.486 554.427 201.625C554.427 202.765 555.35 203.688 556.488 203.688C557.627 203.688 558.55 202.765 558.55 201.625Z" fill="white"/>
<path d="M555.8 206.637C555.8 205.225 554.655 204.082 553.246 204.082C551.834 204.082 550.692 205.228 550.692 206.637C550.692 208.05 551.837 209.193 553.246 209.193C554.655 209.193 555.8 208.05 555.8 206.637Z" fill="white"/>
<path d="M553.433 202.398C553.433 201.687 552.857 201.107 552.143 201.107C551.429 201.107 550.853 201.687 550.853 202.398C550.853 203.109 551.432 203.688 552.143 203.688C552.854 203.688 553.433 203.112 553.433 202.398Z" fill="white"/>
<path d="M552.989 201.955C552.989 201.707 552.789 201.508 552.542 201.508C552.294 201.508 552.095 201.707 552.095 201.955C552.095 202.203 552.294 202.402 552.542 202.402C552.789 202.402 552.989 202.2 552.989 201.955Z" fill="#F99746"/>
<path d="M552.899 207.626C552.899 207.181 552.538 206.824 552.098 206.824C551.654 206.824 551.297 207.185 551.297 207.626C551.297 208.07 551.657 208.427 552.098 208.427C552.538 208.427 552.899 208.066 552.899 207.626Z" fill="#F99746"/>
<path d="M558.074 202.289C558.074 201.809 557.685 201.42 557.205 201.42C556.726 201.42 556.337 201.809 556.337 202.289C556.337 202.768 556.726 203.158 557.205 203.158C557.685 203.155 558.074 202.768 558.074 202.289Z" fill="#F99746"/>
<path d="M543.893 199.994L541.506 223.784H531.728L529.779 199.994H543.893Z" fill="#F99746"/>
<path d="M541.506 223.783H531.729V230.085H541.506V223.783Z" fill="white"/>
<path d="M543.893 198.51H529.779V199.993H543.893V198.51Z" fill="#D87932"/>
<path d="M540.744 206.44C540.744 205.301 539.821 204.377 538.682 204.377C537.544 204.377 536.621 205.301 536.621 206.44C536.621 207.579 537.544 208.503 538.682 208.503C539.821 208.506 540.744 207.579 540.744 206.44Z" fill="white"/>
<path d="M537.994 211.452C537.994 210.039 536.849 208.896 535.44 208.896C534.028 208.896 532.886 210.042 532.886 211.452C532.886 212.865 534.031 214.007 535.44 214.007C536.852 214.01 537.994 212.865 537.994 211.452Z" fill="white"/>
<path d="M535.63 207.216C535.63 206.505 535.054 205.926 534.34 205.926C533.629 205.926 533.05 206.505 533.05 207.216C533.05 207.928 533.626 208.507 534.34 208.507C535.051 208.507 535.63 207.928 535.63 207.216Z" fill="white"/>
<path d="M535.183 206.77C535.183 206.522 534.983 206.322 534.736 206.322C534.488 206.322 534.289 206.522 534.289 206.77C534.289 207.017 534.488 207.217 534.736 207.217C534.983 207.217 535.183 207.017 535.183 206.77Z" fill="#F99746"/>
<path d="M535.093 212.44C535.093 211.996 534.732 211.639 534.292 211.639C533.848 211.639 533.491 211.999 533.491 212.44C533.491 212.881 533.851 213.241 534.292 213.241C534.736 213.241 535.093 212.884 535.093 212.44Z" fill="#F99746"/>
<path d="M540.271 207.103C540.271 206.624 539.882 206.234 539.403 206.234C538.923 206.234 538.534 206.624 538.534 207.103C538.534 207.583 538.923 207.972 539.403 207.972C539.882 207.972 540.271 207.583 540.271 207.103Z" fill="#F99746"/>
<path d="M555.42 110.591C551.007 111.443 547.35 117.137 545.707 120.12C545.909 116.412 552.924 107.958 554.816 108.627C556.707 109.29 555.42 110.591 555.42 110.591Z" fill="#7FA5EA"/>
<path d="M548.63 357.893L541.763 370.82H538.222L540.966 357.893H548.63Z" fill="#95B1EF"/>
<path d="M695.067 357.893L701.934 370.82H705.475L702.731 357.893H695.067Z" fill="#95B1EF"/>
<path d="M769.343 267.205L752.232 314.06C741.727 342.832 714.375 361.968 683.761 361.968H560.499C534.102 361.968 511.275 343.553 505.682 317.739L498.876 286.338C515.395 288.974 532.925 290.415 550.811 290.956C654.18 294.1 769.343 267.205 769.343 267.205Z" fill="#BDD1F9"/>
<path d="M622.019 361.972H560.499C534.102 361.972 511.275 343.557 505.682 317.743L498.876 286.342C515.395 288.978 532.925 290.419 550.811 290.96C550.075 302.491 551.014 352.771 622.019 361.972Z" fill="#AEC3FF"/>
<path d="M580.248 293.154C565.973 293.154 553.146 292.73 542.487 292.173C512.559 290.615 492.765 287.725 492.569 287.696C491.015 287.468 489.941 286.019 490.169 284.465C490.398 282.911 491.845 281.836 493.399 282.064C493.592 282.093 513.179 284.951 542.86 286.489C570.229 287.912 612.023 288.472 655.72 283.078C699.467 277.678 729.45 272.326 746.902 268.785C765.811 264.952 774.486 262.359 774.57 262.333C776.075 261.879 777.661 262.732 778.114 264.238C778.568 265.744 777.715 267.331 776.21 267.785C775.856 267.891 767.294 270.453 748.185 274.334C730.617 277.9 700.435 283.294 656.415 288.726C629.32 292.076 602.955 293.154 580.248 293.154Z" fill="#95B1EF"/>
<path d="M340.774 84.291H258.962V188.544H340.774V84.291Z" fill="#99B9FF"/>
<path d="M337.458 87.5527H262.278V185.685H337.458V87.5527Z" fill="#BDD1F9"/>
<path d="M152.625 246.516H51.5332V371.031H152.625V246.516Z" fill="#BDD1F9"/>
<path d="M152.625 265.08H51.5332V266.77H152.625V265.08Z" fill="#AEC3FF"/>
<path d="M81.4457 263.434H54.5759V249.064H81.4457V263.434ZM54.9137 263.096H81.108V249.402H54.9137V263.096Z" fill="#AEC3FF"/>
<path d="M96.0642 256.249C96.0642 253.588 98.2192 251.432 100.879 251.432C103.539 251.432 105.694 253.588 105.694 256.249C105.694 258.911 103.539 261.067 100.879 261.067C98.2192 261.067 96.0642 258.908 96.0642 256.249Z" fill="#AEC3FF"/>
<path d="M109.078 256.25C109.078 254.081 110.834 252.32 113.002 252.32C115.169 252.32 116.926 254.077 116.926 256.25C116.926 258.419 115.169 260.176 113.002 260.176C110.834 260.176 109.078 258.419 109.078 256.25Z" fill="#AEC3FF"/>
<path d="M144.59 251.631H123.072V260.867H144.59V251.631Z" fill="#AEC3FF"/>
<path d="M100.879 350.52C121.565 350.52 138.334 333.74 138.334 313.043C138.334 292.345 121.565 275.566 100.879 275.566C80.1932 275.566 63.4238 292.345 63.4238 313.043C63.4238 333.74 80.1932 350.52 100.879 350.52Z" fill="#AEC3FF"/>
<path d="M102.384 343.143C118.998 342.323 131.8 328.178 130.978 311.555C130.157 294.931 116.022 282.121 99.4085 282.944C82.7945 283.766 69.9923 297.908 70.8141 314.532C71.6359 331.155 85.77 343.964 102.384 343.143Z" fill="#95B1EF"/>
<path d="M130.489 321.147H128.466C125.96 321.147 123.912 319.096 123.912 316.589V312.538C123.912 310.031 125.96 307.98 128.466 307.98H130.489C132.995 307.98 135.043 310.031 135.043 312.538V316.589C135.046 319.096 132.995 321.147 130.489 321.147Z" fill="#AEC3FF"/>
<path d="M360.368 244.828H248.126V370.821H360.368V244.828Z" fill="#BDD1F9"/>
<path d="M360.368 283.48H248.126V284.971H360.368V283.48Z" fill="#AEC3FF"/>
<path d="M314.113 251.632H295.938C295.339 251.632 294.847 251.14 294.847 250.541V250.226C294.847 249.627 295.339 249.135 295.938 249.135H314.113C314.712 249.135 315.204 249.627 315.204 250.226V250.541C315.204 251.14 314.712 251.632 314.113 251.632Z" fill="#AEC3FF"/>
<path d="M360.368 329.203H248.126V330.693H360.368V329.203Z" fill="#AEC3FF"/>
<path d="M314.113 290.548H295.938C295.339 290.548 294.847 290.056 294.847 289.457V289.142C294.847 288.54 295.339 288.051 295.938 288.051H314.113C314.712 288.051 315.204 288.543 315.204 289.142V289.457C315.204 290.059 314.712 290.548 314.113 290.548Z" fill="#AEC3FF"/>
<path d="M314.113 338.31H295.938C295.339 338.31 294.847 337.817 294.847 337.219V336.904C294.847 336.305 295.339 335.812 295.938 335.812H314.113C314.712 335.812 315.204 336.305 315.204 336.904V337.219C315.204 337.817 314.712 338.31 314.113 338.31Z" fill="#AEC3FF"/>
<path d="M366.563 238.26H241.133V246.515H366.563V238.26Z" fill="#95B1EF"/>
<path d="M298.353 220.267C296.973 220.267 295.847 219.137 295.847 217.76V194.939C295.847 193.558 296.976 192.432 298.353 192.432C299.733 192.432 300.859 193.561 300.859 194.939V217.76C300.859 219.14 299.73 220.267 298.353 220.267Z" fill="#95B1EF"/>
<path d="M285.066 207.807C285.066 207.807 291.126 205.529 293.168 206.913C295.211 208.3 292.535 212.599 290.913 212.883C289.292 213.166 284.574 212.461 284.574 212.461L285.066 207.807Z" fill="#FFB27D"/>
<path d="M286.044 210.709C286.996 208.115 286.192 206.824 286.192 206.824C286.192 206.824 263.893 202.502 261.815 201.118C259.737 199.734 240.924 173.631 240.924 173.631L211.362 176.386C211.362 176.386 248.238 207.381 253.574 210.786C262.39 216.408 283.702 213.206 283.702 213.206C283.702 213.206 285.294 212.746 286.044 210.709Z" fill="#ED7D2B"/>
<path d="M285.315 214.641L287.382 216.346L296.418 205.381L294.351 203.676L285.315 214.641Z" fill="#35488B"/>
<path d="M296.623 199.798C296.616 199.808 296.623 199.798 296.616 199.808C296.044 200.715 295.828 201.881 296.574 202.65C297.571 203.68 298.768 203.28 299.652 202.206C299.656 202.202 299.878 201.932 299.884 201.926C300.19 201.549 301.013 202.366 300.958 202.849C300.862 203.718 300.469 204.565 299.768 205.231C298.488 206.451 296.497 206.628 295.018 205.659C293.056 204.375 292.692 201.716 294.14 199.956C294.545 199.464 295.047 199.1 295.593 198.865C296.121 198.64 296.938 199.316 296.623 199.798Z" fill="#35488B"/>
<path d="M285.278 220.604C285.285 220.594 285.278 220.604 285.285 220.594C285.857 219.69 286.073 218.522 285.326 217.752C284.329 216.723 283.133 217.122 282.248 218.197C282.245 218.203 282.023 218.47 282.017 218.477C281.711 218.853 280.888 218.036 280.943 217.553C281.039 216.684 281.431 215.838 282.133 215.171C283.416 213.952 285.404 213.775 286.883 214.743C288.845 216.027 289.209 218.686 287.761 220.446C287.356 220.939 286.854 221.302 286.308 221.537C285.78 221.762 284.963 221.087 285.278 220.604Z" fill="#35488B"/>
<path d="M293.168 206.913C293.168 206.913 289.643 206.804 289.53 208.552C289.418 210.299 289.145 212.983 290.914 212.88C292.686 212.78 297.652 208.77 293.168 206.913Z" fill="#FFB27D"/>
<path d="M305.497 210.382C305.497 210.382 327.741 190.117 336.348 201.471C338.593 204.432 333.717 207.946 330.208 208.49C323.939 209.459 313.563 206.214 305.497 210.382Z" fill="#758BEA"/>
<path d="M341.179 220.266C341.179 227.98 332.849 234.709 320.488 238.282H279.868C267.511 234.709 259.18 227.98 259.18 220.266H341.179Z" fill="#BDD1F9"/>
<path d="M343.203 220.267H257.157C256.164 220.267 255.353 219.453 255.353 218.462C255.353 217.467 256.164 216.656 257.157 216.656H343.203C344.196 216.656 345.007 217.467 345.007 218.462C345.007 219.456 344.193 220.267 343.203 220.267Z" fill="#A2C5FC"/>
<path d="M314.831 223.891C314.831 223.891 316.323 232.294 312.225 234.579C308.124 236.867 304.889 232.004 308.485 229.812C312.077 227.621 313.512 227.72 314.831 223.891Z" fill="#758BEA"/>
<path d="M315.133 216.656C315.133 216.656 326.445 218.166 330.893 226.639C335.342 235.113 338.873 247.008 329.787 248.833C320.701 250.657 316.484 246.02 319.308 235.345C323.296 220.267 315.133 216.656 315.133 216.656Z" fill="#758BEA"/>
<path d="M152.624 352.344C152.624 352.344 148.643 356.039 149.418 358.662C150.196 361.285 153.789 363.036 154.274 366.244C154.76 369.453 156.703 371.2 158.453 371.2C160.202 371.2 166.789 371.2 166.789 371.2C166.789 371.2 168.076 368.944 164.969 368.262C161.862 367.583 160.688 363.814 160.884 360.313C161.077 356.815 160.591 352.148 160.591 352.148L153.985 350.594L152.624 352.344Z" fill="#2C3A64"/>
<path d="M201.482 361.788C201.482 361.788 200.552 370.195 202.302 371.067H224.852C224.852 371.067 224.894 368.396 221.298 367.813C217.705 367.231 211.391 365.09 210.323 360.331C209.252 355.567 201.482 361.788 201.482 361.788Z" fill="#2C3A64"/>
<path d="M220.375 242.344C220.375 242.344 219.194 257.078 217.808 274.788C215.923 298.845 213.656 328.398 213.43 333.995C213.041 343.717 211.488 359.265 211.488 359.265C211.488 359.265 207.799 362.96 200.414 361.402C200.414 361.402 193.833 339.205 191.955 315.718C191.926 315.332 191.897 314.946 191.868 314.556C190.118 290.648 187.4 240.301 187.4 240.301L220.375 242.344Z" fill="#35488B"/>
<path d="M220.375 242.344C220.375 242.344 219.194 257.078 217.808 274.788L191.955 315.718C191.926 315.332 191.897 314.946 191.868 314.556C190.118 290.648 187.4 240.301 187.4 240.301L220.375 242.344Z" fill="#2C3A64"/>
<path d="M214.984 244.091C214.984 244.091 213.89 246.833 212.041 251.367C207.718 261.93 199.265 282.224 190.893 300.208C187.014 308.544 183.151 316.38 179.726 322.524C165.738 347.604 161.367 354.601 161.367 354.601C161.367 354.601 161.164 354.52 160.829 354.375C159.379 353.764 155.358 351.984 153.519 350.352C153.072 349.953 152.75 349.567 152.628 349.203C152.628 349.203 157.977 300.797 167.343 288.996C172.634 282.327 178.851 262.316 179.144 255.323C179.272 252.236 179.658 247.824 180.047 243.846C180.395 240.255 180.755 237.027 180.929 235.466C181.003 234.832 181.041 234.475 181.041 234.475L205.602 241.436L214.984 244.091Z" fill="#35488B"/>
<path d="M209.986 250.953C198.986 250.38 194.097 249.157 187.799 247.612C184.01 246.685 181.508 244.735 180.044 243.843C180.392 240.252 180.752 237.024 180.925 235.463L190.803 240.519L209.986 250.953Z" fill="#2C3A64"/>
<path d="M224.356 160.094C224.356 160.094 233.038 175.374 241.519 177.37C241.519 177.37 241.262 173.617 239.895 170.331C239.457 169.282 239.657 168.075 240.371 167.193C240.712 166.772 241.033 166.369 241.333 165.99C243.468 163.251 244.485 161.574 244.485 161.574L241.606 153.828L239.654 148.572C238.714 150.278 237.679 151.729 236.601 152.975C231.037 159.373 224.356 160.094 224.356 160.094Z" fill="#FFB27D"/>
<path d="M236.598 152.975C236.598 152.975 235.562 160.631 241.333 165.986C243.468 163.248 244.485 161.571 244.485 161.571L241.606 153.824C238.515 152.888 236.598 152.975 236.598 152.975Z" fill="#ED975D"/>
<path d="M246.768 162.704C246.768 162.704 233.8 157.645 237.074 149.612C240.345 141.579 240.876 135.516 249.296 138.409C257.714 141.299 258.064 145.017 257.624 147.964C257.183 150.909 250.226 163.811 246.768 162.704Z" fill="#FFB27D"/>
<path d="M239.351 196.718C237.943 200.789 236.093 204.963 233.932 208.908C233.507 209.687 233.089 210.456 232.7 211.219C232.436 211.724 232.185 212.23 231.938 212.729C227.206 222.274 225.026 230.551 224.083 237.052C223.903 238.304 223.765 239.485 223.668 240.602C223.24 245.372 178.671 229.843 180.109 223.172C181.057 218.779 182.35 214.164 183.563 210.231C185.329 204.47 186.911 200.174 186.911 200.174C195.248 180.324 207.081 169.636 216.299 163.994C217.969 162.967 219.551 162.108 221.015 161.397C226.614 158.648 230.426 157.963 230.426 157.963C230.426 157.963 232.333 167.499 240.506 171.28C240.516 171.309 241.783 176.458 241.789 176.481C243.153 181.382 242.066 188.881 239.351 196.718Z" fill="#F99746"/>
<path d="M235.212 134.692C235.122 134.512 234.858 134.322 234.215 134.122C234.215 134.122 234.82 133.919 235.521 134.074C235.884 133.186 236.769 131.67 238.428 131.66C238.428 131.66 237.476 131.908 237.126 132.861C239.4 131.419 243.616 130.997 254.144 134.508C268.016 139.133 261.085 147.188 258.984 147.835C256.881 148.482 253.012 144.337 249.528 143.771C246.048 143.204 244.163 148.057 242.838 148.46C241.51 148.862 242.266 147.758 240.876 146.651C239.487 145.544 238.689 148.147 238.718 149.972C238.747 151.8 236.039 153.532 236.039 153.532C236.039 153.532 236.039 153.532 234.45 150.616C232.861 147.7 233.292 137.109 234.81 135.203C234.942 135.033 235.077 134.862 235.212 134.692Z" fill="#2B478B"/>
<path d="M211.874 189.471C211.874 189.471 213.366 200.773 218.413 209.331C223.459 217.885 225.695 204.571 225.695 204.571L211.874 189.471Z" fill="#ED7D2B"/>
<path d="M231.934 212.729C227.203 222.274 225.022 230.552 224.08 237.053C223.9 238.305 223.762 239.486 223.665 240.602C223.237 245.372 223.482 248.883 223.659 250.878C224.119 256.086 185.01 246.032 179.777 238.504C176.902 234.359 180.511 220.134 183.557 210.231C184.068 210.354 208.313 216.127 225.087 201.117L231.934 212.729Z" fill="#35488B"/>
<path d="M234.906 185.862L232.491 181.041C232.497 180.957 232.755 172.532 227.702 167.588C224.977 164.917 221.143 163.714 216.293 163.994C217.962 162.967 219.545 162.108 221.008 161.396C224.472 161.931 227.37 163.337 229.676 165.6C235.614 171.418 234.922 185.469 234.906 185.862Z" fill="#2C3A64"/>
<path d="M268.26 219.056C268.26 219.056 275.867 217.691 277.128 217.839C278.392 217.987 282.731 220.05 282.773 220.411C282.815 220.771 282.589 221.054 281.824 221.071C281.055 221.087 278.553 220.642 278.698 220.955C278.842 221.267 286.031 223.04 286.044 224.504C286.054 225.969 281.949 228.498 278.582 228.521C275.214 228.543 268.794 224.324 268.231 224.25C263.449 223.603 268.26 219.056 268.26 219.056Z" fill="#FFB27D"/>
<path d="M269.685 222.159C269.833 220.656 268.26 219.06 268.26 219.06C268.26 219.06 245.684 212.845 243.816 210.959C241.947 209.074 233.292 179.034 233.292 179.034C233.292 179.034 230.313 166.875 223.337 165.537C217.274 164.371 213.086 167.374 210.343 170.892C207.075 175.085 206.756 180.865 209.468 185.438C215.553 195.698 227.83 216.07 231.416 219.549C239.396 227.296 268.228 225.696 268.228 225.696C268.228 225.696 269.386 225.175 269.685 222.159Z" fill="#F99746"/>
<path d="M387.544 301.729C387.544 301.729 365.405 306.797 365.405 321.338C365.405 321.338 365.63 328.659 373.572 326.635C379.77 325.058 372.842 316.443 387.544 301.729Z" fill="#8C9DF4"/>
<path d="M386.209 299.868C386.209 299.868 370.571 296.746 369.133 300.405C366.91 306.044 377.763 298.619 386.209 299.868Z" fill="#8C9DF4"/>
<path d="M810.77 372.816H0.884509C0.398833 372.816 0 372.417 0 371.931V371.705C0 371.219 0.398833 370.82 0.884509 370.82H810.767C811.253 370.82 811.651 371.219 811.651 371.705V371.931C811.655 372.417 811.256 372.816 810.77 372.816Z" fill="#233862"/>
<path d="M403.825 300.586C403.825 300.586 413.317 311.531 409.547 318.441C409.02 319.407 407.91 321.083 404.867 319.986C401.825 318.885 405.514 314.891 405.375 309.842C405.263 305.832 403.825 300.586 403.825 300.586Z" fill="#8C9DF4"/>
<path d="M395.717 298.444C398.187 298.834 403.934 297.115 404.353 297.077C407.916 296.735 404.478 293.224 404.478 293.224C404.478 293.224 398.875 291.992 397.936 292.066C397.627 292.091 397.119 292.191 396.569 292.326L397.531 293.266C397.531 293.266 392.864 293.759 392.812 294.843C392.764 295.934 393.562 298.106 395.717 298.444Z" fill="#FFB27D"/>
<path d="M397.939 292.066L393.97 292.549C393.97 293.592 397.022 293.251 397.173 293.766C397.321 294.281 398.026 293.048 398.026 293.048L397.939 292.066Z" fill="#FFB27D"/>
<path d="M434.953 292.385C434.953 292.385 429.614 292.906 429.958 293.473C430.302 294.039 432.644 294.287 432.644 294.287L434.522 293.08L434.953 292.385Z" fill="#FFB27D"/>
<path d="M403.381 294.963C402.523 292.479 403.719 291.703 403.719 291.703C403.719 291.703 428.183 280.095 430.184 278.817C432.184 277.54 445.635 253.029 445.635 253.029C445.635 253.029 450.621 243.007 456.97 243.21C462.489 243.384 465.554 246.827 467.256 250.435C469.282 254.735 468.426 259.842 465.165 263.299C457.838 271.055 443.13 286.416 439.318 288.746C430.836 293.934 405.414 298.13 405.414 298.13C405.414 298.13 404.057 296.914 403.381 294.963Z" fill="#E58638"/>
<path d="M406.961 321.565C410.654 325.823 418.44 328.575 433.464 329.273C434.67 329.331 435.883 329.376 437.102 329.415C438.356 329.453 439.614 329.479 440.872 329.495C444.953 329.553 449.016 329.505 452.888 329.376C456.642 329.247 460.218 329.041 463.457 328.771C469.793 328.243 474.85 327.477 477.461 326.599C478.243 326.335 478.806 326.064 479.121 325.781C479.388 325.543 479.607 325.26 479.771 324.941C480.72 323.184 480.224 320.3 479.079 317.124C477.41 312.499 474.348 307.26 472.286 303.977C471.871 303.321 471.505 302.748 471.189 302.272C470.562 301.309 470.17 300.746 470.17 300.746C470.17 300.746 463.152 301.399 453.544 302.645C451.585 302.899 449.514 303.179 447.375 303.482C426.719 306.404 406.138 311.659 406.157 318.63C406.16 319.686 406.089 320.561 406.961 321.565Z" fill="#2B478B"/>
<path d="M432.538 329.185C433.792 329.224 439.614 329.475 440.871 329.491C444.953 329.549 449.015 329.501 452.888 329.372L456.529 314.693C450.897 322.556 434.349 328.68 432.538 329.185Z" fill="#2C3A64"/>
<path d="M444.705 371.819H424.68C424.995 371.056 425.758 370.062 427.617 369.737C430.772 369.183 436.246 367.478 435.545 362.921C434.834 358.302 442.515 357.707 442.515 357.707C442.515 357.707 445.709 370.062 444.705 371.819Z" fill="#2C3A64"/>
<path d="M406.636 320.812C406.636 320.812 431.476 359.914 433.545 364.561C433.545 364.561 441.997 365.35 444.03 359.306C444.03 359.306 429.264 318.041 422.773 314.639C416.282 311.237 406.636 320.812 406.636 320.812Z" fill="#2B478B"/>
<path d="M456.732 238.485C456.732 238.485 448.179 250.2 440.553 250.827C440.553 250.827 441.1 248.346 442.325 245.935C443.11 244.384 443.094 242.553 442.235 241.04C442.223 241.018 442.21 240.995 442.197 240.973C440.698 238.318 440.035 236.731 440.035 236.731L443.541 230.381L444.265 226.967C444.857 228.57 445.552 230.047 446.327 231.266C450.321 237.542 456.732 238.485 456.732 238.485Z" fill="#FFB27D"/>
<path d="M446.661 231.202C446.661 231.202 447.903 237.072 442.197 240.969C440.698 238.314 440.035 236.728 440.035 236.728L443.541 230.378C446.343 229.963 446.661 231.202 446.661 231.202Z" fill="#ED975D"/>
<path d="M438.964 240.267C438.964 240.267 449.694 234.42 445.95 227.787C442.206 221.157 441.071 215.937 434.063 219.39C427.054 222.843 427.163 226.12 427.874 228.636C428.585 231.153 436.079 241.616 438.964 240.267Z" fill="#FFB27D"/>
<path d="M445.915 214.586C445.973 214.418 446.182 214.222 446.722 213.981C446.722 213.981 446.172 213.871 445.58 214.084C445.165 213.35 444.226 212.13 442.779 212.304C442.779 212.304 443.634 212.413 444.046 213.205C441.904 212.201 438.186 212.307 429.412 216.533C417.845 222.104 424.777 228.347 426.681 228.675C428.585 229.004 431.493 224.961 434.461 224.083C437.43 223.201 439.611 227.217 440.81 227.42C442.01 227.623 441.232 226.744 442.319 225.628C443.406 224.511 444.39 226.686 444.567 228.279C444.744 229.873 446.664 231.198 446.664 231.198C446.664 231.198 447.298 231.079 448.356 228.363C449.414 225.647 447.861 216.472 446.327 214.981C446.188 214.856 446.053 214.721 445.915 214.586Z" fill="#2B478B"/>
<path d="M509.982 359.036C509.982 359.036 512.478 362.827 513.06 364.053C513.639 365.283 512.501 367.896 510.79 368.288C509.281 368.636 509.056 371.314 509.056 371.314H516.373C517.148 371.314 517.846 370.886 518.145 370.229C519.178 367.957 519.413 365.003 519.622 364.011C520.059 361.932 520.921 360.188 520.542 358.074C520.162 355.966 516.557 354.743 509.985 354.762C502.765 354.788 509.982 359.036 509.982 359.036Z" fill="#233862"/>
<path d="M488.468 313.332C482.949 319.183 442.432 307.079 445.828 303.996C446.693 303.214 446.397 302.271 446.748 301.01C448.43 295.024 445.082 284.783 443.647 280.815C443.313 279.894 443.081 279.312 443.04 279.196C441.669 275.492 440.611 271.633 439.916 267.903C438.582 260.749 438.604 254.097 440.431 250.022C440.444 250 440.447 249.98 440.46 249.967C448.051 247.747 452.229 236.576 452.229 236.576C452.229 236.576 476.275 243.409 485.001 277.741C485.001 277.741 485.451 279.93 486.007 283.216H486.011C486.178 284.223 486.358 285.337 486.538 286.521C487.471 292.629 488.011 300.462 488.564 306.297C488.587 306.5 488.603 306.706 488.626 306.915C488.902 309.425 489.385 312.361 488.468 313.332Z" fill="#F99746"/>
<path d="M456.561 307.527C456.561 307.527 460.601 308.058 468.748 308.66C477.191 309.285 486.139 310.617 487.593 313.455C488.075 314.395 487.738 316.773 486.798 320.059C484.717 327.323 479.671 339.018 473.91 349.388C488.709 350.244 508.844 353.513 508.844 353.513C512.137 357.24 510.757 361.601 510.757 361.601C509.702 361.611 506.525 362.058 502.192 362.76C486.49 365.289 467.365 370.49 455.509 370.49C452.917 370.49 450.974 368.646 450.186 366.239V366.235C445.31 351.393 456.561 307.527 456.561 307.527Z" fill="#2B478B"/>
<path d="M486.799 321.16C478.629 320.902 458.144 310.839 458.478 310.758C462.293 309.819 465.705 309.168 468.751 308.76C477.194 309.442 486.142 310.89 487.596 313.977C488.072 315 487.738 317.584 486.799 321.16Z" fill="#2C3A64"/>
<path d="M456.262 238.246C456.262 238.246 445.982 240.386 444.979 249.397C444.249 255.96 449.456 270.825 449.456 270.825L452.785 269.457C452.785 269.457 446.491 251.106 447.459 247.985C448.7 243.981 454.609 237.995 460.045 240.386L456.262 238.246Z" fill="#2B478B"/>
<path d="M488.468 313.332C482.948 319.183 441.56 307.208 444.953 304.125C445.815 303.343 446.394 302.271 446.745 301.009C448.427 295.023 445.079 284.783 443.644 280.815C443.31 279.894 440.145 268.991 440.1 268.875L451.753 266.352C451.753 266.352 455.049 272.032 459.33 274.948C464.943 278.774 474.017 283.196 486.004 283.215H486.007C486.174 284.223 486.355 285.336 486.535 286.521C487.467 292.629 488.008 300.462 488.561 306.297C488.584 306.5 488.6 306.706 488.622 306.915C488.902 309.425 489.384 312.36 488.468 313.332Z" fill="#2B478B"/>
<path d="M400.615 370.821H392.593V281.372C392.593 275.116 387.508 270.024 381.256 270.024H360.372V261.998H381.256C391.931 261.998 400.618 270.687 400.618 281.372V370.821H400.615Z" fill="#BDD1F9"/>
<path d="M378.306 261.068H376.859V271.325H378.306V261.068Z" fill="#91B5F8"/>
<path d="M402.043 288.759V287.311H391.792V288.759H402.043Z" fill="#91B5F8"/>
<path d="M402.04 305.978V304.529H391.789V305.978H402.04Z" fill="#91B5F8"/>
<path d="M401.262 358.84H391.567V370.818H401.262V358.84Z" fill="#91B5F8"/>
<path d="M401.834 285.582L439.518 300.399C440.27 300.695 441.123 300.325 441.418 299.572L441.666 298.938C441.917 298.301 441.602 297.583 440.968 297.332L403.073 282.432L401.834 285.582Z" fill="#2B478B"/>
<path d="M398.177 284.343L399.017 284.671L399.271 282.763C399.489 281.122 401.139 280.089 402.613 280.668L413.619 284.996L414.709 282.219L400.77 276.738C399.412 276.204 397.884 277.112 397.611 278.615L396.981 282.103C396.807 283.065 397.305 284.002 398.177 284.343Z" fill="#2B478B"/>
<path d="M405.806 284.678L412.689 287.383L414.237 283.448L407.353 280.742L405.806 284.678Z" fill="#2B478B"/>
<path d="M411.76 284.967C411.853 284.726 411.738 284.456 411.496 284.362C411.255 284.269 410.985 284.385 410.892 284.626C410.798 284.868 410.917 285.138 411.155 285.231C411.397 285.325 411.667 285.205 411.76 284.967Z" fill="#6C7AFF"/>
<path d="M408.984 283.876C409.077 283.637 408.962 283.364 408.72 283.271C408.479 283.177 408.209 283.293 408.116 283.534C408.022 283.776 408.138 284.046 408.379 284.139C408.621 284.233 408.891 284.114 408.984 283.876Z" fill="#6C7AFF"/>
<path d="M442.866 291.916C442.866 291.916 441.019 292.35 439.041 292.415C437.26 292.473 435.375 292.145 434.522 292.502C432.718 293.255 427.002 297.184 429.762 298.868C432.522 300.551 435.365 299.962 437.253 298.433C439.138 296.904 444.265 296.779 444.265 296.779L442.866 291.916Z" fill="#FFB27D"/>
<path d="M462.074 246.515C474.467 250.093 482.013 279.85 480.269 288.758C478.523 297.663 443.541 298.13 443.541 298.13C443.541 298.13 441.576 296.591 441.344 295.001C441.049 292.974 441.367 292.041 441.367 292.041C441.367 292.041 463.486 286.032 463.991 283.477C464.496 280.921 453.345 267.376 453.512 260.031C453.683 252.687 455.323 244.564 462.074 246.515Z" fill="#F99746"/>
<path d="M414.809 370.821C414.809 370.821 410.013 363.232 396.414 364.832C382.812 366.428 373.125 373.746 340.678 365.578C308.23 357.41 311.161 372.066 292.682 368.909C274.207 365.752 266.096 370.821 266.096 370.821H414.809Z" fill="#8C9DF4"/>
<path d="M380.493 261.068C380.493 261.068 384.208 252.755 391.365 254.271C391.365 254.271 393.201 254.731 392.741 256.61C392.282 258.49 386.685 255.931 380.493 261.068Z" fill="#8C9DF4"/>
</g>
<defs>
<clipPath id="clip0_272_203">
<rect width="816" height="373" fill="white"/>
</clipPath>
</defs>
</svg>
