<svg width="471" height="301" viewBox="0 0 471 301" fill="none" xmlns="http://www.w3.org/2000/svg">
<g clip-path="url(#clip0_272_2)">
<path d="M466.846 271.672C461.34 289.546 452.031 299.87 451.849 300.286C424.115 300.286 20.1102 300.384 19.8788 299.667L19.8387 299.576C19.8387 299.576 19.8004 299.488 19.8004 299.444C19.7367 299.295 9.06671 281.95 3.41835 256.697C-4.58045 220.922 -2.50331 169.275 54.0841 128.15C91.8552 100.699 51.7209 82.5784 81.7556 52.0202C111.572 21.6866 143.736 46.5405 176.686 43.6109C191.157 42.3459 202.663 35.8057 212.723 25.5509C236.373 1.46721 273.288 -3.35537 306.724 1.93632C339.055 7.06555 370.228 21.8801 388.638 41.2069C393.652 46.473 416.455 73.7145 398.481 111.158C387.133 134.8 434.676 157.379 451.57 184.376C474.477 220.98 473.141 251.252 466.846 271.672Z" fill="#DCEAFF"/>
<path d="M106.431 221.578V223.558C106.431 224.252 106.207 224.818 105.934 224.818H33.8154C33.5421 224.818 33.318 224.252 33.318 223.558V221.578C33.318 220.886 33.5421 220.318 33.8154 220.318H105.934C106.207 220.32 106.431 220.886 106.431 221.578Z" fill="#8FA6EF"/>
<path d="M106.431 221.578V223.558C106.431 224.252 106.226 224.818 105.974 224.818H48.7198C48.4683 224.818 48.2625 224.252 48.2625 223.558V221.578C48.2625 220.886 48.4683 220.318 48.7198 220.318H105.974C106.226 220.32 106.431 220.886 106.431 221.578Z" fill="#D2E1FF"/>
<path d="M88.1781 224.816H36.9785V299.577H88.1781V224.816Z" fill="#AEC3FF"/>
<path d="M102.527 224.816H51.3271V299.577H102.527V224.816Z" fill="#BDD1FF"/>
<path d="M99.7755 295.451H54.0785V226.93H99.7755V295.451ZM54.5723 294.959H99.2836V227.426H54.5723V294.959Z" fill="#8FA6EF"/>
<path d="M99.5277 249.596H54.3245V250.09H99.5277V249.596Z" fill="#8FA6EF"/>
<path d="M99.5277 272.707H54.3245V273.202H99.5277V272.707Z" fill="#8FA6EF"/>
<path d="M81.5586 231.347H73.1699C72.7636 231.347 72.4302 231.013 72.4302 230.606C72.4302 230.199 72.7636 229.865 73.1699 229.865H81.5586C81.965 229.865 82.2984 230.199 82.2984 230.606C82.2984 231.013 81.9668 231.347 81.5586 231.347Z" fill="#8FA6EF"/>
<path d="M81.5586 253.947H73.1699C72.7636 253.947 72.4302 253.613 72.4302 253.206C72.4302 252.799 72.7636 252.465 73.1699 252.465H81.5586C81.965 252.465 82.2984 252.799 82.2984 253.206C82.2984 253.613 81.9668 253.947 81.5586 253.947Z" fill="#8FA6EF"/>
<path d="M81.5586 277.504H73.1699C72.7636 277.504 72.4302 277.17 72.4302 276.763C72.4302 276.356 72.7636 276.021 73.1699 276.021H81.5586C81.965 276.021 82.2984 276.356 82.2984 276.763C82.2984 277.17 81.9668 277.504 81.5586 277.504Z" fill="#8FA6EF"/>
<path d="M134.03 93.2655H103.276C101.864 93.2655 100.708 92.1082 100.708 90.6936V60.9586C100.708 59.544 101.864 58.3867 103.276 58.3867H134.03C135.442 58.3867 136.597 59.544 136.597 60.9586V90.6954C136.597 92.11 135.442 93.2655 134.03 93.2655Z" fill="#C0D8FB"/>
<path d="M132.698 91.7561H104.608C103.318 91.7561 102.263 90.6992 102.263 89.4069V62.2457C102.263 60.9534 103.318 59.8965 104.608 59.8965H132.696C133.986 59.8965 135.041 60.9534 135.041 62.2457V89.4069C135.043 90.6992 133.988 91.7561 132.698 91.7561Z" fill="#DFEBFD"/>
<path d="M117.91 63.0826C117.91 62.6719 118.244 62.3379 118.654 62.3379C119.064 62.3379 119.397 62.6719 119.397 63.0826C119.397 63.4933 119.064 63.8274 118.654 63.8274C118.242 63.8274 117.91 63.4933 117.91 63.0826Z" fill="#B7D3F3"/>
<path d="M123.909 64.133C124.107 63.7734 124.561 63.6438 124.92 63.8446C125.279 64.0435 125.408 64.498 125.208 64.8576C125.009 65.2172 124.555 65.3468 124.196 65.146C123.838 64.9471 123.708 64.4926 123.909 64.133Z" fill="#B7D3F3"/>
<path d="M129.047 68.2245C129.391 68.0018 129.852 68.1004 130.074 68.4472C130.297 68.7922 130.198 69.254 129.852 69.4767C129.508 69.6994 129.047 69.6008 128.824 69.254C128.604 68.909 128.702 68.4472 129.047 68.2245Z" fill="#B7D3F3"/>
<path d="M131.594 74.5547C132.004 74.5547 132.337 74.8887 132.337 75.2994C132.337 75.7101 132.004 76.0442 131.594 76.0442C131.184 76.0442 130.851 75.7101 130.851 75.2994C130.851 74.8887 131.182 74.5547 131.594 74.5547Z" fill="#B7D3F3"/>
<path d="M129.768 83.1731C130.179 83.1731 130.512 82.8396 130.512 82.4283C130.512 82.0171 130.179 81.6836 129.768 81.6836C129.358 81.6836 129.025 82.0171 129.025 82.4283C129.025 82.8396 129.358 83.1731 129.768 83.1731Z" fill="#B7D3F3"/>
<path d="M125.625 86.5907C125.915 86.881 125.915 87.3537 125.625 87.6439C125.335 87.9342 124.863 87.9342 124.574 87.6439C124.284 87.3537 124.284 86.881 124.574 86.5907C124.863 86.3005 125.335 86.3005 125.625 86.5907Z" fill="#B7D3F3"/>
<path d="M117.91 89.0084C117.91 88.5977 118.244 88.2637 118.654 88.2637C119.064 88.2637 119.397 88.5977 119.397 89.0084C119.397 89.4191 119.064 89.7532 118.654 89.7532C118.242 89.7532 117.91 89.4209 117.91 89.0084Z" fill="#B7D3F3"/>
<path d="M113.373 64.133C113.175 63.7734 112.721 63.6438 112.362 63.8446C112.003 64.0435 111.874 64.498 112.074 64.8576C112.273 65.2172 112.727 65.3468 113.086 65.146C113.445 64.9471 113.574 64.4926 113.373 64.133Z" fill="#B7D3F3"/>
<path d="M108.235 68.2245C107.891 68.0018 107.43 68.1004 107.208 68.4472C106.985 68.7922 107.084 69.254 107.43 69.4767C107.774 69.6994 108.235 69.6008 108.458 69.254C108.68 68.909 108.58 68.4472 108.235 68.2245Z" fill="#B7D3F3"/>
<path d="M105.69 74.5547C105.28 74.5547 104.946 74.8887 104.946 75.2994C104.946 75.7101 105.28 76.0442 105.69 76.0442C106.1 76.0442 106.433 75.7101 106.433 75.2994C106.433 74.8887 106.1 74.5547 105.69 74.5547Z" fill="#B7D3F3"/>
<path d="M106.989 81.9013C106.699 82.1915 106.699 82.6643 106.989 82.9545C107.279 83.2447 107.751 83.2447 108.04 82.9545C108.33 82.6643 108.33 82.1915 108.04 81.9013C107.751 81.611 107.279 81.611 106.989 81.9013Z" fill="#B7D3F3"/>
<path d="M111.657 86.5907C111.367 86.881 111.367 87.3537 111.657 87.6439C111.947 87.9342 112.419 87.9342 112.708 87.6439C112.998 87.3537 112.998 86.881 112.708 86.5907C112.419 86.3005 111.949 86.3005 111.657 86.5907Z" fill="#B7D3F3"/>
<path d="M118.453 75.2994C118.453 74.8887 118.787 74.5547 119.197 74.5547C119.607 74.5547 119.94 74.8887 119.94 75.2994C119.94 75.7101 119.607 76.0442 119.197 76.0442C118.785 76.0442 118.453 75.712 118.453 75.2994Z" fill="#B7D3F3"/>
<path d="M119.297 65.9961H119.095V75.2999H119.297V65.9961Z" fill="#B7D3F3"/>
<path d="M123.832 71.1777L118.909 75.0489L119.285 75.5285L124.208 71.6573L123.832 71.1777Z" fill="#B7D3F3"/>
<path d="M34.7881 220.319H75.0226V183.049H34.7881V220.319Z" fill="#ED823A"/>
<path d="M54.9045 220.319H95.1391V183.049H54.9045V220.319Z" fill="#FF9E55"/>
<path d="M34.8121 210.867H41.1875L40.6263 208.85L41.1875 207.41H34.8121V210.867Z" fill="#DD732C"/>
<path d="M54.9056 194.582H61.281L60.7198 192.567L61.281 191.127H54.9056V194.582Z" fill="#FFB27D"/>
<path d="M54.9056 191.127H48.5303L49.0915 193.142L48.5303 194.582H54.9056V191.127Z" fill="#DD732C"/>
<path d="M95.1401 211.268H88.7648L89.326 213.283L88.7648 214.723H95.1401V211.268Z" fill="#FFB27D"/>
<path d="M203.306 268.311H196.506C194.784 268.311 193.387 266.913 193.387 265.186V196.107C193.387 194.382 194.783 192.982 196.506 192.982H203.306C205.028 192.982 206.426 194.381 206.426 196.107V265.186C206.426 266.911 205.028 268.311 203.306 268.311Z" fill="#EBF3FA"/>
<path d="M221.075 268.311H214.275C212.553 268.311 211.156 266.913 211.156 265.186V196.107C211.156 194.382 212.551 192.982 214.275 192.982H221.075C222.797 192.982 224.194 194.381 224.194 196.107V265.186C224.192 266.911 222.797 268.311 221.075 268.311Z" fill="#EBF3FA"/>
<path d="M238.843 268.311H232.044C230.322 268.311 228.924 266.913 228.924 265.186V196.107C228.924 194.382 230.32 192.982 232.044 192.982H238.843C240.565 192.982 241.963 194.381 241.963 196.107V265.186C241.961 266.911 240.565 268.311 238.843 268.311Z" fill="#EBF3FA"/>
<path d="M256.61 268.311H249.81C248.089 268.311 246.691 266.913 246.691 265.186V196.107C246.691 194.382 248.087 192.982 249.81 192.982H256.61C258.332 192.982 259.73 194.381 259.73 196.107V265.186C259.73 266.911 258.334 268.311 256.61 268.311Z" fill="#EBF3FA"/>
<path d="M274.379 268.311H267.579C265.857 268.311 264.46 266.913 264.46 265.186V196.107C264.46 194.382 265.855 192.982 267.579 192.982H274.379C276.101 192.982 277.498 194.381 277.498 196.107V265.186C277.498 266.911 276.103 268.311 274.379 268.311Z" fill="#EBF3FA"/>
<path d="M292.148 268.311H285.348C283.626 268.311 282.228 266.913 282.228 265.186V196.107C282.228 194.382 283.624 192.982 285.348 192.982H292.148C293.869 192.982 295.267 194.381 295.267 196.107V265.186C295.267 266.911 293.871 268.311 292.148 268.311Z" fill="#EBF3FA"/>
<path d="M301.677 1.2209C269.623 -2.82224 235.187 2.67386 212.721 25.551C203.687 34.758 193.489 40.9679 181.026 43.0579V176.009H301.677V1.2209Z" fill="#EBF3FA"/>
<path d="M306.724 180.331V1.93599C304.508 1.58552 302.278 1.28068 300.039 1.02148V173.168H183.373V42.6102C181.214 43.072 178.987 43.4079 176.686 43.6105V180.333H306.724V180.331Z" fill="#C2D2FF"/>
<path d="M313.974 180.695H169.884V177.804C169.884 175.734 171.561 174.055 173.627 174.055H310.321C312.338 174.055 313.974 175.694 313.974 177.715V180.695Z" fill="#C2D2FF"/>
<path d="M244.229 6.03711C241.531 6.97351 238.885 8.03039 236.3 9.20957V175.391H244.229V6.03711Z" fill="#C2D2FF"/>
<path d="M241.562 93.4922H240.924C240.496 93.4922 240.144 93.1454 240.132 92.7109L239.851 83.5824C239.836 83.1278 240.197 82.75 240.644 82.75H241.866C242.314 82.75 242.675 83.1278 242.659 83.5842L242.355 92.7128C242.342 93.1472 241.99 93.4922 241.562 93.4922Z" fill="#9DB0F4"/>
<path d="M320.023 220.083H282.964V217.755H320.023C323.928 217.755 327.105 214.572 327.105 210.66V6.5918H329.428V210.658C329.428 215.855 325.209 220.083 320.023 220.083Z" fill="#EBF3FA"/>
<path d="M426.531 298.598L416.799 262.576H424.385L429.853 298.406C429.973 299.189 429.45 299.905 428.759 299.905H428.071C427.364 299.903 426.741 299.373 426.531 298.598Z" fill="#AEC3FF"/>
<path d="M317.68 298.598L327.411 262.576H319.826L314.358 298.406C314.238 299.189 314.761 299.905 315.45 299.905H316.138C316.847 299.903 317.47 299.373 317.68 298.598Z" fill="#AEC3FF"/>
<path d="M376.924 298.598L367.192 262.576H374.778L380.246 298.406C380.364 299.189 379.843 299.905 379.152 299.905H378.464C377.757 299.903 377.133 299.373 376.924 298.598Z" fill="#AEC3FF"/>
<path d="M432.726 176.913C432.726 176.913 412.587 172.507 373.726 176.913L369.268 222.297L422.621 219.654L432.726 176.913Z" fill="#DB6A1D"/>
<path d="M312.571 245.317C312.571 245.317 308.748 204.697 326.196 204.697C343.642 204.697 346.372 204.557 345.557 188.384C344.889 175.114 376.467 176.326 376.467 176.326L362.648 245.315H312.571V245.317Z" fill="#F99746"/>
<path d="M322.552 245.316C322.552 245.316 318.73 204.697 336.176 204.697C353.622 204.697 358.846 201.942 361.273 185.932C362.883 175.307 380.071 176.254 380.071 176.254C380.071 176.254 375.37 179.841 375 186.348C374.154 201.161 372.629 245.314 372.629 245.314H322.552V245.316Z" fill="#ED7D2B"/>
<path d="M322.536 245.315C322.536 245.315 322.013 241.347 324.52 239.532C330.828 234.969 341.317 229.245 354.968 228.465C378.105 227.144 392.84 245.315 392.84 245.315H322.536Z" fill="#DB6A1D"/>
<path d="M375.346 266.31C375.346 266.31 370.217 266.193 369.258 270.231L367.89 265.047H375.207L375.346 266.31Z" fill="#8FADEF"/>
<path d="M424.959 266.337C424.959 266.337 419.819 266.165 418.86 270.205L417.455 265.039H424.773L424.959 266.337Z" fill="#8FADEF"/>
<path d="M319.34 265.763C319.34 265.763 325.349 265.582 325.595 269.298L326.743 265.049H319.447L319.34 265.763Z" fill="#8FADEF"/>
<path d="M419.254 128.303L417.856 127.807L380.397 233.507L381.792 234.003L419.254 128.303Z" fill="#AEC3FF"/>
<path d="M390.467 239.613L370.091 232.364C370.61 230.897 372.219 230.13 373.684 230.652L388.756 236.013C390.221 236.533 390.986 238.145 390.467 239.613Z" fill="#AEC3FF"/>
<path d="M414.38 159.606C414.431 159.466 414.586 159.391 414.726 159.442C414.866 159.493 414.941 159.648 414.89 159.789C414.839 159.929 414.686 160.004 414.544 159.953C414.404 159.904 414.329 159.749 414.38 159.606Z" fill="#AEC3FF"/>
<path d="M414.556 159.11C414.607 158.97 414.761 158.895 414.903 158.946C415.043 158.997 415.118 159.152 415.067 159.293C415.017 159.433 414.863 159.508 414.72 159.457C414.58 159.406 414.505 159.251 414.556 159.11Z" fill="#AEC3FF"/>
<path d="M414.203 160.104C414.252 159.964 414.407 159.889 414.549 159.94C414.69 159.989 414.764 160.144 414.713 160.287C414.662 160.427 414.507 160.502 414.367 160.451C414.227 160.4 414.154 160.245 414.203 160.104Z" fill="#AEC3FF"/>
<path d="M414.023 160.613C414.072 160.471 414.229 160.398 414.369 160.447C414.509 160.498 414.584 160.653 414.533 160.794C414.484 160.934 414.329 161.009 414.187 160.958C414.046 160.911 413.973 160.755 414.023 160.613Z" fill="#AEC3FF"/>
<path d="M413.851 161.67C413.868 161.521 414.003 161.415 414.15 161.431C414.3 161.448 414.407 161.583 414.389 161.731C414.372 161.88 414.238 161.986 414.09 161.97C413.942 161.953 413.835 161.818 413.851 161.67Z" fill="#AEC3FF"/>
<path d="M413.91 161.145C413.926 160.996 414.061 160.888 414.209 160.906C414.358 160.923 414.464 161.058 414.447 161.206C414.431 161.355 414.296 161.463 414.148 161.445C414.001 161.428 413.893 161.295 413.91 161.145Z" fill="#AEC3FF"/>
<path d="M413.793 162.194C413.81 162.045 413.944 161.937 414.092 161.955C414.241 161.972 414.349 162.107 414.331 162.255C414.312 162.402 414.179 162.512 414.032 162.494C413.884 162.477 413.777 162.344 413.793 162.194Z" fill="#AEC3FF"/>
<path d="M413.735 162.731C413.751 162.582 413.886 162.474 414.034 162.492C414.183 162.509 414.291 162.644 414.272 162.792C414.256 162.941 414.121 163.049 413.974 163.031C413.824 163.014 413.717 162.879 413.735 162.731Z" fill="#AEC3FF"/>
<path d="M413.695 163.78C413.673 163.632 413.777 163.494 413.924 163.474C414.072 163.452 414.21 163.556 414.23 163.704C414.25 163.851 414.148 163.99 414.001 164.01C413.853 164.032 413.717 163.928 413.695 163.78Z" fill="#AEC3FF"/>
<path d="M413.706 163.253C413.684 163.105 413.788 162.966 413.935 162.946C414.083 162.924 414.221 163.028 414.241 163.176C414.261 163.324 414.159 163.463 414.012 163.483C413.862 163.505 413.726 163.401 413.706 163.253Z" fill="#AEC3FF"/>
<path d="M413.718 164.306C413.698 164.158 413.8 164.019 413.948 163.999C414.096 163.977 414.234 164.081 414.254 164.229C414.276 164.377 414.172 164.516 414.025 164.536C413.877 164.558 413.738 164.455 413.718 164.306Z" fill="#AEC3FF"/>
<path d="M413.893 164.792C413.871 164.644 413.975 164.505 414.123 164.485C414.27 164.463 414.409 164.567 414.429 164.715C414.451 164.863 414.347 165.002 414.199 165.022C414.05 165.044 413.913 164.942 413.893 164.792Z" fill="#AEC3FF"/>
<path d="M414.628 165.771C414.524 165.663 414.525 165.491 414.631 165.387C414.739 165.283 414.91 165.285 415.014 165.391C415.119 165.499 415.116 165.67 415.01 165.774C414.903 165.88 414.731 165.878 414.628 165.771Z" fill="#AEC3FF"/>
<path d="M414.258 165.394C414.154 165.286 414.156 165.115 414.261 165.01C414.369 164.906 414.54 164.908 414.644 165.014C414.748 165.122 414.746 165.293 414.64 165.397C414.535 165.502 414.363 165.502 414.258 165.394Z" fill="#AEC3FF"/>
<path d="M414.996 166.148C414.892 166.04 414.894 165.868 414.999 165.764C415.107 165.66 415.278 165.662 415.382 165.768C415.486 165.876 415.484 166.047 415.378 166.151C415.271 166.257 415.099 166.254 414.996 166.148Z" fill="#AEC3FF"/>
<path d="M415.371 166.534C415.267 166.427 415.269 166.255 415.375 166.151C415.482 166.047 415.653 166.049 415.757 166.155C415.861 166.262 415.859 166.434 415.754 166.538C415.648 166.644 415.477 166.642 415.371 166.534Z" fill="#AEC3FF"/>
<path d="M420.008 161.802L395.307 153.016L409.756 122.891L427.759 129.294L420.008 161.802Z" fill="#8C9DF4"/>
<path d="M333.22 153.832C333.202 153.867 333.184 153.9 333.164 153.933L333.16 153.94C333.142 153.973 333.124 154.006 333.105 154.037C332.541 154.829 329.908 154.285 327.129 152.784C324.35 151.284 322.448 149.382 322.798 148.473C322.814 148.44 322.831 148.407 322.847 148.374L322.851 148.367C322.867 148.332 322.885 148.3 322.904 148.265C324.438 145.41 327.993 144.344 330.841 145.881C333.69 147.42 334.754 150.979 333.22 153.832Z" fill="#F99746"/>
<path d="M333.164 153.932L333.16 153.939C333.155 153.952 333.149 153.963 333.144 153.974C333.133 153.996 333.12 154.016 333.105 154.036C332.541 154.828 329.908 154.286 327.129 152.784C324.35 151.285 322.448 149.381 322.796 148.472C322.805 148.448 322.816 148.426 322.827 148.405C322.833 148.394 322.838 148.383 322.847 148.372L322.851 148.364C323.226 147.788 324.644 147.881 326.424 148.51C327.182 148.779 328.006 149.144 328.842 149.595C329.5 149.951 330.106 150.327 330.649 150.708C332.417 151.955 333.464 153.243 333.164 153.932Z" fill="#8C9DF4"/>
<path d="M330.649 150.708C330.325 151.138 329.855 151.461 329.29 151.598C327.993 151.911 326.69 151.109 326.378 149.811C326.271 149.366 326.296 148.919 326.424 148.512C327.182 148.78 328.005 149.145 328.842 149.596C329.5 149.95 330.108 150.328 330.649 150.708Z" fill="#C5DFFF"/>
<path d="M342.954 174.088L342.431 174.214L340.272 165.202L342.345 150.256L331.028 145.141L331.249 144.65L342.932 149.931L340.818 165.175L342.954 174.088Z" fill="#35488B"/>
<path d="M330.175 146.343C329.895 146.23 329.758 145.911 329.871 145.63L330.398 144.315C330.511 144.034 330.83 143.897 331.11 144.01C331.391 144.124 331.527 144.443 331.415 144.724L330.888 146.038C330.775 146.32 330.456 146.456 330.175 146.343Z" fill="#35488B"/>
<path d="M341.811 150.217C341.72 149.834 341.955 149.451 342.336 149.358C342.718 149.266 343.101 149.502 343.194 149.885C343.285 150.268 343.05 150.652 342.669 150.745C342.287 150.836 341.902 150.601 341.811 150.217Z" fill="#35488B"/>
<path d="M345.524 174.781L340.268 176.044L340.14 175.512C340.013 174.978 340.341 174.441 340.875 174.313L344.162 173.523C344.715 173.39 345.275 173.733 345.408 174.288L345.524 174.781Z" fill="#35488B"/>
<path d="M341.225 165.652L340.12 165.918L342.125 174.292L343.229 174.027L341.225 165.652Z" fill="#35488B"/>
<path d="M337.934 235.523L351.477 235.465C351.843 235.463 352.148 235.178 352.173 234.811C352.23 233.948 352.281 232.369 352.042 230.952C352.042 230.951 352.042 230.947 352.04 230.945C351.971 230.554 351.566 230.323 351.182 230.418C350.349 230.626 349.269 230.699 348.088 230.281C347.186 229.959 346.463 229.509 345.902 229.052C345.632 228.833 345.244 228.839 344.987 229.074C344.049 229.93 341.915 231.754 340.796 231.759C339.47 231.765 337.509 232.354 337.236 234.744C337.185 235.162 337.515 235.525 337.934 235.523Z" fill="#F5FBFF"/>
<path d="M358.448 235.523L371.992 235.465C372.358 235.463 372.662 235.178 372.688 234.811C372.744 233.948 372.795 232.369 372.556 230.952C372.556 230.951 372.556 230.947 372.555 230.945C372.485 230.554 372.081 230.323 371.696 230.418C370.864 230.626 369.783 230.699 368.603 230.281C367.701 229.959 366.977 229.509 366.416 229.052C366.146 228.833 365.758 228.839 365.501 229.074C364.563 229.93 362.43 231.754 361.311 231.759C359.984 231.765 358.026 232.354 357.75 234.744C357.701 235.162 358.031 235.525 358.448 235.523Z" fill="#F5FBFF"/>
<path d="M343.684 229.39C343.684 229.39 349.635 232.225 353.13 230.283C353.13 230.283 354.493 225.418 356.122 218.345C357.472 212.489 359.002 205.121 360.094 197.742C360.152 197.356 360.208 196.93 360.261 196.474C361.134 189.039 361.041 173.431 345.996 177.629L343.684 229.39Z" fill="#35488B"/>
<path d="M356.122 218.345C357.472 212.489 359.002 205.12 360.094 197.742C360.152 197.355 360.208 196.93 360.261 196.474C359.336 191.255 357.891 187.084 356.204 186.582C356.204 186.582 350.371 211.836 356.122 218.345Z" fill="#2C3A64"/>
<path d="M354.023 142.974L361.91 146.97L363.464 141.494C363.464 141.494 362.453 139.605 361.987 136.507C361.792 135.204 361.692 133.687 361.805 132.006L355.406 135.323C355.406 135.323 355.56 135.916 355.668 136.792C355.781 137.739 355.836 139.015 355.571 140.229C355.344 141.271 354.883 142.268 354.023 142.974Z" fill="#FFB27D"/>
<path d="M355.571 140.23C359.217 140.117 361.987 136.508 361.987 136.508L355.668 136.793C355.781 137.738 355.835 139.014 355.571 140.23Z" fill="#EA9C68"/>
<path d="M353.795 138.201C353.795 138.201 361.076 140.094 363.561 134.29C366.241 128.025 363.251 123.482 360.781 123.184C355.852 122.593 353 124.486 352.142 126.479C351.284 128.47 349.777 137.192 353.795 138.201Z" fill="#FFB27D"/>
<path d="M362.269 136.321C362.269 136.321 363.111 133.809 363.003 132.471C363.003 132.471 364.891 130.038 363.783 129.443C362.675 128.848 362.083 130.284 361.83 130.005C361.575 129.724 361.16 124.961 359.817 125.118C358.474 125.275 353.512 126.838 351.326 124.967C349.139 123.094 354.392 115.72 363.361 118.52C372.329 121.32 370.543 131.304 362.269 136.321Z" fill="#2C3A64"/>
<path d="M367.795 122.411C367.795 122.411 368.196 121.197 367.757 120.334C367.757 120.334 367.741 121.526 367.276 122.059C366.81 122.592 367.795 122.411 367.795 122.411Z" fill="#2C3A64"/>
<path d="M367.606 121.564C367.606 121.564 368.714 121.433 369.24 122.285C369.24 122.285 368.459 121.759 367.672 122.323L367.606 121.564Z" fill="#2C3A64"/>
<path d="M373.043 177.354C373.693 177.443 371.359 205.935 372.699 211.276C374.04 216.617 372.788 231.068 372.788 231.068C372.788 231.068 367.741 232.547 362.267 230.495C362.267 230.495 360.493 213.167 359.026 208.207C355.867 197.527 354.174 178.314 354.174 178.314L373.043 177.354Z" fill="#35488B"/>
<path d="M347.019 149.633L342.407 161.74L348.775 162.527L350.067 152.661L347.019 149.633Z" fill="#FFB98A"/>
<path d="M344.909 181.157C344.909 181.157 351.577 182.809 360.409 182.574C367.462 182.386 374.133 181.29 374.133 181.29C373.985 181.329 372.669 154.27 372.669 154.27L373.426 145.787C371.044 142.832 366.591 141.929 363.464 141.494C362.275 142.726 359.921 144.542 357.277 144.208C355.291 143.957 354.914 143.022 354.943 141.888C350.794 142.591 347.891 146.07 347.891 146.07L344.909 181.157Z" fill="#8C9DF4"/>
<path d="M373.3 145.369C373.3 145.369 381.557 160.954 380.49 165.211C379.422 169.467 367.686 171.099 367.686 171.099L366.912 168.854C366.912 168.854 375.645 162.958 374.654 161.974C373.662 160.99 369.984 154.481 369.781 153.494C369.581 152.503 370.538 145.678 373.3 145.369Z" fill="#FFB27D"/>
<path d="M369.417 142.938C369.417 142.938 372.678 144.06 374.714 147.017C376.749 149.974 378.245 153.576 378.245 153.576C378.245 153.576 375.102 157.197 370.612 157.168C366.121 157.139 369.417 142.938 369.417 142.938Z" fill="#8C9DF4"/>
<path d="M351.949 142.963C351.949 142.963 348.649 144.361 347.376 146.789C346.104 149.217 344.548 154.561 344.548 154.561C344.548 154.561 345.98 154.802 347.855 154.744C349.73 154.689 351.949 142.963 351.949 142.963Z" fill="#8C9DF4"/>
<path d="M357.452 162.624L361.249 154.972C361.391 154.684 361.411 154.348 361.32 154.036C361.32 154.034 361.32 154.034 361.318 154.032C360.914 152.651 361.651 151.303 361.735 151.156C361.989 150.716 362.524 150.579 362.934 150.851C363.344 151.123 363.47 151.701 363.217 152.141C363.129 152.295 362.83 152.968 362.978 153.468C363.007 153.569 363.096 153.874 363.656 154.135C364.907 154.715 365.487 153.602 365.634 153.244C365.824 152.771 366.334 152.552 366.775 152.755C367.218 152.957 367.424 153.509 367.234 153.985C367.176 154.131 366.631 155.432 365.396 155.965C365.394 155.965 365.392 155.967 365.39 155.967C365 156.133 364.671 156.429 364.472 156.827L360.673 164.484L357.452 162.624Z" fill="#35488B"/>
<path d="M353.975 162.216L354.793 157.685C354.824 157.516 354.786 157.34 354.693 157.198C354.693 157.198 354.693 157.196 354.691 157.196C354.285 156.563 354.463 155.754 354.485 155.663C354.549 155.396 354.802 155.236 355.05 155.305C355.298 155.375 355.445 155.647 355.382 155.913C355.36 156.006 355.305 156.399 355.453 156.629C355.482 156.674 355.571 156.815 355.894 156.851C356.615 156.935 356.746 156.271 356.77 156.065C356.797 155.793 357.025 155.595 357.278 155.623C357.534 155.652 357.718 155.897 357.69 156.17C357.683 156.254 357.596 157.008 357.043 157.487L357.042 157.488C356.869 157.638 356.743 157.844 356.701 158.08L355.883 162.612L353.975 162.216Z" fill="#35488B"/>
<path d="M339.228 164.177L336.704 158.343C336.609 158.124 336.433 157.962 336.221 157.881C336.219 157.881 336.219 157.881 336.218 157.88C335.276 157.522 334.864 156.452 334.82 156.332C334.691 155.974 334.853 155.571 335.186 155.43C335.518 155.289 335.893 155.467 336.023 155.824C336.068 155.948 336.307 156.439 336.648 156.567C336.717 156.593 336.924 156.671 337.316 156.43C338.194 155.888 337.837 155.023 337.706 154.769C337.531 154.437 337.637 154.014 337.945 153.824C338.255 153.632 338.648 153.745 338.827 154.077C338.881 154.18 339.355 155.107 339.098 156.135C339.098 156.136 339.098 156.138 339.096 156.14C339.014 156.463 339.029 156.805 339.16 157.109L341.684 162.947L339.228 164.177Z" fill="#8C9DF4"/>
<path d="M334.206 178.896L355.941 178.795L355.852 159.49L334.117 159.591L334.206 178.896Z" fill="#E28242"/>
<path d="M345.075 178.843L366.81 178.742L366.72 159.438L344.985 159.538L345.075 178.843Z" fill="#EF8C42"/>
<path d="M344.994 159.542L349.316 164.602L370.764 164.503L366.73 159.441L344.994 159.542Z" fill="#FFA561"/>
<path d="M334.197 173.999L337.642 173.984L337.334 172.942L337.635 172.193L334.19 172.21L334.197 173.999Z" fill="#F1A34F"/>
<path d="M345.003 161.724L340.441 166.68L334.168 166.709L334.14 159.592L344.994 159.541L345.003 161.724Z" fill="#CC662E"/>
<path d="M334.128 159.592L329.261 164.694L340.135 164.643L344.994 159.541L334.128 159.592Z" fill="#FFA561"/>
<path d="M367.134 168.777C367.134 168.777 365.142 167.525 364.219 167.974C363.295 168.423 361.675 170.185 362.564 170.515C363.453 170.845 364.687 170.752 365.17 171.01C365.653 171.267 366.702 171.484 367.81 171.072C368.918 170.659 367.134 168.777 367.134 168.777Z" fill="#FFB27D"/>
<path d="M367.047 168.764C367.047 168.764 366.664 167.919 366.617 167.632C366.569 167.346 366.311 167.466 366.303 167.791C366.296 168.116 366.28 168.7 366.28 168.7L367.047 168.764Z" fill="#FFB27D"/>
<path d="M372.099 265.048H425.862C428.065 265.048 429.869 263.243 429.869 261.035V245.316H367.981V260.923C367.981 263.192 369.834 265.048 372.099 265.048Z" fill="#ED7D2B"/>
<path d="M316.82 265.049H374.313C376.587 265.049 378.445 263.185 378.445 260.909V245.318H312.573V260.794C312.573 263.134 314.484 265.049 316.82 265.049Z" fill="#F99746"/>
<path d="M368.346 245.317C368.346 245.317 364.419 204.697 382.341 204.697C400.263 204.697 410.805 206.336 407.081 186.04C404.869 173.984 413.37 174.122 430.339 175.519C432.431 175.69 435.896 178.463 435.404 180.508L419.788 245.315H368.346V245.317Z" fill="#F99746"/>
<path d="M378.453 245.316C378.453 245.316 374.573 203.388 392.448 204.697C414.977 206.349 419.48 207.229 415.123 187.696C412.033 173.845 421.32 174.312 433.008 175.831C434.621 176.041 436.383 177.26 436.018 179.626L429.894 245.316H378.453Z" fill="#ED7D2B"/>
<path d="M106.377 190.715C106.134 191.669 105.617 193.204 104.959 195.052C104.735 195.678 104.493 196.337 104.241 197.021C103.707 198.465 103.121 200.013 102.527 201.564C101.554 204.083 100.557 206.599 99.739 208.663C98.613 211.481 97.804 213.464 97.804 213.464L99.0011 216.373L88.8395 214.063L91.1644 211.954C91.1644 211.954 91.2865 209.826 91.4924 206.805C91.6491 204.571 91.8386 201.84 92.0426 199.129C92.1702 197.49 92.3087 195.858 92.4471 194.34C92.5656 193.075 92.684 191.89 92.7988 190.85C92.9427 189.537 93.094 188.449 93.2324 187.728C93.38 186.983 93.6406 186.346 93.9795 185.792C95.745 182.897 99.5878 182.314 99.9248 180.83C99.9722 180.618 100.007 180.352 100.036 180.034C100.247 177.702 99.9904 172.992 99.9904 172.992L106.632 174.502C106.632 174.502 104.414 178.554 103.582 180.761C103.456 181.093 103.367 181.372 103.316 181.601C102.98 183.083 106.2 185.273 106.543 188.646C106.606 189.289 106.566 189.979 106.377 190.715Z" fill="#8C9DF4"/>
<path d="M106.377 190.714C106.134 191.669 105.617 193.204 104.959 195.051C104.735 195.677 104.493 196.336 104.241 197.021C104.17 197.035 100.694 197.745 92.449 194.339H92.4471C92.5656 193.074 92.684 191.89 92.7988 190.849C92.9427 189.537 93.094 188.449 93.2324 187.728C93.38 186.983 93.6406 186.346 93.9795 185.791C93.9795 185.791 99.9558 188.816 106.541 188.648C106.606 189.288 106.566 189.978 106.377 190.714Z" fill="white"/>
<path d="M104.564 196.132C104.558 196.128 104.088 195.754 103.246 195.064C102.827 194.719 102.492 194.889 102.069 195.104C101.667 195.309 101.211 195.54 100.557 195.429C99.9649 195.329 99.6734 195.033 99.391 194.748C99.0266 194.38 98.6822 194.031 97.6837 194.151C96.1514 194.334 95.7724 193.971 95.0855 193.314C94.9598 193.193 94.8176 193.058 94.6591 192.916C93.7007 192.065 92.6658 192.686 92.6567 192.693L92.5966 192.596C92.6075 192.589 93.7135 191.926 94.7338 192.832C94.896 192.974 95.0381 193.111 95.1638 193.233C95.8252 193.867 96.1896 194.217 97.6691 194.04C98.7223 193.914 99.1031 194.299 99.4711 194.672C99.7408 194.944 100.02 195.226 100.575 195.32C101.193 195.424 101.63 195.201 102.018 195.006C102.461 194.781 102.842 194.588 103.319 194.978C104.159 195.668 104.629 196.041 104.635 196.044L104.564 196.132Z" fill="#F99746"/>
<path d="M104.715 195.46C104.71 195.456 104.239 195.082 103.398 194.392C102.979 194.047 102.643 194.217 102.221 194.432C101.818 194.637 101.362 194.869 100.708 194.757C100.116 194.657 99.8246 194.363 99.5422 194.076C99.1778 193.708 98.8334 193.359 97.835 193.479C96.3026 193.662 95.9236 193.301 95.2367 192.642C95.111 192.521 94.9689 192.386 94.8085 192.244C93.852 191.395 92.848 191.994 92.8061 192.021L92.746 191.924C92.7569 191.917 93.8629 191.254 94.8832 192.16C95.0454 192.304 95.1875 192.441 95.3132 192.561C95.9746 193.195 96.3391 193.545 97.8186 193.368C98.8717 193.242 99.2525 193.627 99.6206 194C99.8902 194.272 100.169 194.555 100.725 194.648C101.342 194.752 101.782 194.529 102.168 194.334C102.611 194.109 102.991 193.916 103.469 194.306C104.309 194.996 104.779 195.369 104.784 195.372L104.715 195.46Z" fill="#F99746"/>
<path d="M96.2553 192.266C96.3063 192.041 96.5304 191.899 96.7545 191.95C96.9786 192.001 97.1189 192.225 97.0697 192.45C97.0187 192.675 96.7946 192.815 96.5705 192.766C96.3464 192.715 96.2042 192.49 96.2553 192.266Z" fill="#F99746"/>
<path d="M100.543 193.24C100.594 193.016 100.818 192.873 101.042 192.924C101.266 192.976 101.406 193.2 101.357 193.425C101.306 193.649 101.082 193.79 100.858 193.74C100.634 193.689 100.492 193.465 100.543 193.24Z" fill="#F99746"/>
<path d="M98.039 195.002C98.0901 194.778 98.3142 194.637 98.5383 194.688C98.7624 194.739 98.9045 194.964 98.8535 195.188C98.8025 195.413 98.5784 195.553 98.3542 195.502C98.1283 195.451 97.988 195.229 98.039 195.002Z" fill="#F99746"/>
<path d="M102.19 195.945C102.241 195.72 102.465 195.58 102.689 195.629C102.913 195.68 103.055 195.905 103.004 196.129C102.953 196.354 102.729 196.494 102.505 196.445C102.281 196.394 102.139 196.171 102.19 195.945Z" fill="#F99746"/>
<path d="M93.3746 193.513C93.4256 193.289 93.6497 193.148 93.8739 193.197C94.098 193.248 94.2383 193.473 94.1891 193.697C94.138 193.922 93.9139 194.064 93.6898 194.013C93.4639 193.962 93.3236 193.739 93.3746 193.513Z" fill="#F99746"/>
<path d="M103.995 194.026C104.046 193.801 104.27 193.661 104.495 193.712C104.719 193.763 104.859 193.987 104.81 194.212C104.759 194.436 104.535 194.577 104.311 194.526C104.085 194.475 103.944 194.25 103.995 194.026Z" fill="#F99746"/>
<path d="M105.795 192.116C105.79 192.113 105.293 191.733 104.403 191.032C103.959 190.68 103.609 190.848 103.166 191.059C102.747 191.26 102.272 191.486 101.587 191.368C100.965 191.26 100.657 190.963 100.358 190.674C99.9722 190.3 99.6078 189.948 98.5583 190.055C96.9567 190.221 96.5559 189.855 95.8289 189.188C95.6959 189.066 95.5465 188.929 95.377 188.785C94.3621 187.922 93.3144 188.513 93.2707 188.539L93.2124 188.438C93.2233 188.431 94.3749 187.779 95.4517 188.697C95.623 188.843 95.7742 188.982 95.9072 189.104C96.6087 189.749 96.995 190.103 98.5455 189.942C99.6461 189.827 100.049 190.216 100.439 190.594C100.725 190.869 101.02 191.156 101.605 191.256C102.255 191.368 102.713 191.151 103.115 190.957C103.574 190.736 103.973 190.548 104.474 190.943C105.362 191.643 105.859 192.023 105.865 192.027L105.795 192.116Z" fill="#F99746"/>
<path d="M105.949 191.446C105.943 191.443 105.446 191.063 104.557 190.362C104.112 190.012 103.762 190.178 103.319 190.389C102.9 190.59 102.425 190.817 101.74 190.698C101.118 190.59 100.81 190.293 100.512 190.004C100.125 189.63 99.7591 189.278 98.7114 189.385C97.1098 189.552 96.7089 189.185 95.982 188.518C95.8489 188.396 95.6995 188.259 95.5301 188.115C94.5152 187.25 93.4347 187.861 93.4238 187.869L93.3655 187.768C93.3764 187.761 94.528 187.109 95.6048 188.027C95.7761 188.173 95.9273 188.312 96.0603 188.434C96.7618 189.079 97.1481 189.433 98.6986 189.272C99.7991 189.157 100.202 189.548 100.592 189.924C100.878 190.2 101.173 190.486 101.758 190.587C102.406 190.698 102.866 190.481 103.268 190.287C103.729 190.066 104.127 189.876 104.628 190.274C105.515 190.975 106.012 191.355 106.018 191.359L105.949 191.446Z" fill="#F99746"/>
<path d="M97.046 188.15C97.097 187.925 97.3302 187.786 97.5653 187.839C97.8003 187.892 97.9516 188.119 97.9005 188.343C97.8495 188.568 97.6163 188.706 97.3813 188.653C97.1444 188.601 96.995 188.374 97.046 188.15Z" fill="#F99746"/>
<path d="M101.55 189.173C101.601 188.949 101.834 188.81 102.069 188.863C102.304 188.916 102.456 189.142 102.405 189.367C102.354 189.591 102.12 189.73 101.885 189.677C101.649 189.624 101.499 189.398 101.55 189.173Z" fill="#F99746"/>
<path d="M98.9447 190.911C98.9957 190.687 99.2289 190.548 99.464 190.601C99.699 190.654 99.8502 190.88 99.7992 191.105C99.7482 191.329 99.515 191.468 99.2799 191.415C99.0431 191.362 98.8937 191.136 98.9447 190.911Z" fill="#F99746"/>
<path d="M103.305 191.902C103.356 191.677 103.589 191.538 103.824 191.591C104.059 191.644 104.21 191.871 104.159 192.095C104.108 192.32 103.875 192.458 103.64 192.405C103.405 192.353 103.254 192.128 103.305 191.902Z" fill="#F99746"/>
<path d="M94.0379 189.367C94.0889 189.142 94.3221 189.003 94.5571 189.056C94.794 189.109 94.9434 189.335 94.8924 189.56C94.8414 189.784 94.6082 189.923 94.3731 189.87C94.1381 189.817 93.9868 189.593 94.0379 189.367Z" fill="#F99746"/>
<path d="M105.191 190.001C105.242 189.777 105.475 189.638 105.71 189.691C105.947 189.744 106.096 189.97 106.045 190.195C105.994 190.419 105.761 190.558 105.526 190.505C105.291 190.452 105.14 190.226 105.191 190.001Z" fill="#F99746"/>
<path d="M99.0011 216.372L88.8395 214.061L91.1644 211.953C91.1644 211.953 94.2419 213.423 97.8058 213.463L99.0011 216.372Z" fill="#E07E34"/>
<path d="M72.2061 198.304V192.733C72.2061 192.733 75.9121 189.694 79.9571 190.369C84.0002 191.045 89.6449 189.948 91.4141 192.733C93.1833 195.519 93.6042 198.05 93.6042 198.05L92.4253 198.556L72.2061 198.304Z" fill="#2A4E96"/>
<path d="M107.45 192.789C107.45 192.789 112.111 190.087 115.257 190.989C118.402 191.889 117.681 192.641 117.681 192.641C117.681 192.641 107.506 192.621 107.45 192.789Z" fill="#ED823A"/>
<path d="M89.3242 220.32H115.531C116.456 220.32 117.231 219.612 117.313 218.687L119.463 194.594C119.556 193.546 118.732 192.643 117.681 192.643H87.1741C86.1228 192.643 85.2992 193.546 85.3922 194.594L87.5422 218.687C87.6242 219.612 88.3985 220.32 89.3242 220.32Z" fill="#F2CCAA"/>
<path d="M73.813 220.32H100.02C100.945 220.32 101.72 219.612 101.802 218.687L103.952 194.594C104.045 193.546 103.221 192.643 102.17 192.643H71.663C70.6117 192.643 69.7881 193.546 69.8811 194.594L72.0311 218.687C72.1131 219.612 72.8874 220.32 73.813 220.32Z" fill="#F9DDBF"/>
<path d="M82.3056 197.396H90.4083C91.0132 197.396 91.5088 196.9 91.5088 196.294C91.5088 195.688 91.0132 195.191 90.4083 195.191H82.3056C81.7007 195.191 81.2051 195.688 81.2051 196.294C81.2051 196.9 81.7007 197.396 82.3056 197.396Z" fill="#2A4E96"/>
<path d="M76.3932 151.935C76.3932 151.935 71.3898 146.087 76.0852 142.372C76.0852 142.372 79.5143 140.291 82.3112 140.461C82.3112 140.461 78.3482 147.118 79.6309 147.781C80.9137 148.443 83.5119 140.045 83.5119 140.045C83.5119 140.045 91.3176 139.287 93.8284 140.496C93.8284 140.496 87.156 145.966 88.5608 146.291C89.9656 146.616 97.1736 141.248 97.1736 141.248C97.1736 141.248 104.438 142.485 104.05 146.927C103.662 151.366 101.16 152.737 100.06 152.618C98.9592 152.499 92.5238 150.039 92.3835 150.942C92.2432 151.846 96.1168 154.797 98.8299 154.934C98.8299 154.934 93.7081 160.593 90.3045 158.959C86.9009 157.326 86.6094 154.737 84.4885 153.766C82.3677 152.795 80.5547 152.799 81.4311 153.788C82.3075 154.777 86.1466 155.741 87.3601 157.891C88.5736 160.042 89.6613 161.491 86.1411 160.962C82.6191 160.43 76.896 157.849 76.6446 154.892C76.3932 151.935 76.3932 151.935 76.3932 151.935Z" fill="#82B378"/>
<path d="M100.481 147.044C100.481 147.044 80.7496 146.283 76.3931 151.936C76.3931 151.936 75.4292 154.827 72.4647 157.459L72.002 158.721C72.002 158.721 75.4201 155.11 76.6445 154.891C76.6445 154.891 74.7314 147.887 100.481 147.044Z" fill="#82B378"/>
<path d="M72.4648 157.461C72.4648 157.461 68.2304 160.599 67.9352 166.204L68.7041 166.274C68.7041 166.274 70.056 160.476 72.5012 158.209C74.9464 155.942 72.4648 157.461 72.4648 157.461Z" fill="#82B378"/>
<path d="M58.8978 144.58C58.8978 144.58 66.8584 140.114 63.1432 134.054C63.1432 134.054 60.1714 130.332 56.9865 129.375C56.9865 129.375 58.6846 138.412 56.9865 138.626C55.2883 138.838 55.8186 128.419 55.8186 128.419C55.8186 128.419 47.4335 124.377 44.1429 124.697C44.1429 124.697 49.343 133.522 47.6448 133.309C45.9467 133.097 40.1088 124.164 40.1088 124.164C40.1088 124.164 31.5124 122.568 30.1313 127.672C28.752 132.776 30.9804 135.328 32.254 135.647C33.5276 135.967 41.6995 135.861 41.4881 136.923C41.2768 137.987 35.756 139.688 32.6785 138.73C32.6785 138.73 36.0748 147.13 40.5334 146.705C44.9919 146.28 46.3712 143.514 49.1298 143.303C51.8884 143.091 53.9054 143.834 52.5261 144.579C51.1468 145.323 46.4769 144.823 44.2467 146.721C42.0184 148.62 40.2127 149.79 44.3524 150.641C48.4921 151.491 55.9206 150.96 57.4074 147.769C58.8978 144.58 58.8978 144.58 58.8978 144.58Z" fill="#A8D29F"/>
<path d="M34.0614 129.27C34.0614 129.27 56.3505 136.5 58.8978 144.581C58.8978 144.581 58.7921 148.197 61.0205 152.342V153.937C61.0205 153.937 58.6864 148.514 57.411 147.769C57.411 147.771 62.3998 140.753 34.0614 129.27Z" fill="#82B378"/>
<path d="M61.0204 152.342C61.0204 152.342 64.4568 157.572 62.4981 163.937L61.6144 163.7C61.6144 163.7 62.4726 156.688 60.6742 153.162C58.8759 149.635 61.0204 152.342 61.0204 152.342Z" fill="#82B378"/>
<path d="M71.561 138.421C71.561 138.421 61.0678 132.535 65.9655 124.545C65.9655 124.545 69.8829 119.639 74.0809 118.377C74.0809 118.377 71.8416 130.291 74.0809 130.571C76.3202 130.852 75.6205 117.116 75.6205 117.116C75.6205 117.116 86.6731 111.79 91.0096 112.211C91.0096 112.211 84.155 123.844 86.3925 123.565C88.6318 123.284 96.3263 111.51 96.3263 111.51C96.3263 111.51 107.659 109.408 109.478 116.136C111.296 122.864 108.359 126.228 106.679 126.648C105.001 127.068 94.2273 126.929 94.5079 128.329C94.7885 129.731 102.062 131.972 106.12 130.711C106.12 130.711 101.643 141.784 95.7669 141.223C89.8908 140.663 88.0724 137.018 84.4338 136.738C80.797 136.457 78.1386 137.439 79.957 138.42C81.7754 139.402 87.9321 138.741 90.8693 141.243C93.8064 143.746 96.186 145.287 90.729 146.409C85.2719 147.53 75.4784 146.829 73.5197 142.625C71.561 138.421 71.561 138.421 71.561 138.421Z" fill="#A8D29F"/>
<path d="M104.3 118.238C104.3 118.238 74.919 127.768 71.561 138.421C71.561 138.421 71.7013 143.187 68.7623 148.652V150.755C68.7623 150.755 71.8398 143.607 73.5197 142.625C73.5197 142.627 66.9439 133.376 104.3 118.238Z" fill="#82B378"/>
<path d="M68.7624 148.653C68.7624 148.653 64.2309 155.546 66.8146 163.937L67.9807 163.623C67.9807 163.623 66.8492 154.381 69.2197 149.734C71.5902 145.087 68.7624 148.653 68.7624 148.653Z" fill="#82B378"/>
<path d="M71.2075 182.131C82.5589 182.131 91.7621 172.913 91.7621 161.539H50.653C50.653 172.913 59.8561 182.131 71.2075 182.131Z" fill="#AEC3FF"/>
<path d="M92.0464 183.18H50.3706C50.3706 181.776 51.5057 180.639 52.9069 180.639H89.5119C90.9112 180.64 92.0464 181.778 92.0464 183.18Z" fill="#8C9DF4"/>
<path d="M92.2286 161.541H49.9771V162.173H92.2286V161.541Z" fill="#8C9DF4"/>
<path d="M151.899 190.328C151.899 190.328 151.914 191.06 151.943 192.378C152.125 200.871 152.85 233.708 153.537 252.016C153.566 252.682 153.59 253.326 153.613 253.952C153.626 254.283 153.641 254.617 153.654 254.945C154.065 263.797 155.264 272.463 156.476 279.394C158.019 288.233 159.588 294.253 159.588 294.253C165.473 295.446 164.799 285.224 164.799 285.224C164.799 285.224 169.857 276.614 170.46 268.311C170.659 265.616 172.647 259.295 173.862 248.113C174.804 239.467 175.895 229.628 176.896 220.68C176.948 220.204 176.999 219.727 177.054 219.256C178.668 204.79 180.006 193.008 180.006 193.008L169.598 192.015L151.899 190.328Z" fill="#2B478B"/>
<path d="M156.476 279.393L173.862 248.114C174.804 239.467 175.895 229.629 176.896 220.681C176.948 220.204 176.999 219.728 177.054 219.257C178.668 204.791 180.006 193.009 180.006 193.009L169.598 192.016L151.943 192.377L156.476 279.393Z" fill="#233862"/>
<path d="M184.568 116.037C184.568 116.037 183.338 111.484 182.653 109.566C181.968 107.646 175.338 103.721 173.722 104.269C172.105 104.816 174.367 109.737 175.172 111.234C175.977 112.731 175.655 114.445 176.979 115.4C178.302 116.354 180.971 118.426 180.971 118.426L184.568 116.037Z" fill="#E8945B"/>
<path d="M175.389 246.433C175.389 246.433 165.839 291.162 167.228 292.481C168.616 293.803 177.699 294.215 180.235 297.868C181.079 299.084 180.884 300.995 180.884 300.995H158.278C158.278 300.995 156.254 299.726 156.068 294.148C155.882 288.57 154.459 257.548 155.202 247.012C155.2 247.014 159.51 243.418 175.389 246.433Z" fill="#E28B2D"/>
<path d="M181.584 117.783L184.082 141.728L197.811 148.517C197.811 148.517 199.489 138.558 194.081 128.077C190.074 120.31 184.565 114.438 184.565 114.438C184.565 114.438 182.936 115.438 181.584 117.783Z" fill="#ED823A"/>
<path d="M184.499 118.733L181.6 120.75C181.125 121.082 180.469 120.963 180.139 120.485L175.797 114.222C175.465 113.744 175.584 113.089 176.061 112.758L178.96 110.741C179.437 110.409 180.091 110.528 180.421 111.006L184.763 117.269C185.093 117.747 184.975 118.402 184.499 118.733Z" fill="#233862"/>
<path d="M184.127 118.596L181.598 120.355C181.183 120.644 180.613 120.542 180.323 120.125L176.535 114.662C176.247 114.246 176.349 113.673 176.764 113.384L179.293 111.625C179.709 111.336 180.279 111.439 180.569 111.855L184.357 117.318C184.647 117.734 184.543 118.305 184.127 118.596Z" fill="#6980E2"/>
<path d="M156.824 121.86L164.89 129.607C166.79 128.017 168.295 126.197 169.494 124.418C169.682 124.14 169.862 123.863 170.036 123.589C171.112 121.862 171.903 120.238 172.473 118.984C172.566 118.781 172.654 118.589 172.734 118.407C173.18 117.432 168.255 114.311 165.477 112.332C164.613 111.691 163.946 111.189 163.724 110.883C163.724 110.883 163.915 112.19 163.733 113.081C163.305 115.169 162.388 116.448 161.302 117.644C158.482 120.738 156.824 121.86 156.824 121.86Z" fill="#FFB27D"/>
<path d="M162.926 113.266C162.926 113.266 164.524 121.779 169.496 124.417C169.684 124.139 169.864 123.862 170.037 123.588C171.114 121.861 171.905 120.237 172.475 118.983C171.87 117.723 167.727 115.073 165.262 113.322C163.87 113.293 162.926 113.266 162.926 113.266Z" fill="#ED975D"/>
<path d="M172.811 122.718C172.811 122.718 160.738 118.68 163.363 111.187C165.989 103.694 166.198 98.1267 174.019 100.388C181.837 102.65 182.325 106.032 182.056 108.747C181.786 111.463 176.017 123.576 172.811 122.718Z" fill="#FFB27D"/>
<path d="M162.436 113.451C162.436 113.451 160.135 112.61 160.178 107.928C160.202 105.319 158.329 104.082 160.3 100.495C162.274 96.9081 162.148 94.0186 167.587 94.0204C173.026 94.0222 173.572 91.4978 176.344 92.3776C179.115 93.2574 181.576 97.3352 183.947 98.1019C186.319 98.8685 188.118 111.317 182.69 110.974C182.69 110.974 180.649 109.958 179.738 108.313C178.827 106.668 174.197 102.921 172.727 104.142C171.256 105.363 165.355 113.51 162.436 113.451Z" fill="#233862"/>
<path d="M154.843 141.285C154.843 141.285 178.656 151.959 193.126 154.411C193.126 154.411 197.66 154.102 197.813 148.515C197.909 144.972 174.051 127.567 165.333 128.086C156.614 128.604 151.828 137.543 154.843 141.285Z" fill="#ED823A"/>
<path d="M143.344 300.196H163.489C163.265 299.68 162.441 298.159 160.34 297.623C160.138 297.568 159.923 297.526 159.695 297.493C157.523 297.186 154.184 296.245 152.052 294.293C151.159 293.477 150.478 292.484 150.184 291.287C149.186 287.233 142.659 292.692 142.659 292.692C142.659 292.692 142.59 293.34 142.541 294.26C142.437 296.252 142.411 299.516 143.344 300.196Z" fill="#233862"/>
<path d="M178.082 193.086C178.082 193.086 167.758 226.841 159.83 250.09C151.904 273.341 148.929 286.803 148.929 286.803C148.929 286.803 145.126 295.8 141.923 293.968C141.923 293.968 140.092 249.891 144.888 238.185C148.06 230.442 150.487 213.965 149.661 208.029C148.836 202.094 148.067 190.189 148.067 190.189L178.082 193.086Z" fill="#2B478B"/>
<path d="M146.79 188.939C147.336 191.885 148.641 194.234 150.656 195.666C152.956 197.296 156.58 197.885 160.57 197.823C165.229 197.746 170.389 196.785 174.512 195.547C176.732 194.884 178.647 194.143 180.029 193.42C186.192 190.202 185.317 185.918 185.169 169.883C185.02 153.518 174.966 132.364 173.155 128.821C169.932 122.517 156.257 124.59 156.257 124.59C153.26 127.345 150.634 131.344 148.845 137.738C148.12 140.326 147.697 143.946 147.455 148.011C146.715 160.433 147.672 177 146.948 180.867C146.396 183.835 146.351 186.579 146.79 188.939Z" fill="#F99746"/>
<path d="M158.043 118.342C158.043 118.342 155.805 123.648 156.257 124.592C156.257 124.592 168.423 125.789 173.423 129.358C173.423 129.358 171.898 124.168 169.897 122.889C167.898 121.609 158.043 118.342 158.043 118.342Z" fill="#ED823A"/>
<path d="M146.79 188.939C172.235 179.237 157.706 143.363 157.706 143.363C154.145 143.615 150.658 145.349 147.455 148.012C146.715 160.434 147.672 177.001 146.948 180.869C146.396 183.835 146.351 186.578 146.79 188.939Z" fill="#ED823A"/>
<path d="M155.39 174.279C155.39 174.279 156.784 176.698 158.125 176.128C159.466 175.559 162.173 174.957 164.187 176.254C166.2 177.552 169.234 181.057 167.337 181.913C165.44 182.767 161.836 180.498 160.984 180.119C160.131 179.739 158.644 180.498 157.001 179.675C155.357 178.852 153.65 177.205 153.65 177.205L155.39 174.279Z" fill="#FFB27D"/>
<path d="M162.479 246.641C162.479 246.641 151.008 290.8 152.396 292.122C153.785 293.443 163.899 294.159 165.511 298.242C166.1 299.73 165.952 300.998 165.952 300.998H143.344C143.344 300.998 141.32 299.73 141.134 294.151C140.948 288.573 139.525 257.551 140.269 247.015C140.269 247.014 153.757 245.526 162.479 246.641Z" fill="#FFB93E"/>
<path d="M157.469 175.766C157.469 175.766 160.532 174.746 161.056 174.281C161.583 173.815 161.583 174.806 160.315 175.766C159.047 176.727 157.283 176.325 157.283 176.325L157.469 175.766Z" fill="#FFB27D"/>
<path d="M155.454 125.371C155.454 125.371 139.166 139.419 129.267 150.422C127.695 152.171 127.343 154.756 128.546 156.778C128.557 156.797 128.567 156.817 128.58 156.835C130.02 159.934 132.787 164.406 137.913 168.63C147.284 176.355 152.453 177.888 152.453 177.888C152.453 177.888 158.668 178.96 157.58 174.933L145.726 158.693C144.727 157.326 145.247 155.389 146.795 154.712C154.475 151.353 162.394 146.717 164.431 142.745C168.419 134.96 160.202 124.676 155.454 125.371Z" fill="#F99746"/>
<path d="M251.437 109.457C251.437 109.457 260.358 106.742 265.618 111.852C270.879 116.961 269.842 122.824 277.347 122.367C284.85 121.911 286.565 124.675 285.595 128.997C284.626 133.319 293.911 132.104 296.719 137.379C299.529 142.654 299.929 152.367 285.442 151.867C270.957 151.367 264.534 143.558 258.332 146.801C252.13 150.045 241.904 144.826 244.588 140.281C247.272 135.736 242.065 136.961 241.145 127.677C240.223 118.394 245.173 110.156 251.437 109.457Z" fill="#163560"/>
<path d="M270.093 138.981C262.262 137.324 256.884 138.467 251.758 138.6C251.758 138.6 245.082 139.29 237.812 135.353C233.432 132.982 241.154 121.139 241.154 121.139L237.792 118.99C237.792 118.99 223.518 132.647 223.832 137.857C224.039 141.307 234.613 146.48 241.504 149.992C243.125 150.819 243.927 152.642 243.548 154.428C243.543 154.449 243.541 154.47 243.537 154.488C242.366 162.671 248.817 174.724 248.817 174.724L260.839 184.179L272.309 176.003H272.311L273.244 175.665C273.244 175.665 275.135 174.724 275.698 170.246C275.767 169.691 276.166 164.962 276.564 160.196C276.992 155.05 277.414 149.866 277.414 149.866L270.093 138.981Z" fill="#8C9DF4"/>
<path d="M249.699 177.387C249.699 177.387 245.175 190.639 245.979 200.34C246.465 206.204 254.324 247.902 254.764 250.607C255.18 253.157 260.828 286.178 260.828 286.178C260.828 286.178 259.857 291.675 261.932 291.088C264.811 290.274 265.722 289.299 265.722 289.299C265.722 289.299 270.028 233.989 267.364 214.231C264.7 194.474 264.669 177.389 264.669 177.389H249.699V177.387Z" fill="#ED7D2B"/>
<path d="M273.134 176.873C273.134 176.873 281.572 188.214 282.36 195.882C283.147 203.549 283.593 230.48 285.269 237.955C286.946 245.43 293.102 259.813 293.102 283.125C293.102 283.125 292.463 284.461 290.486 285.173C289.854 285.401 290.143 284.262 289.322 284.452C287.693 284.826 274.439 251.491 273.696 249.991C269.532 241.594 261.369 212.482 252.236 197.032C250.044 193.323 253.58 178.572 253.58 178.572L273.134 176.873Z" fill="#F99746"/>
<path d="M260.522 141.119C262.027 140.437 262.683 139.316 262.357 137.686C261.878 135.295 260.996 133.061 260.892 129.572L260.389 129.689L251.946 131.66C251.946 131.66 252.319 136.899 252.321 136.921C252.547 140.313 253.367 144.363 260.522 141.119Z" fill="#FFB27D"/>
<path d="M251.946 131.661C251.946 131.661 252.228 134.333 252.319 136.858C257.071 136.564 259.44 132.134 260.389 129.689L251.946 131.661Z" fill="#E8945B"/>
<path d="M250.437 134.104C250.437 134.104 261.696 133.912 261.468 126.89C261.24 119.868 262.541 115.115 255.342 114.94C248.145 114.764 246.835 117.49 246.341 119.852C245.847 122.214 247.502 133.973 250.437 134.104Z" fill="#FFB27D"/>
<path d="M249.725 115.272C249.725 115.272 253.507 124.439 258.881 125.632C264.254 126.826 266.519 125.318 266.519 125.318C266.519 125.318 262.322 122.203 261.286 116.553C261.286 116.555 252.195 110.765 249.725 115.272Z" fill="#163560"/>
<path d="M251.168 114.881C251.168 114.881 248.626 115.932 247.629 117.847C246.655 119.722 245.853 122.188 246.157 125.169C246.157 125.169 243.331 118.946 246.15 115.279C249.142 111.391 251.168 114.881 251.168 114.881Z" fill="#163560"/>
<path d="M272.307 176.003H272.309L273.242 175.665C273.242 175.665 275.133 174.723 275.696 170.246C275.765 169.691 276.281 163.567 276.678 158.799C276.678 158.799 272.324 155.968 271.026 158.494C269.729 161.019 272.724 165.781 271.624 168.594C270.525 171.409 268.621 175.183 272.307 176.003Z" fill="#6980E2"/>
<path d="M248.815 174.725C248.815 174.725 251.037 176.484 255.448 176.574C260.717 176.68 273.774 175.228 273.774 175.228C273.774 175.228 274.353 176.853 274.33 178.567C274.33 178.567 258.383 182.597 249.143 179.155C249.143 179.155 247.952 176.908 248.815 174.725Z" fill="#233862"/>
<path d="M254.183 181.122C252.857 181.122 251.778 179.899 251.778 178.395C251.778 176.891 252.857 175.668 254.183 175.668C255.51 175.668 256.588 176.891 256.588 178.395C256.587 179.899 255.508 181.122 254.183 181.122ZM254.183 176.467C253.298 176.467 252.576 177.333 252.576 178.395C252.576 179.457 253.298 180.323 254.183 180.323C255.069 180.323 255.79 179.457 255.79 178.395C255.79 177.333 255.069 176.467 254.183 176.467Z" fill="white"/>
<path d="M270.094 138.982C270.094 138.982 277.664 139.355 281.8 145.116C285.936 150.876 295.216 164.665 295.839 168.916C296.462 173.168 280.619 185.102 280.619 185.102C280.619 185.102 279.417 184.658 278.907 184.18C278.149 183.468 277.879 183.048 277.879 183.048C277.879 183.048 287.059 168 286.317 166.846C285.575 165.693 271.345 154.598 271.345 154.598L270.094 138.982Z" fill="#8C9DF4"/>
<path d="M237.79 118.991C237.79 118.991 238.554 114.931 239.915 113.94C241.276 112.949 246.163 110.403 246.33 111.379C246.498 112.358 243.317 115.433 243.255 116.55C243.165 118.162 244.368 118.485 241.152 121.141C237.936 123.795 237.79 118.991 237.79 118.991Z" fill="#FFB27D"/>
<path d="M238.359 116.787C238.359 116.787 238.554 114.517 238.182 113.314C237.81 112.111 238.785 112.724 239.002 113.073C239.219 113.42 239.76 115.026 239.76 115.026L238.359 116.787Z" fill="#FFB27D"/>
<path d="M277.879 183.048C277.879 183.048 274.497 181.809 273.355 182.552C272.211 183.295 270.108 186.146 270.85 187.077C271.593 188.006 274.561 186.58 275.366 186.21C276.172 185.837 277.015 186.909 278.182 186.953C279.348 186.996 280.621 185.102 280.621 185.102L277.879 183.048Z" fill="#FFB27D"/>
<path d="M277.879 183.047C277.879 183.047 275.257 181.141 274.978 181.373C274.7 181.605 275.813 182.906 275.953 183.047C276.093 183.187 277.879 183.047 277.879 183.047Z" fill="#FFB27D"/>
<path d="M270.802 244.456C270.802 244.456 282.097 241.95 288.409 238.975C288.409 238.975 294.784 274.759 297.206 286.99C297.583 288.894 298.537 291.776 298.904 293.492C299.587 296.69 298.814 299.58 298.814 299.58H279.264C279.264 299.58 279.388 296.568 282.82 295.451C286.253 294.334 289.843 291.948 289.75 290.46C289.659 288.973 270.802 244.456 270.802 244.456Z" fill="#FFB93E"/>
<path d="M252.288 245.401L268.993 245.277C268.993 245.277 267.592 286.061 268.231 290.4C268.871 294.739 268.993 299.58 268.993 299.58H247.462C247.462 299.58 247.183 297.046 250.618 294.994C254.052 292.941 257.949 294.708 259.249 291.826C260.548 288.943 252.288 245.401 252.288 245.401Z" fill="#FFB93E"/>
<path d="M125.417 255.721C125.417 259.757 124.049 263.475 121.748 266.43C119.355 269.508 115.955 271.757 112.043 272.684C110.751 272.991 109.401 273.153 108.018 273.153C107.871 273.153 107.723 273.153 107.576 273.146C103.423 273.043 99.6278 271.479 96.6889 268.947C94.8449 267.365 93.3326 265.397 92.2831 263.17C91.2136 260.91 90.616 258.384 90.616 255.719C90.616 254.312 90.7818 252.937 91.0988 251.623C91.824 248.606 93.3363 245.891 95.3989 243.714C98.0627 240.905 101.645 238.984 105.67 238.444C106.437 238.338 107.218 238.285 108.017 238.285C112.563 238.285 116.708 240.037 119.807 242.9C122.649 245.523 124.617 249.086 125.219 253.098C125.35 253.958 125.417 254.832 125.417 255.721Z" fill="#F5FBFF"/>
<path d="M112.84 251.018H106.184L102.857 256.791L106.184 262.565H112.84L116.167 256.791L112.84 251.018Z" fill="#35488B"/>
<path d="M121.748 266.432C119.355 269.51 115.955 271.758 112.043 272.686L111.737 272.156L115.066 266.383H121.717L121.748 266.432Z" fill="#35488B"/>
<path d="M125.22 253.101H120.583L117.258 247.327L119.809 242.902C122.651 245.525 124.619 249.088 125.22 253.101Z" fill="#35488B"/>
<path d="M106.96 240.68L103.635 246.453H96.9805L95.4008 243.715C98.0646 240.906 101.647 238.986 105.672 238.445L106.96 240.68Z" fill="#35488B"/>
<path d="M98.3979 257.399L95.0691 263.172H92.2831C91.2136 260.912 90.616 258.386 90.616 255.721C90.616 254.314 90.7818 252.939 91.0988 251.625H95.0672L98.3979 257.399Z" fill="#35488B"/>
<path d="M107.716 272.906L107.576 273.149C103.423 273.047 99.6279 271.483 96.689 268.951L97.7366 267.133H104.391L107.716 272.906Z" fill="#35488B"/>
<g opacity="0.8">
<path opacity="0.8" d="M466.846 271.672C461.34 289.546 452.031 299.87 451.848 300.286C424.115 300.286 20.11 300.385 19.8786 299.667L19.8385 299.576C19.8385 299.576 19.8003 299.489 19.8003 299.445C19.7365 299.295 9.06657 281.951 3.41821 256.697C11.8689 253.995 35.3168 248.912 66.1514 262.199C105.129 278.995 175.62 257.195 217.675 261.191C259.731 265.187 274.273 277.391 312.575 272.428C350.872 267.467 381.528 267.35 406.662 272.428C428.011 276.743 447.563 271.406 466.846 271.672Z" fill="#8C9DF4"/>
</g>
<path d="M461.903 300.997H7.95867C7.65257 300.997 7.40112 300.745 7.40112 300.438V300.139C7.40112 299.832 7.65257 299.58 7.95867 299.58H461.903C462.209 299.58 462.46 299.832 462.46 300.139V300.438C462.46 300.745 462.209 300.997 461.903 300.997Z" fill="#233862"/>
</g>
<defs>
<clipPath id="clip0_272_2">
<rect width="471" height="301" fill="white"/>
</clipPath>
</defs>
</svg>
