<?xml version="1.0" encoding="UTF-8"?> <svg xmlns="http://www.w3.org/2000/svg" width="2537" height="1159" viewBox="0 0 2537 1159" fill="none"> <path d="M2436.78 1155.33C2291.54 1155.33 64.2398 1155.5 64.2398 1155.33C-17.3502 1072.61 -41.3802 875.14 135.32 684.43C200.04 614.59 28.3298 480.64 139.8 265.75C182.16 184.09 351.35 43.73 797.85 152.65C987.7 198.96 1148.8 125.01 1184.47 98.31C1204.56 83.28 1226.57 70.15 1250.13 58.8C1495.86 -60.1 1920.42 15.62 2105.74 158.54C2132 178.8 2251.41 283.62 2157.29 427.67C2097.86 518.64 2346.84 605.51 2435.3 709.37C2660.26 973.46 2438.82 1151.89 2436.78 1155.33Z" fill="#DCEAFF"></path> <path d="M1731.1 546.164L1738.02 547.9L1747.22 511.228L1740.31 509.492L1731.1 546.164Z" fill="#ADC8FE"></path> <path d="M1741.38 497.53C1741.38 497.56 1741.38 497.53 1741.38 497.56C1741.04 500.39 1741.85 503.44 1744.53 504.44C1748.1 505.78 1750.52 503.45 1751.43 499.86C1751.43 499.84 1751.66 498.94 1751.66 498.93C1751.96 497.67 1754.88 498.7 1755.3 499.92C1756.06 502.12 1756.08 504.6 1755.16 507C1753.47 511.39 1748.89 514.1 1744.22 513.46C1738.04 512.61 1734.12 506.64 1735.6 500.76C1736.01 499.12 1736.8 497.66 1737.85 496.47C1738.85 495.32 1741.59 496.01 1741.38 497.53Z" fill="#ADC8FE"></path> <path d="M1737.87 560.49C1737.87 560.46 1737.87 560.49 1737.87 560.46C1738.21 557.63 1737.4 554.58 1734.72 553.58C1731.14 552.24 1728.72 554.57 1727.82 558.16C1727.81 558.18 1727.59 559.08 1727.58 559.1C1727.28 560.36 1724.36 559.33 1723.94 558.1C1723.18 555.9 1723.16 553.42 1724.08 551.02C1725.77 546.63 1730.35 543.92 1735.02 544.56C1741.2 545.41 1745.12 551.38 1743.64 557.26C1743.23 558.9 1742.44 560.36 1741.39 561.55C1740.39 562.71 1737.66 562.02 1737.87 560.49Z" fill="#ADC8FE"></path> <path d="M1722.18 395.04C1722.18 395.04 1717.15 388.74 1713.89 383.22C1710.62 377.7 1690.6 366.08 1689.17 375.86C1687.86 384.84 1694.34 382.17 1696.7 389.26C1699.06 396.35 1701.95 399.4 1716.66 405.89L1722.18 395.04Z" fill="#FFB27D"></path> <path d="M1717.38 398.56C1721.77 392 1723.08 391.66 1723.08 391.66C1723.08 391.66 1795.7 419.46 1802.64 421.78C1809.57 424.1 1913.19 429.95 1913.19 429.95L1944.46 495.9C1944.46 495.9 1806.38 465.68 1788.94 459.47C1760.12 449.21 1713.89 409.01 1713.89 409.01C1713.89 409.01 1713.93 403.71 1717.38 398.56Z" fill="#E58638"></path> <path d="M1897.8 1015.19C1897.8 1015.19 1896.22 1039.65 1891.48 1045.4H1818.63C1819.09 1042.96 1821.15 1036.94 1830.26 1035.41C1841.77 1033.49 1861.04 1025.73 1868 1011.13C1875.35 995.78 1897.8 1015.19 1897.8 1015.19Z" fill="#163560"></path> <path d="M2027.29 1005.13C2027.29 1005.13 2031.88 1042.23 2025.64 1042.78C2024.81 1042.85 1995.63 1042.8 1987.7 1043.94C1974.75 1045.8 1953.14 1044.18 1953.14 1044.18C1950.43 1044.29 1948.66 1041.48 1950.04 1039.24C1951.55 1036.79 1954.44 1034.16 1959.94 1033.15C1971.41 1031.03 1990.53 1022.95 1997.23 1008.23C2004.27 992.75 2027.29 1005.13 2027.29 1005.13Z" fill="#163560"></path> <path d="M1863.55 689.65C1863.55 689.65 1881.86 751.14 1934.36 857.94C1951.55 892.92 1963.05 921.23 1970.74 943.5C1971.74 946.37 1972.67 949.14 1973.53 951.8C1974.93 956.09 1976.18 960.12 1977.29 963.89C1978.13 966.78 1978.9 969.51 1979.6 972.1C1986.48 997.8 1986.34 1009.49 1986.34 1009.49C1986.34 1009.49 1998.26 1013.8 2012.5 1012.44C2019.75 1011.74 2035.67 1005.21 2035.67 1005.21C2035.67 1005.21 2033.95 987.99 2030.49 963.65C2030.1 960.97 2029.69 958.22 2029.27 955.38C2028.71 951.58 2028.1 947.65 2027.46 943.62C2027.02 940.91 2026.57 938.16 2026.1 935.39C2020 899.12 2010.95 857.02 1998.88 830.77C1974.08 776.88 1969.02 629.39 1969.02 629.39L1863.55 689.65Z" fill="#233862"></path> <path d="M1834.26 658.28C1834.84 692.84 1837.58 765.33 1849.86 848.89C1855.79 889.27 1858.98 921.63 1860.62 946.69C1860.81 949.64 1860.98 952.48 1861.12 955.22C1861.37 959.63 1861.56 963.79 1861.71 967.68C1861.82 970.63 1861.91 973.43 1861.97 976.09C1862.66 1003.06 1861.21 1015.45 1861.21 1015.45C1861.21 1015.45 1862.25 1016.06 1864.42 1016.84H1864.44C1868.14 1018.17 1875.08 1019.97 1885.53 1019.97C1890.23 1019.97 1894.27 1019.37 1897.51 1018.61C1903.16 1017.29 1906.39 1015.48 1906.39 1015.48C1906.39 1015.48 1909.15 999.91 1912.29 977.31C1912.68 974.6 1913.06 971.8 1913.44 968.9C1913.96 965.07 1914.45 961.09 1914.97 956.98C1915.3 954.23 1915.64 951.44 1915.97 948.6C1920.12 912.71 1923.33 870.07 1919.87 841.27C1919.32 836.68 1919.06 831.57 1919.04 826.04V826.02C1919.01 800.09 1924.53 765.17 1931.16 732.62C1931.16 732.62 1931.18 732.53 1931.22 732.35C1938.05 698.85 1946.04 667.91 1950.36 651.89C1952.31 644.63 1953.51 640.44 1953.51 640.44L1949.88 640.32H1949.86L1921.16 639.44L1842.86 637L1838.04 636.85L1834.14 636.73C1834.15 636.73 1834.02 644.48 1834.26 658.28Z" fill="#2A4E96"></path> <path d="M1915.29 413.88L1895.89 427.67L1867.86 422.01C1868.25 419.56 1870.1 409.39 1871.78 400.18C1871.88 399.64 1871.98 399.09 1872.08 398.56C1873.52 390.73 1874.77 383.99 1874.77 383.99L1900.95 371.47L1910.71 366.8C1910.68 366.96 1909.95 375.5 1909.85 376.74C1908.03 398.86 1915.29 413.88 1915.29 413.88Z" fill="#FFB27D"></path> <path d="M1869.82 406.92C1870.44 406.67 1907.96 396.05 1912.03 397.34C1916.11 398.63 1918.52 406.2 1918.52 406.2L1860.59 422.03C1860.6 422.04 1861.98 410.09 1869.82 406.92Z" fill="#E58638"></path> <path d="M1970.85 648.49C1964.5 676.33 1831.91 588.98 1833.67 571.99C1833.86 570.12 1834.06 568.24 1834.25 566.38C1836.7 542.73 1839.04 519.58 1839.21 504.48C1839.34 491.38 1841.22 477.98 1843.73 465.81C1846.03 454.57 1848.86 444.38 1851.33 436.43C1853.06 430.84 1856.3 425.91 1860.6 422.04C1863.65 419.29 1867.22 417.08 1871.18 415.58C1872.25 415.14 1873.35 414.79 1874.47 414.48C1890.44 410.03 1912.53 404.53 1918.53 406.21C1934.76 410.8 1946.81 438.2 1955.35 473.14C1971.31 538.52 1975 630.35 1970.85 648.49Z" fill="#F99746"></path> <path d="M1907.9 377.13C1902.15 387.69 1880.73 396.82 1871.79 400.17C1871.89 399.63 1871.99 399.08 1872.09 398.55C1873.53 390.72 1874.78 383.98 1874.78 383.98L1900.96 371.46C1906.74 371.38 1910.27 372.79 1907.9 377.13Z" fill="#FCA56B"></path> <path d="M1862.05 382.52C1862.05 382.52 1909.29 396.66 1918.01 368.3C1926.73 339.94 1938.71 322.66 1908.91 312.43C1879.12 302.2 1869.9 311.36 1864.59 320.15C1859.29 328.94 1849.99 378.11 1862.05 382.52Z" fill="#FFB27D"></path> <path d="M1866.45 317.42C1866.45 317.42 1869.46 350.42 1876.58 348.99C1883.69 347.56 1890.14 346.5 1889.1 356.45C1888.06 366.4 1878.19 377.89 1900.12 379.65C1922.04 381.41 1953.56 327.16 1947.53 316.89C1930.16 287.24 1841.34 281.26 1866.45 317.42Z" fill="#163560"></path> <path d="M1837.68 636.73C1850.81 641.28 1837.45 624.21 1837.68 620.65C1838.7 605 1832.3 585.21 1834.26 566.38L1914.46 520.38C1914.46 520.38 1933.49 636 1837.68 636.73Z" fill="#E58638"></path> <path d="M1970.85 648.49C1936.61 709.37 1931.16 732.62 1931.16 732.62C1901.36 729.36 1850.3 673.15 1834.11 658.15C1834.11 658.15 1831.91 588.98 1833.67 571.99L1858.42 571.31C1858.42 571.31 1903.16 582.19 1914.76 567.42C1926.36 552.66 1921.34 480.18 1921.34 480.18L1955.34 473.12C1971.31 538.52 1980.04 632.14 1970.85 648.49Z" fill="#2A4E96"></path> <path d="M1767.71 531.81C1767.71 531.81 1751.41 521.23 1748.32 520.31C1745.23 519.39 1735.09 518.39 1734.62 519.16C1734.15 519.92 1732.76 522.27 1734.53 523.07C1736.3 523.86 1738.51 523.58 1737.84 524.14C1737.18 524.69 1730.52 521.65 1728.98 524.91C1727.44 528.17 1726.09 539.34 1733.91 542.72C1741.73 546.11 1761.02 543.05 1762.41 543.44C1774.22 546.73 1767.71 531.81 1767.71 531.81Z" fill="#FFB27D"></path> <path d="M1767.56 528.95C1767.56 528.95 1847.1 541.93 1854.15 538.63C1865.4 533.37 1849.78 455.94 1849.78 455.94C1849.78 455.94 1849.11 438.39 1870.47 434.25C1889.04 430.65 1906.95 444 1906.95 444C1906.95 444 1923.24 457.99 1921.16 473.5C1916.55 507.89 1909.37 577.83 1885.4 588.55C1854.48 602.38 1765.02 550.21 1765.02 550.21C1765.02 550.21 1762.04 546.71 1762.46 540.21C1762.84 534.47 1767.56 528.95 1767.56 528.95Z" fill="#F99746"></path> <path d="M1927.93 478.81L1921.34 480.18C1921.34 480.18 1907.41 422.32 1860.6 422.04C1863.65 419.29 1867.22 417.08 1871.18 415.58C1888.33 419.98 1918.11 434.05 1927.93 478.81Z" fill="#2A4E96"></path> <g opacity="0.5"> <g opacity="0.5"> <path opacity="0.5" d="M1970.74 943.5C1971.74 946.37 1972.67 949.14 1973.53 951.8C1991.11 951.82 2007.8 948.66 2020.14 945.58C2022.79 944.92 2025.26 944.25 2027.46 943.62C2027.02 940.91 2026.57 938.16 2026.1 935.39C2013.61 939 1992.62 943.98 1970.74 943.5Z" fill="white"></path> </g> </g> <g opacity="0.5"> <g opacity="0.5"> <path opacity="0.5" d="M1977.29 963.89C1978.13 966.78 1978.9 969.51 1979.6 972.1C1995.59 971.67 2010.61 968.78 2021.95 965.95C2025.1 965.16 2027.96 964.36 2030.48 963.65C2030.09 960.97 2029.68 958.22 2029.26 955.38C2017.82 958.73 1998.23 963.64 1977.29 963.89Z" fill="white"></path> </g> </g> <path d="M1720.2 392.47C1720.2 392.47 1719.29 386.19 1717.36 381.64C1715.43 377.09 1712.98 371.31 1712.46 374.28C1711.93 377.26 1713.86 382.33 1712.46 384.79C1711.06 387.25 1720.2 392.47 1720.2 392.47Z" fill="#FFB27D"></path> <path d="M1860.62 946.69C1860.81 949.64 1860.98 952.48 1861.12 955.22C1877.34 958.14 1893.16 958.24 1905.17 957.66C1908.82 957.48 1912.11 957.24 1914.97 956.99C1915.3 954.24 1915.64 951.45 1915.97 948.61C1904.05 949.73 1882.44 950.97 1860.62 946.69Z" fill="white"></path> <path d="M1861.71 967.68C1861.82 970.63 1861.91 973.43 1861.97 976.09C1876.96 978.44 1891.44 978.51 1902.61 977.96C1906.21 977.78 1909.46 977.56 1912.28 977.32C1912.67 974.61 1913.05 971.81 1913.43 968.91C1902.19 969.95 1882.29 971.13 1861.71 967.68Z" fill="white"></path> <path d="M489.14 534.99V536.47C489.14 564.84 465.1 587.92 435.56 587.92H274.98C257.14 587.92 242.63 601.85 242.63 618.98V623.89C242.63 641.02 257.14 654.95 274.98 654.95H452.25C455.85 654.95 458.79 657.87 458.79 661.48C458.79 665.31 457.24 668.77 454.72 671.28C452.22 673.79 448.75 675.34 444.93 675.34H274.98C245.43 675.34 221.39 652.26 221.39 623.89V618.98C221.39 590.62 245.43 567.54 274.98 567.54H435.56C453.39 567.54 467.91 553.59 467.91 536.47V534.99C467.91 517.86 453.39 503.92 435.56 503.92H271.99C242.45 503.92 218.41 480.84 218.41 452.47V445.58C218.41 417.21 242.45 394.13 271.99 394.13H435.56C453.39 394.13 467.91 380.2 467.91 363.07C467.91 345.94 453.39 332 435.56 332H113.1C115.02 325.3 117.21 318.51 119.68 311.62H435.57C465.11 311.62 489.15 334.7 489.15 363.07C489.15 391.43 465.11 414.52 435.57 414.52H271.99C254.16 414.52 239.64 428.45 239.64 445.58V452.47C239.64 469.61 254.16 483.54 271.99 483.54H435.56C465.1 483.54 489.14 506.62 489.14 534.99Z" fill="#BDD1F9"></path> <path d="M1412.58 317.71H1138.06V323.88H1412.58V317.71Z" fill="#99B9FF"></path> <path d="M1134.89 319.89C1134.89 316.29 1137.8 313.38 1141.4 313.38C1145 313.38 1147.91 316.29 1147.91 319.89C1147.91 323.49 1144.99 326.4 1141.4 326.4C1137.81 326.4 1134.89 323.49 1134.89 319.89Z" fill="#99B9FF"></path> <path d="M1404.19 319.89C1404.19 316.29 1407.11 313.38 1410.7 313.38C1414.3 313.38 1417.21 316.29 1417.21 319.89C1417.21 323.49 1414.3 326.4 1410.7 326.4C1407.11 326.4 1404.19 323.49 1404.19 319.89Z" fill="#99B9FF"></path> <path d="M1385.91 317.88V530.14C1364.84 533.74 1309.83 530.65 1278.48 534.25C1247.12 537.85 1175.97 533.02 1175.97 533.02V318.86C1175.97 315.34 1178.81 312.5 1182.33 312.49C1213.57 312.44 1350.54 312.23 1380.22 312.19C1383.37 312.19 1385.91 314.73 1385.91 317.88Z" fill="#F99746"></path> <path d="M1385.91 447.47V530.13C1364.84 533.73 1309.83 530.64 1278.48 534.24C1247.12 537.84 1175.97 533.01 1175.97 533.01V453.46C1176.46 450.62 1176.74 448.97 1176.74 448.97C1176.74 448.97 1222.45 452.51 1263.06 449.94C1303.46 447.39 1352.01 453.99 1385.91 447.47Z" fill="#FFAF73"></path> <path d="M1214.47 496.05C1197.29 496.05 1177.21 495.22 1176.08 495.18L1176.29 490.05C1176.66 490.06 1213.37 491.57 1230 490.57L1233.92 490.33C1254.07 489.08 1295.99 486.48 1313.51 489.4C1331.51 492.4 1387.06 488.72 1387.62 488.68L1387.96 493.81C1385.65 493.97 1331.24 497.56 1312.66 494.47C1295.72 491.65 1252.63 494.32 1234.24 495.46L1230.31 495.7C1225.98 495.95 1220.4 496.05 1214.47 496.05Z" fill="white"></path> <path d="M1214.47 507.36C1197.29 507.36 1177.21 506.53 1176.08 506.49L1176.29 501.35C1176.66 501.36 1213.37 502.87 1230 501.87L1233.92 501.63C1254.07 500.38 1295.99 497.78 1313.51 500.7C1331.51 503.7 1387.06 500.02 1387.62 499.99L1387.96 505.12C1385.65 505.27 1331.25 508.87 1312.66 505.78C1295.72 502.95 1252.63 505.63 1234.24 506.77L1230.31 507.01C1225.98 507.26 1220.4 507.36 1214.47 507.36Z" fill="white"></path> <path d="M1806.91 305.76C1806.91 305.76 1741.35 358.64 1734.71 355.31C1728.07 352 1726.85 343.63 1726.85 343.63C1713.13 346.28 1701.76 363.97 1696.65 373.24C1694.79 376.63 1693.77 378.9 1693.77 378.9C1687.65 380.37 1684.15 375.8 1684.15 375.8C1691.32 348.68 1720.72 316.02 1750.88 304.91C1781.02 293.81 1803.67 303.12 1806.91 305.76Z" fill="#99B9FF"></path> <path d="M1813.26 312.13C1818.79 323.88 1804.79 342.11 1781.99 352.84C1759.19 363.57 1736.22 362.74 1730.69 350.99C1725.16 339.24 1739.16 321.01 1761.96 310.28C1784.76 299.55 1807.73 300.37 1813.26 312.13Z" fill="#D4E4FF"></path> <path d="M1776.39 331.63C1776.7 332.28 1775.79 333.35 1774.36 334.02C1772.94 334.69 1771.53 334.71 1771.22 334.06C1770.91 333.41 1771.82 332.34 1773.25 331.66C1774.68 330.99 1776.09 330.98 1776.39 331.63Z" fill="#99B9FF"></path> <path d="M1758.92 339.85C1759.23 340.5 1758.32 341.57 1756.89 342.24C1755.47 342.91 1754.06 342.93 1753.75 342.28C1753.44 341.63 1754.35 340.56 1755.78 339.89C1757.2 339.22 1758.61 339.2 1758.92 339.85Z" fill="#99B9FF"></path> <path d="M1785.13 327.52C1785.44 328.17 1784.53 329.24 1783.1 329.91C1781.67 330.58 1780.27 330.6 1779.96 329.95C1779.65 329.3 1780.56 328.23 1781.99 327.55C1783.42 326.88 1784.82 326.86 1785.13 327.52Z" fill="#99B9FF"></path> <path d="M1793.87 323.4C1794.18 324.05 1793.27 325.12 1791.84 325.8C1790.42 326.47 1789.01 326.49 1788.7 325.83C1788.39 325.18 1789.3 324.11 1790.73 323.43C1792.16 322.77 1793.56 322.75 1793.87 323.4Z" fill="#99B9FF"></path> <path d="M1805.19 318.08C1805.5 318.73 1804.59 319.8 1803.17 320.48C1801.75 321.15 1800.34 321.17 1800.03 320.51C1799.72 319.86 1800.63 318.79 1802.06 318.12C1803.48 317.44 1804.88 317.42 1805.19 318.08Z" fill="#99B9FF"></path> <path d="M1767.65 335.74C1767.96 336.39 1767.05 337.46 1765.62 338.13C1764.2 338.8 1762.79 338.82 1762.48 338.17C1762.17 337.52 1763.08 336.45 1764.51 335.78C1765.94 335.1 1767.35 335.09 1767.65 335.74Z" fill="#99B9FF"></path> <path d="M1748.18 344.91C1748.49 345.56 1747.58 346.63 1746.16 347.3C1744.73 347.97 1743.33 347.99 1743.02 347.33C1742.71 346.68 1743.62 345.61 1745.05 344.94C1746.47 344.27 1747.87 344.26 1748.18 344.91Z" fill="#99B9FF"></path> <path d="M1773.92 326.37C1774.23 327.02 1773.32 328.09 1771.89 328.76C1770.46 329.43 1769.06 329.45 1768.75 328.8C1768.44 328.15 1769.35 327.08 1770.78 326.4C1772.21 325.74 1773.61 325.72 1773.92 326.37Z" fill="#99B9FF"></path> <path d="M1756.44 334.6C1756.75 335.25 1755.84 336.32 1754.42 336.99C1753 337.66 1751.59 337.68 1751.28 337.02C1750.97 336.37 1751.88 335.3 1753.31 334.63C1754.73 333.96 1756.13 333.95 1756.44 334.6Z" fill="#99B9FF"></path> <path d="M1747.35 337.96C1747.66 338.61 1746.75 339.68 1745.32 340.35C1743.89 341.02 1742.49 341.04 1742.18 340.39C1741.87 339.74 1742.78 338.67 1744.21 338C1745.64 337.33 1747.05 337.31 1747.35 337.96Z" fill="#99B9FF"></path> <path d="M1798.22 314.02C1798.53 314.67 1797.62 315.74 1796.19 316.42C1794.77 317.09 1793.36 317.11 1793.05 316.45C1792.74 315.8 1793.65 314.73 1795.08 314.06C1796.51 313.38 1797.92 313.37 1798.22 314.02Z" fill="#99B9FF"></path> <path d="M1753.2 329.72C1753.51 330.37 1752.6 331.44 1751.18 332.11C1749.75 332.78 1748.35 332.8 1748.04 332.14C1747.73 331.49 1748.64 330.42 1750.06 329.75C1751.49 329.08 1752.89 329.06 1753.2 329.72Z" fill="#99B9FF"></path> <path d="M1782.66 322.26C1782.97 322.91 1782.06 323.98 1780.63 324.65C1779.21 325.32 1777.8 325.34 1777.49 324.69C1777.18 324.04 1778.09 322.97 1779.52 322.29C1780.95 321.62 1782.35 321.61 1782.66 322.26Z" fill="#99B9FF"></path> <path d="M1791.4 318.15C1791.71 318.8 1790.8 319.87 1789.37 320.54C1787.94 321.21 1786.54 321.23 1786.23 320.57C1785.92 319.92 1786.83 318.85 1788.26 318.18C1789.69 317.51 1791.09 317.49 1791.4 318.15Z" fill="#99B9FF"></path> <path d="M1765.18 330.48C1765.49 331.13 1764.58 332.2 1763.15 332.87C1761.73 333.54 1760.32 333.56 1760.02 332.91C1759.71 332.26 1760.62 331.18 1762.04 330.51C1763.47 329.85 1764.87 329.83 1765.18 330.48Z" fill="#99B9FF"></path> <path d="M1778.6 336.31C1778.91 336.96 1778 338.03 1776.57 338.71C1775.15 339.38 1773.74 339.4 1773.43 338.74C1773.12 338.09 1774.03 337.02 1775.46 336.34C1776.89 335.68 1778.29 335.66 1778.6 336.31Z" fill="#99B9FF"></path> <path d="M1761.12 344.54C1761.43 345.19 1760.52 346.26 1759.09 346.93C1757.66 347.6 1756.26 347.62 1755.95 346.97C1755.64 346.32 1756.55 345.25 1757.98 344.57C1759.41 343.9 1760.81 343.89 1761.12 344.54Z" fill="#99B9FF"></path> <path d="M1755.03 350.29C1755.34 350.94 1754.43 352.01 1753 352.69C1751.58 353.36 1750.17 353.38 1749.87 352.72C1749.56 352.07 1750.47 351 1751.89 350.33C1753.32 349.65 1754.72 349.64 1755.03 350.29Z" fill="#99B9FF"></path> <path d="M1787.34 332.2C1787.65 332.85 1786.74 333.92 1785.32 334.6C1783.89 335.27 1782.49 335.29 1782.18 334.63C1781.87 333.98 1782.78 332.91 1784.2 332.24C1785.63 331.56 1787.03 331.55 1787.34 332.2Z" fill="#99B9FF"></path> <path d="M1796.07 328.09C1796.38 328.74 1795.47 329.81 1794.05 330.48C1792.62 331.15 1791.22 331.17 1790.91 330.51C1790.6 329.86 1791.51 328.79 1792.93 328.12C1794.36 327.45 1795.77 327.44 1796.07 328.09Z" fill="#99B9FF"></path> <path d="M1803.25 324.71C1803.56 325.36 1802.65 326.43 1801.22 327.11C1799.8 327.78 1798.39 327.8 1798.09 327.14C1797.78 326.49 1798.69 325.42 1800.11 324.75C1801.53 324.08 1802.95 324.06 1803.25 324.71Z" fill="#99B9FF"></path> <path d="M1798.55 333.34C1798.86 333.99 1797.95 335.06 1796.52 335.74C1795.1 336.41 1793.69 336.43 1793.38 335.77C1793.07 335.12 1793.98 334.05 1795.41 333.38C1796.84 332.71 1798.24 332.69 1798.55 333.34Z" fill="#99B9FF"></path> <path d="M1769.86 340.43C1770.17 341.08 1769.26 342.15 1767.84 342.82C1766.41 343.49 1765.01 343.51 1764.7 342.86C1764.39 342.21 1765.3 341.14 1766.73 340.47C1768.15 339.79 1769.55 339.77 1769.86 340.43Z" fill="#99B9FF"></path> <path d="M1781.07 341.57C1781.38 342.22 1780.47 343.29 1779.04 343.96C1777.62 344.63 1776.21 344.65 1775.91 343.99C1775.6 343.34 1776.51 342.27 1777.93 341.6C1779.36 340.93 1780.77 340.92 1781.07 341.57Z" fill="#99B9FF"></path> <path d="M1768.85 315.59C1769.16 316.24 1768.25 317.31 1766.82 317.98C1765.4 318.65 1763.99 318.67 1763.68 318.01C1763.37 317.36 1764.28 316.29 1765.71 315.62C1767.14 314.96 1768.54 314.94 1768.85 315.59Z" fill="#99B9FF"></path> <path d="M1783.65 347.04C1783.96 347.69 1783.05 348.76 1781.62 349.44C1780.19 350.11 1778.79 350.13 1778.48 349.47C1778.17 348.82 1779.08 347.75 1780.51 347.08C1781.94 346.41 1783.34 346.39 1783.65 347.04Z" fill="#99B9FF"></path> <path d="M1789.81 337.46C1790.12 338.11 1789.21 339.18 1787.78 339.86C1786.36 340.53 1784.95 340.55 1784.64 339.89C1784.33 339.24 1785.24 338.17 1786.67 337.5C1788.1 336.82 1789.5 336.81 1789.81 337.46Z" fill="#99B9FF"></path> <path d="M1772.33 345.68C1772.64 346.33 1771.73 347.4 1770.3 348.07C1768.87 348.74 1767.47 348.76 1767.16 348.11C1766.85 347.46 1767.76 346.39 1769.19 345.71C1770.62 345.05 1772.03 345.03 1772.33 345.68Z" fill="#99B9FF"></path> <path d="M1764.41 349.41C1764.72 350.06 1763.81 351.13 1762.39 351.8C1760.97 352.47 1759.56 352.49 1759.25 351.83C1758.94 351.18 1759.85 350.11 1761.28 349.44C1762.7 348.77 1764.11 348.76 1764.41 349.41Z" fill="#99B9FF"></path> <path d="M1771.45 321.13C1771.76 321.78 1770.85 322.85 1769.42 323.52C1767.99 324.19 1766.59 324.21 1766.28 323.55C1765.97 322.9 1766.88 321.83 1768.31 321.16C1769.74 320.49 1771.14 320.47 1771.45 321.13Z" fill="#99B9FF"></path> <path d="M1780.19 317.01C1780.5 317.66 1779.59 318.73 1778.16 319.4C1776.74 320.07 1775.33 320.09 1775.02 319.44C1774.71 318.79 1775.62 317.72 1777.05 317.05C1778.48 316.38 1779.88 316.36 1780.19 317.01Z" fill="#99B9FF"></path> <path d="M1778.14 312.66C1778.45 313.31 1777.54 314.38 1776.11 315.05C1774.68 315.72 1773.28 315.74 1772.97 315.09C1772.66 314.44 1773.57 313.37 1774.99 312.7C1776.43 312.02 1777.83 312.01 1778.14 312.66Z" fill="#99B9FF"></path> <path d="M1791.83 341.75C1792.14 342.4 1791.23 343.47 1789.8 344.14C1788.38 344.81 1786.97 344.83 1786.67 344.18C1786.36 343.53 1787.27 342.46 1788.69 341.79C1790.12 341.12 1791.52 341.1 1791.83 341.75Z" fill="#99B9FF"></path> <path d="M1775.21 349.58C1775.52 350.23 1774.61 351.3 1773.19 351.98C1771.76 352.65 1770.36 352.67 1770.05 352.01C1769.74 351.36 1770.65 350.29 1772.08 349.61C1773.5 348.94 1774.9 348.92 1775.21 349.58Z" fill="#99B9FF"></path> <path d="M1760.66 320.89C1760.97 321.54 1760.06 322.61 1758.63 323.28C1757.21 323.95 1755.8 323.97 1755.49 323.31C1755.18 322.66 1756.09 321.59 1757.52 320.92C1758.95 320.25 1760.36 320.24 1760.66 320.89Z" fill="#99B9FF"></path> <path d="M1788.93 312.9C1789.24 313.55 1788.33 314.62 1786.9 315.29C1785.47 315.96 1784.07 315.98 1783.76 315.32C1783.45 314.67 1784.36 313.6 1785.79 312.93C1787.22 312.26 1788.62 312.25 1788.93 312.9Z" fill="#99B9FF"></path> <path d="M1762.71 325.24C1763.02 325.89 1762.11 326.96 1760.68 327.63C1759.26 328.3 1757.85 328.32 1757.55 327.66C1757.24 327.01 1758.15 325.94 1759.57 325.27C1760.99 324.6 1762.4 324.59 1762.71 325.24Z" fill="#99B9FF"></path> <path d="M1625.86 1042.54H1612.32V284.28C1612.32 281.21 1614.81 278.71 1617.89 278.71H1620.76C1623.58 278.71 1625.86 280.99 1625.86 283.81V1042.54V1042.54Z" fill="#AEC3FF"></path> <path d="M1626.25 579.22L1625.47 569.97C1633.66 569.71 1640.86 567.37 1647.48 562.79C1668.82 548.04 1681.6 511.76 1684.42 457.87C1686.59 416.54 1681.99 379.32 1681.94 378.95L1697.13 378.24C1697.91 384.41 1715.5 529.8 1658.92 568.91C1649.58 575.37 1638.59 578.84 1626.25 579.22Z" fill="#99B9FF"></path> <path d="M1751.07 734.31H1628.78C1623.43 734.31 1619.09 729.97 1619.09 724.62C1619.09 719.27 1623.43 714.93 1628.78 714.93H1751.07C1756.42 714.93 1760.76 719.27 1760.76 724.62C1760.76 729.97 1756.42 734.31 1751.07 734.31Z" fill="#AEC3FF"></path> <path d="M1706.04 387.88H1620.49C1616 387.88 1612.32 384.2 1612.32 379.71C1612.32 375.22 1616 371.54 1620.49 371.54H1706.04C1710.53 371.54 1714.21 375.22 1714.21 379.71C1714.21 384.2 1710.53 387.88 1706.04 387.88Z" fill="#AEC3FF"></path> <path d="M1746.35 590.72L1738.93 695.35H1708.53L1702.48 590.72H1746.35Z" fill="#F99746"></path> <path d="M1738.93 695.35H1708.53V714.93H1738.93V695.35Z" fill="white"></path> <path d="M1746.36 584.2H1702.48V590.73H1746.36V584.2Z" fill="#D87932"></path> <path d="M1736.57 626.5C1736.57 622.96 1733.7 620.09 1730.16 620.09C1726.62 620.09 1723.75 622.96 1723.75 626.5C1723.75 630.04 1726.62 632.91 1730.16 632.91C1733.7 632.91 1736.57 630.04 1736.57 626.5Z" fill="white"></path> <path d="M1728.02 642.07C1728.02 637.68 1724.46 634.13 1720.08 634.13C1715.69 634.13 1712.14 637.69 1712.14 642.07C1712.14 646.46 1715.7 650.01 1720.08 650.01C1724.46 650.01 1728.02 646.46 1728.02 642.07Z" fill="white"></path> <path d="M1720.66 628.9C1720.66 626.69 1718.87 624.89 1716.65 624.89C1714.43 624.89 1712.64 626.69 1712.64 628.9C1712.64 631.11 1714.44 632.91 1716.65 632.91C1718.86 632.91 1720.66 631.12 1720.66 628.9Z" fill="white"></path> <path d="M1719.28 627.52C1719.28 626.75 1718.66 626.13 1717.89 626.13C1717.12 626.13 1716.5 626.75 1716.5 627.52C1716.5 628.29 1717.12 628.91 1717.89 628.91C1718.66 628.91 1719.28 628.28 1719.28 627.52Z" fill="#F99746"></path> <path d="M1719 645.14C1719 643.76 1717.88 642.65 1716.51 642.65C1715.13 642.65 1714.02 643.77 1714.02 645.14C1714.02 646.52 1715.14 647.63 1716.51 647.63C1717.88 647.63 1719 646.51 1719 645.14Z" fill="#F99746"></path> <path d="M1735.09 628.56C1735.09 627.07 1733.88 625.86 1732.39 625.86C1730.9 625.86 1729.69 627.07 1729.69 628.56C1729.69 630.05 1730.9 631.26 1732.39 631.26C1733.88 631.25 1735.09 630.05 1735.09 628.56Z" fill="#F99746"></path> <path d="M1691 621.43L1683.58 695.35H1653.18L1647.12 621.43H1691Z" fill="#F99746"></path> <path d="M1683.58 695.35H1653.18V714.93H1683.58V695.35Z" fill="white"></path> <path d="M1691 616.82H1647.12V621.43H1691V616.82Z" fill="#D87932"></path> <path d="M1681.21 641.46C1681.21 637.92 1678.34 635.05 1674.8 635.05C1671.26 635.05 1668.39 637.92 1668.39 641.46C1668.39 645 1671.26 647.87 1674.8 647.87C1678.34 647.88 1681.21 645 1681.21 641.46Z" fill="white"></path> <path d="M1672.66 657.03C1672.66 652.64 1669.1 649.09 1664.72 649.09C1660.33 649.09 1656.78 652.65 1656.78 657.03C1656.78 661.42 1660.34 664.97 1664.72 664.97C1669.11 664.98 1672.66 661.42 1672.66 657.03Z" fill="white"></path> <path d="M1665.31 643.87C1665.31 641.66 1663.52 639.86 1661.3 639.86C1659.09 639.86 1657.29 641.66 1657.29 643.87C1657.29 646.08 1659.08 647.88 1661.3 647.88C1663.51 647.88 1665.31 646.08 1665.31 643.87Z" fill="white"></path> <path d="M1663.92 642.48C1663.92 641.71 1663.3 641.09 1662.53 641.09C1661.76 641.09 1661.14 641.71 1661.14 642.48C1661.14 643.25 1661.76 643.87 1662.53 643.87C1663.3 643.87 1663.92 643.25 1663.92 642.48Z" fill="#F99746"></path> <path d="M1663.64 660.1C1663.64 658.72 1662.52 657.61 1661.15 657.61C1659.77 657.61 1658.66 658.73 1658.66 660.1C1658.66 661.47 1659.78 662.59 1661.15 662.59C1662.53 662.59 1663.64 661.48 1663.64 660.1Z" fill="#F99746"></path> <path d="M1679.74 643.52C1679.74 642.03 1678.53 640.82 1677.04 640.82C1675.55 640.82 1674.34 642.03 1674.34 643.52C1674.34 645.01 1675.55 646.22 1677.04 646.22C1678.53 646.22 1679.74 645.01 1679.74 643.52Z" fill="#F99746"></path> <path d="M1726.84 343.63C1713.12 346.28 1701.75 363.97 1696.64 373.24C1697.27 361.72 1719.08 335.45 1724.96 337.53C1730.84 339.59 1726.84 343.63 1726.84 343.63Z" fill="#7FA5EA"></path> <path d="M1705.73 1112.06L1684.38 1152.23H1673.37L1681.9 1112.06H1705.73Z" fill="#95B1EF"></path> <path d="M2161.01 1112.06L2182.36 1152.23H2193.37L2184.84 1112.06H2161.01Z" fill="#95B1EF"></path> <path d="M2391.94 830.27L2338.74 975.86C2306.08 1065.26 2221.04 1124.72 2125.86 1124.72H1742.63C1660.56 1124.72 1589.59 1067.5 1572.2 987.29L1551.04 889.72C1602.4 897.91 1656.9 902.39 1712.51 904.07C2033.89 913.84 2391.94 830.27 2391.94 830.27Z" fill="#BDD1F9"></path> <path d="M1933.9 1124.73H1742.63C1660.56 1124.73 1589.59 1067.51 1572.2 987.3L1551.04 889.73C1602.4 897.92 1656.9 902.4 1712.51 904.08C1710.22 939.91 1713.14 1096.14 1933.9 1124.73Z" fill="#AEC3FF"></path> <path d="M1804.03 910.9C1759.65 910.9 1719.77 909.58 1686.63 907.85C1593.58 903.01 1532.04 894.03 1531.43 893.94C1526.6 893.23 1523.26 888.73 1523.97 883.9C1524.68 879.07 1529.18 875.73 1534.01 876.44C1534.61 876.53 1595.51 885.41 1687.79 890.19C1772.88 894.61 1902.82 896.35 2038.68 879.59C2174.69 862.81 2267.91 846.18 2322.17 835.18C2380.96 823.27 2407.93 815.21 2408.19 815.13C2412.87 813.72 2417.8 816.37 2419.21 821.05C2420.62 825.73 2417.97 830.66 2413.29 832.07C2412.19 832.4 2385.57 840.36 2326.16 852.42C2271.54 863.5 2177.7 880.26 2040.84 897.14C1956.6 907.55 1874.63 910.9 1804.03 910.9Z" fill="#95B1EF"></path> <path d="M1059.49 261.91H805.13V585.85H1059.49V261.91Z" fill="#99B9FF"></path> <path d="M1049.18 272.05H815.44V576.97H1049.18V272.05Z" fill="#BDD1F9"></path> <path d="M474.52 765.98H160.22V1152.88H474.52V765.98Z" fill="#BDD1F9"></path> <path d="M474.52 823.67H160.22V828.92H474.52V823.67Z" fill="#AEC3FF"></path> <path d="M253.22 818.55H169.68V773.9H253.22V818.55V818.55ZM170.73 817.5H252.17V774.95H170.73V817.5Z" fill="#AEC3FF"></path> <path d="M298.67 796.23C298.67 787.96 305.37 781.26 313.64 781.26C321.91 781.26 328.61 787.96 328.61 796.23C328.61 804.5 321.91 811.2 313.64 811.2C305.37 811.2 298.67 804.49 298.67 796.23Z" fill="#AEC3FF"></path> <path d="M339.13 796.23C339.13 789.49 344.59 784.02 351.33 784.02C358.07 784.02 363.53 789.48 363.53 796.23C363.53 802.97 358.07 808.43 351.33 808.43C344.59 808.43 339.13 802.97 339.13 796.23Z" fill="#AEC3FF"></path> <path d="M449.54 781.88H382.64V810.58H449.54V781.88Z" fill="#AEC3FF"></path> <path d="M313.639 1089.15C377.953 1089.15 430.089 1037.01 430.089 972.7C430.089 908.386 377.953 856.25 313.639 856.25C249.326 856.25 197.189 908.386 197.189 972.7C197.189 1037.01 249.326 1089.15 313.639 1089.15Z" fill="#AEC3FF"></path> <path d="M318.319 1066.23C369.973 1063.68 409.776 1019.73 407.221 968.076C404.666 916.423 360.722 876.62 309.068 879.175C257.414 881.729 217.611 925.674 220.166 977.328C222.721 1028.98 266.665 1068.78 318.319 1066.23Z" fill="#95B1EF"></path> <path d="M405.7 997.88H399.41C391.62 997.88 385.25 991.51 385.25 983.72V971.13C385.25 963.34 391.62 956.97 399.41 956.97H405.7C413.49 956.97 419.859 963.34 419.859 971.13V983.72C419.869 991.51 413.49 997.88 405.7 997.88Z" fill="#AEC3FF"></path> <path d="M1120.41 760.74H771.44V1152.23H1120.41V760.74Z" fill="#BDD1F9"></path> <path d="M1120.41 880.84H771.44V885.47H1120.41V880.84Z" fill="#AEC3FF"></path> <path d="M976.6 781.88H920.09C918.23 781.88 916.7 780.35 916.7 778.49V777.51C916.7 775.65 918.23 774.12 920.09 774.12H976.6C978.46 774.12 979.99 775.65 979.99 777.51V778.49C979.99 780.35 978.46 781.88 976.6 781.88Z" fill="#AEC3FF"></path> <path d="M1120.41 1022.91H771.44V1027.54H1120.41V1022.91Z" fill="#AEC3FF"></path> <path d="M976.6 902.8H920.09C918.23 902.8 916.7 901.27 916.7 899.41V898.43C916.7 896.56 918.23 895.04 920.09 895.04H976.6C978.46 895.04 979.99 896.57 979.99 898.43V899.41C979.99 901.28 978.46 902.8 976.6 902.8Z" fill="#AEC3FF"></path> <path d="M976.6 1051.21H920.09C918.23 1051.21 916.7 1049.68 916.7 1047.82V1046.84C916.7 1044.98 918.23 1043.45 920.09 1043.45H976.6C978.46 1043.45 979.99 1044.98 979.99 1046.84V1047.82C979.99 1049.68 978.46 1051.21 976.6 1051.21Z" fill="#AEC3FF"></path> <path d="M1139.67 740.33H749.7V765.98H1139.67V740.33Z" fill="#95B1EF"></path> <path d="M927.6 684.42C923.31 684.42 919.81 680.91 919.81 676.63V605.72C919.81 601.43 923.32 597.93 927.6 597.93C931.89 597.93 935.39 601.44 935.39 605.72V676.63C935.39 680.92 931.88 684.42 927.6 684.42Z" fill="#95B1EF"></path> <path d="M886.29 645.71C886.29 645.71 905.13 638.63 911.48 642.93C917.83 647.24 909.51 660.6 904.47 661.48C899.43 662.36 884.76 660.17 884.76 660.17L886.29 645.71Z" fill="#FFB27D"></path> <path d="M889.33 654.72C892.29 646.66 889.79 642.65 889.79 642.65C889.79 642.65 820.46 629.22 814 624.92C807.54 620.62 749.05 539.51 749.05 539.51L657.14 548.07C657.14 548.07 771.79 644.38 788.38 654.96C815.79 672.43 882.05 662.48 882.05 662.48C882.05 662.48 887 661.05 889.33 654.72Z" fill="#ED7D2B"></path> <path d="M887.064 666.939L893.491 672.238L921.585 638.169L915.159 632.869L887.064 666.939Z" fill="#35488B"></path> <path d="M922.22 620.82C922.2 620.85 922.22 620.82 922.2 620.85C920.42 623.67 919.75 627.29 922.07 629.68C925.17 632.88 928.89 631.64 931.64 628.3C931.65 628.29 932.34 627.45 932.36 627.43C933.31 626.26 935.87 628.8 935.7 630.3C935.4 633 934.18 635.63 932 637.7C928.02 641.49 921.83 642.04 917.23 639.03C911.13 635.04 910 626.78 914.5 621.31C915.76 619.78 917.32 618.65 919.02 617.92C920.66 617.22 923.2 619.32 922.22 620.82Z" fill="#35488B"></path> <path d="M886.95 685.47C886.97 685.44 886.95 685.47 886.97 685.44C888.75 682.63 889.42 679 887.1 676.61C884 673.41 880.28 674.65 877.53 677.99C877.52 678.01 876.83 678.84 876.81 678.86C875.86 680.03 873.3 677.49 873.47 675.99C873.77 673.29 874.99 670.66 877.17 668.59C881.16 664.8 887.34 664.25 891.94 667.26C898.04 671.25 899.17 679.51 894.67 684.98C893.41 686.51 891.85 687.64 890.15 688.37C888.51 689.07 885.97 686.97 886.95 685.47Z" fill="#35488B"></path> <path d="M911.48 642.93C911.48 642.93 900.52 642.59 900.17 648.02C899.82 653.45 898.97 661.79 904.47 661.47C909.98 661.16 925.42 648.7 911.48 642.93Z" fill="#FFB27D"></path> <path d="M949.81 653.71C949.81 653.71 1018.97 590.74 1045.73 626.02C1052.71 635.22 1037.55 646.14 1026.64 647.83C1007.15 650.84 974.89 640.76 949.81 653.71Z" fill="#758BEA"></path> <path d="M1060.75 684.42C1060.75 708.39 1034.85 729.3 996.42 740.4H870.13C831.71 729.3 805.81 708.39 805.81 684.42H1060.75Z" fill="#BDD1F9"></path> <path d="M1067.04 684.42H799.52C796.43 684.42 793.91 681.89 793.91 678.81C793.91 675.72 796.43 673.2 799.52 673.2H1067.04C1070.13 673.2 1072.65 675.72 1072.65 678.81C1072.65 681.9 1070.12 684.42 1067.04 684.42Z" fill="#A2C5FC"></path> <path d="M978.83 695.68C978.83 695.68 983.47 721.79 970.73 728.89C957.98 736 947.92 720.89 959.1 714.08C970.27 707.27 974.73 707.58 978.83 695.68Z" fill="#758BEA"></path> <path d="M979.77 673.2C979.77 673.2 1014.94 677.89 1028.77 704.22C1042.6 730.55 1053.58 767.51 1025.33 773.18C997.08 778.85 983.97 764.44 992.75 731.27C1005.15 684.42 979.77 673.2 979.77 673.2Z" fill="#758BEA"></path> <path d="M474.52 1094.82C474.52 1094.82 462.14 1106.3 464.55 1114.45C466.97 1122.6 478.14 1128.04 479.65 1138.01C481.16 1147.98 487.2 1153.41 492.64 1153.41C498.08 1153.41 518.56 1153.41 518.56 1153.41C518.56 1153.41 522.56 1146.4 512.9 1144.28C503.24 1142.17 499.59 1130.46 500.2 1119.58C500.8 1108.71 499.29 1094.21 499.29 1094.21L478.75 1089.38L474.52 1094.82Z" fill="#2C3A64"></path> <path d="M626.42 1124.16C626.42 1124.16 623.53 1150.28 628.97 1152.99H699.08C699.08 1152.99 699.21 1144.69 688.03 1142.88C676.86 1141.07 657.23 1134.42 653.91 1119.63C650.58 1104.83 626.42 1124.16 626.42 1124.16Z" fill="#2C3A64"></path> <path d="M685.16 753.02C685.16 753.02 681.49 798.8 677.18 853.83C671.32 928.58 664.27 1020.41 663.57 1037.8C662.36 1068.01 657.53 1116.32 657.53 1116.32C657.53 1116.32 646.06 1127.8 623.1 1122.96C623.1 1122.96 602.64 1053.99 596.8 981.01C596.71 979.81 596.62 978.61 596.53 977.4C591.09 903.11 582.64 746.67 582.64 746.67L685.16 753.02Z" fill="#35488B"></path> <path d="M685.16 753.02C685.16 753.02 681.49 798.8 677.18 853.83L596.8 981.01C596.71 979.81 596.62 978.61 596.53 977.4C591.09 903.11 582.64 746.67 582.64 746.67L685.16 753.02Z" fill="#2C3A64"></path> <path d="M668.4 758.45C668.4 758.45 665 766.97 659.25 781.06C645.81 813.88 619.53 876.94 593.5 932.82C581.44 958.72 569.43 983.07 558.78 1002.16C515.29 1080.09 501.7 1101.83 501.7 1101.83C501.7 1101.83 501.07 1101.58 500.03 1101.13C495.52 1099.23 483.02 1093.7 477.3 1088.63C475.91 1087.39 474.91 1086.19 474.53 1085.06C474.53 1085.06 491.16 934.65 520.28 897.98C536.73 877.26 556.06 815.08 556.97 793.35C557.37 783.76 558.57 770.05 559.78 757.69C560.86 746.53 561.98 736.5 562.52 731.65C562.75 729.68 562.87 728.57 562.87 728.57L639.23 750.2L668.4 758.45Z" fill="#35488B"></path> <path d="M652.86 779.77C618.66 777.99 603.46 774.19 583.88 769.39C572.1 766.51 564.32 760.45 559.77 757.68C560.85 746.52 561.97 736.49 562.51 731.64L593.22 747.35L652.86 779.77Z" fill="#2C3A64"></path> <path d="M697.54 497.45C697.54 497.45 724.53 544.93 750.9 551.13C750.9 551.13 750.1 539.47 745.85 529.26C744.49 526 745.11 522.25 747.33 519.51C748.39 518.2 749.39 516.95 750.32 515.77C756.96 507.26 760.12 502.05 760.12 502.05L751.17 477.98L745.1 461.65C742.18 466.95 738.96 471.46 735.61 475.33C718.31 495.21 697.54 497.45 697.54 497.45Z" fill="#FFB27D"></path> <path d="M735.6 475.33C735.6 475.33 732.38 499.12 750.32 515.76C756.96 507.25 760.12 502.04 760.12 502.04L751.17 477.97C741.56 475.06 735.6 475.33 735.6 475.33Z" fill="#ED975D"></path> <path d="M767.22 505.56C767.22 505.56 726.9 489.84 737.08 464.88C747.25 439.92 748.9 421.08 775.08 430.07C801.25 439.05 802.34 450.6 800.97 459.76C799.6 468.91 777.97 509 767.22 505.56Z" fill="#FFB27D"></path> <path d="M744.16 611.25C739.78 623.9 734.03 636.87 727.31 649.13C725.99 651.55 724.69 653.94 723.48 656.31C722.66 657.88 721.88 659.45 721.11 661C706.4 690.66 699.62 716.38 696.69 736.58C696.13 740.47 695.7 744.14 695.4 747.61C694.07 762.43 555.5 714.18 559.97 693.45C562.92 679.8 566.94 665.46 570.71 653.24C576.2 635.34 581.12 621.99 581.12 621.99C607.04 560.31 643.83 527.1 672.49 509.57C677.68 506.38 682.6 503.71 687.15 501.5C704.56 492.96 716.41 490.83 716.41 490.83C716.41 490.83 722.34 520.46 747.75 532.21C747.78 532.3 751.72 548.3 751.74 548.37C755.98 563.6 752.6 586.9 744.16 611.25Z" fill="#F99746"></path> <path d="M731.29 418.52C731.01 417.96 730.19 417.37 728.19 416.75C728.19 416.75 730.07 416.12 732.25 416.6C733.38 413.84 736.13 409.13 741.29 409.1C741.29 409.1 738.33 409.87 737.24 412.83C744.31 408.35 757.42 407.04 790.15 417.95C833.28 432.32 811.73 457.35 805.2 459.36C798.66 461.37 786.63 448.49 775.8 446.73C764.98 444.97 759.12 460.05 755 461.3C750.87 462.55 753.22 459.12 748.9 455.68C744.58 452.24 742.1 460.33 742.19 466C742.28 471.68 733.86 477.06 733.86 477.06C733.86 477.06 733.86 477.06 728.92 468C723.98 458.94 725.32 426.03 730.04 420.11C730.45 419.58 730.87 419.05 731.29 418.52Z" fill="#2B478B"></path> <path d="M658.73 588.73C658.73 588.73 663.37 623.85 679.06 650.44C694.75 677.02 701.7 635.65 701.7 635.65L658.73 588.73Z" fill="#ED7D2B"></path> <path d="M721.1 661C706.39 690.66 699.61 716.38 696.68 736.58C696.12 740.47 695.69 744.14 695.39 747.61C694.06 762.43 694.82 773.34 695.37 779.54C696.8 795.72 575.21 764.48 558.94 741.09C550 728.21 561.22 684.01 570.69 653.24C572.28 653.62 647.66 671.56 699.81 624.92L721.1 661Z" fill="#35488B"></path> <path d="M730.34 577.52L722.83 562.54C722.85 562.28 723.65 536.1 707.94 520.74C699.47 512.44 687.55 508.7 672.47 509.57C677.66 506.38 682.58 503.71 687.13 501.5C697.9 503.16 706.91 507.53 714.08 514.56C732.54 532.64 730.39 576.3 730.34 577.52Z" fill="#2C3A64"></path> <path d="M834.04 680.66C834.04 680.66 857.69 676.42 861.61 676.88C865.54 677.34 879.03 683.75 879.16 684.87C879.29 685.99 878.59 686.87 876.21 686.92C873.82 686.97 866.04 685.59 866.49 686.56C866.94 687.53 889.29 693.04 889.33 697.59C889.36 702.14 876.6 710 866.13 710.07C855.66 710.14 835.7 697.03 833.95 696.8C819.08 694.79 834.04 680.66 834.04 680.66Z" fill="#FFB27D"></path> <path d="M838.47 690.3C838.93 685.63 834.04 680.67 834.04 680.67C834.04 680.67 763.85 661.36 758.04 655.5C752.23 649.64 725.32 556.3 725.32 556.3C725.32 556.3 716.06 518.52 694.37 514.36C675.52 510.74 662.5 520.07 653.97 531C643.81 544.03 642.82 561.99 651.25 576.2C670.17 608.08 708.34 671.38 719.49 682.19C744.3 706.26 833.94 701.29 833.94 701.29C833.94 701.29 837.54 699.67 838.47 690.3Z" fill="#F99746"></path> <path d="M1204.9 937.54C1204.9 937.54 1136.07 953.29 1136.07 998.47C1136.07 998.47 1136.77 1021.22 1161.46 1014.93C1180.73 1010.03 1159.19 983.26 1204.9 937.54Z" fill="#8C9DF4"></path> <path d="M1200.75 931.76C1200.75 931.76 1152.13 922.06 1147.66 933.43C1140.75 950.95 1174.49 927.88 1200.75 931.76Z" fill="#8C9DF4"></path> <path d="M2520.74 1158.43H2.75C1.24 1158.43 0 1157.19 0 1155.68V1154.98C0 1153.47 1.24 1152.23 2.75 1152.23H2520.73C2522.24 1152.23 2523.48 1153.47 2523.48 1154.98V1155.68C2523.49 1157.19 2522.25 1158.43 2520.74 1158.43Z" fill="#233862"></path> <path d="M1255.52 933.99C1255.52 933.99 1285.03 968 1273.31 989.47C1271.67 992.47 1268.22 997.68 1258.76 994.27C1249.3 990.85 1260.77 978.44 1260.34 962.75C1259.99 950.29 1255.52 933.99 1255.52 933.99Z" fill="#8C9DF4"></path> <path d="M1230.31 927.34C1237.99 928.55 1255.86 923.21 1257.16 923.09C1268.24 922.03 1257.55 911.12 1257.55 911.12C1257.55 911.12 1240.13 907.29 1237.21 907.52C1236.25 907.6 1234.67 907.91 1232.96 908.33L1235.95 911.25C1235.95 911.25 1221.44 912.78 1221.28 916.15C1221.13 919.54 1223.61 926.29 1230.31 927.34Z" fill="#FFB27D"></path> <path d="M1237.22 907.52L1224.88 909.02C1224.88 912.26 1234.37 911.2 1234.84 912.8C1235.3 914.4 1237.49 910.57 1237.49 910.57L1237.22 907.52Z" fill="#FFB27D"></path> <path d="M1352.3 908.51C1352.3 908.51 1335.7 910.13 1336.77 911.89C1337.84 913.65 1345.12 914.42 1345.12 914.42L1350.96 910.67L1352.3 908.51Z" fill="#FFB27D"></path> <path d="M1254.14 916.52C1251.47 908.8 1255.19 906.39 1255.19 906.39C1255.19 906.39 1331.25 870.32 1337.47 866.35C1343.69 862.38 1385.51 786.22 1385.51 786.22C1385.51 786.22 1401.01 755.08 1420.75 755.71C1437.91 756.25 1447.44 766.95 1452.73 778.16C1459.03 791.52 1456.37 807.39 1446.23 818.13C1423.45 842.23 1377.72 889.96 1365.87 897.2C1339.5 913.32 1260.46 926.36 1260.46 926.36C1260.46 926.36 1256.24 922.58 1254.14 916.52Z" fill="#E58638"></path> <path d="M1265.27 999.18C1276.75 1012.41 1300.96 1020.96 1347.67 1023.13C1351.42 1023.31 1355.19 1023.45 1358.98 1023.57C1362.88 1023.69 1366.79 1023.77 1370.7 1023.82C1383.39 1024 1396.02 1023.85 1408.06 1023.45C1419.73 1023.05 1430.85 1022.41 1440.92 1021.57C1460.62 1019.93 1476.34 1017.55 1484.46 1014.82C1486.89 1014 1488.64 1013.16 1489.62 1012.28C1490.45 1011.54 1491.13 1010.66 1491.64 1009.67C1494.59 1004.21 1493.05 995.25 1489.49 985.38C1484.3 971.01 1474.78 954.73 1468.37 944.53C1467.08 942.49 1465.94 940.71 1464.96 939.23C1463.01 936.24 1461.79 934.49 1461.79 934.49C1461.79 934.49 1439.97 936.52 1410.1 940.39C1404.01 941.18 1397.57 942.05 1390.92 942.99C1326.7 952.07 1262.71 968.4 1262.77 990.06C1262.78 993.34 1262.56 996.06 1265.27 999.18Z" fill="#2B478B"></path> <path d="M1344.79 1022.86C1348.69 1022.98 1366.79 1023.76 1370.7 1023.81C1383.39 1023.99 1396.02 1023.84 1408.06 1023.44L1419.38 977.83C1401.87 1002.26 1350.42 1021.29 1344.79 1022.86Z" fill="#2C3A64"></path> <path d="M1382.62 1155.33H1320.36C1321.34 1152.96 1323.71 1149.87 1329.49 1148.86C1339.3 1147.14 1356.32 1141.84 1354.14 1127.68C1351.93 1113.33 1375.81 1111.48 1375.81 1111.48C1375.81 1111.48 1385.74 1149.87 1382.62 1155.33Z" fill="#2C3A64"></path> <path d="M1264.26 996.84C1264.26 996.84 1341.49 1118.34 1347.92 1132.78C1347.92 1132.78 1374.2 1135.23 1380.52 1116.45C1380.52 1116.45 1334.61 988.23 1314.43 977.66C1294.25 967.09 1264.26 996.84 1264.26 996.84Z" fill="#2B478B"></path> <path d="M1420.01 741.03C1420.01 741.03 1393.42 777.43 1369.71 779.38C1369.71 779.38 1371.41 771.67 1375.22 764.18C1377.66 759.36 1377.61 753.67 1374.94 748.97C1374.9 748.9 1374.86 748.83 1374.82 748.76C1370.16 740.51 1368.1 735.58 1368.1 735.58L1379 715.85L1381.25 705.24C1383.09 710.22 1385.25 714.81 1387.66 718.6C1400.08 738.1 1420.01 741.03 1420.01 741.03Z" fill="#FFB27D"></path> <path d="M1388.7 718.4C1388.7 718.4 1392.56 736.64 1374.82 748.75C1370.16 740.5 1368.1 735.57 1368.1 735.57L1379 715.84C1387.71 714.55 1388.7 718.4 1388.7 718.4Z" fill="#ED975D"></path> <path d="M1364.77 746.57C1364.77 746.57 1398.13 728.4 1386.49 707.79C1374.85 687.19 1371.32 670.97 1349.53 681.7C1327.74 692.43 1328.08 702.61 1330.29 710.43C1332.5 718.25 1355.8 750.76 1364.77 746.57Z" fill="#FFB27D"></path> <path d="M1386.38 666.77C1386.56 666.25 1387.21 665.64 1388.89 664.89C1388.89 664.89 1387.18 664.55 1385.34 665.21C1384.05 662.93 1381.13 659.14 1376.63 659.68C1376.63 659.68 1379.29 660.02 1380.57 662.48C1373.91 659.36 1362.35 659.69 1335.07 672.82C1299.11 690.13 1320.66 709.53 1326.58 710.55C1332.5 711.57 1341.54 699.01 1350.77 696.28C1360 693.54 1366.78 706.02 1370.51 706.65C1374.24 707.28 1371.82 704.55 1375.2 701.08C1378.58 697.61 1381.64 704.37 1382.19 709.32C1382.74 714.27 1388.71 718.39 1388.71 718.39C1388.71 718.39 1390.68 718.02 1393.97 709.58C1397.26 701.14 1392.43 672.63 1387.66 668C1387.23 667.61 1386.81 667.19 1386.38 666.77Z" fill="#2B478B"></path> <path d="M1585.57 1115.61C1585.57 1115.61 1593.33 1127.39 1595.14 1131.2C1596.94 1135.02 1593.4 1143.14 1588.08 1144.36C1583.39 1145.44 1582.69 1153.76 1582.69 1153.76H1605.44C1607.85 1153.76 1610.02 1152.43 1610.95 1150.39C1614.16 1143.33 1614.89 1134.15 1615.54 1131.07C1616.9 1124.61 1619.58 1119.19 1618.4 1112.62C1617.22 1106.07 1606.01 1102.27 1585.58 1102.33C1563.13 1102.41 1585.57 1115.61 1585.57 1115.61Z" fill="#233862"></path> <path d="M1518.68 973.6C1501.52 991.78 1375.55 954.17 1386.11 944.59C1388.8 942.16 1387.88 939.23 1388.97 935.31C1394.2 916.71 1383.79 884.89 1379.33 872.56C1378.29 869.7 1377.57 867.89 1377.44 867.53C1373.18 856.02 1369.89 844.03 1367.73 832.44C1363.58 810.21 1363.65 789.54 1369.33 776.88C1369.37 776.81 1369.38 776.75 1369.42 776.71C1393.02 769.81 1406.01 735.1 1406.01 735.1C1406.01 735.1 1480.77 756.33 1507.9 863.01C1507.9 863.01 1509.3 869.81 1511.03 880.02H1511.04C1511.56 883.15 1512.12 886.61 1512.68 890.29C1515.58 909.27 1517.26 933.61 1518.98 951.74C1519.05 952.37 1519.1 953.01 1519.17 953.66C1520.03 961.46 1521.53 970.58 1518.68 973.6Z" fill="#F99746"></path> <path d="M1419.48 955.56C1419.48 955.56 1432.04 957.21 1457.37 959.08C1483.62 961.02 1511.44 965.16 1515.96 973.98C1517.46 976.9 1516.41 984.29 1513.49 994.5C1507.02 1017.07 1491.33 1053.41 1473.42 1085.63C1519.43 1088.29 1582.03 1098.45 1582.03 1098.45C1592.27 1110.03 1587.98 1123.58 1587.98 1123.58C1584.7 1123.61 1574.82 1125 1561.35 1127.18C1512.53 1135.04 1453.07 1151.2 1416.21 1151.2C1408.15 1151.2 1402.11 1145.47 1399.66 1137.99V1137.98C1384.5 1091.86 1419.48 955.56 1419.48 955.56Z" fill="#2B478B"></path> <path d="M1513.49 997.92C1488.09 997.12 1424.4 965.85 1425.44 965.6C1437.3 962.68 1447.91 960.66 1457.38 959.39C1483.63 961.51 1511.45 966.01 1515.97 975.6C1517.45 978.78 1516.41 986.81 1513.49 997.92Z" fill="#2C3A64"></path> <path d="M1418.55 740.29C1418.55 740.29 1386.59 746.94 1383.47 774.94C1381.2 795.33 1397.39 841.52 1397.39 841.52L1407.74 837.27C1407.74 837.27 1388.17 780.25 1391.18 770.55C1395.04 758.11 1413.41 739.51 1430.31 746.94L1418.55 740.29Z" fill="#2B478B"></path> <path d="M1518.68 973.6C1501.52 991.78 1372.84 954.57 1383.39 944.99C1386.07 942.56 1387.87 939.23 1388.96 935.31C1394.19 916.71 1383.78 884.89 1379.32 872.56C1378.28 869.7 1368.44 835.82 1368.3 835.46L1404.53 827.62C1404.53 827.62 1414.78 845.27 1428.09 854.33C1445.54 866.22 1473.75 879.96 1511.02 880.02H1511.03C1511.55 883.15 1512.11 886.61 1512.67 890.29C1515.57 909.27 1517.25 933.61 1518.97 951.74C1519.04 952.37 1519.09 953.01 1519.16 953.66C1520.03 961.46 1521.53 970.58 1518.68 973.6Z" fill="#2B478B"></path> <path d="M1245.54 1152.23H1220.6V874.29C1220.6 854.85 1204.79 839.03 1185.35 839.03H1120.42V814.09H1185.35C1218.54 814.09 1245.55 841.09 1245.55 874.29V1152.23H1245.54Z" fill="#BDD1F9"></path> <path d="M1176.18 811.2H1171.68V843.07H1176.18V811.2Z" fill="#91B5F8"></path> <path d="M1249.98 897.241V892.741H1218.11V897.241H1249.98Z" fill="#91B5F8"></path> <path d="M1249.97 950.748V946.248H1218.1V950.748H1249.97Z" fill="#91B5F8"></path> <path d="M1247.55 1115H1217.41V1152.22H1247.55V1115Z" fill="#91B5F8"></path> <path d="M1249.33 887.37L1366.49 933.41C1368.83 934.33 1371.48 933.18 1372.4 930.84L1373.17 928.87C1373.95 926.89 1372.97 924.66 1371 923.88L1253.18 877.58L1249.33 887.37Z" fill="#2B478B"></path> <path d="M1237.96 883.52L1240.57 884.54L1241.36 878.61C1242.04 873.51 1247.17 870.3 1251.75 872.1L1285.97 885.55L1289.36 876.92L1246.02 859.89C1241.8 858.23 1237.05 861.05 1236.2 865.72L1234.24 876.56C1233.7 879.55 1235.25 882.46 1237.96 883.52Z" fill="#2B478B"></path> <path d="M1261.68 884.564L1283.08 892.971L1287.89 880.742L1266.49 872.335L1261.68 884.564Z" fill="#2B478B"></path> <path d="M1280.19 885.46C1280.48 884.71 1280.12 883.87 1279.37 883.58C1278.62 883.29 1277.78 883.65 1277.49 884.4C1277.2 885.15 1277.57 885.99 1278.31 886.28C1279.06 886.57 1279.9 886.2 1280.19 885.46Z" fill="#6C7AFF"></path> <path d="M1271.56 882.07C1271.85 881.33 1271.49 880.48 1270.74 880.19C1269.99 879.9 1269.15 880.26 1268.86 881.01C1268.57 881.76 1268.93 882.6 1269.68 882.89C1270.43 883.18 1271.27 882.81 1271.56 882.07Z" fill="#6C7AFF"></path> <path d="M1376.9 907.05C1376.9 907.05 1371.16 908.4 1365.01 908.6C1359.47 908.78 1353.61 907.76 1350.96 908.87C1345.35 911.21 1327.58 923.42 1336.16 928.65C1344.74 933.88 1353.58 932.05 1359.45 927.3C1365.31 922.55 1381.25 922.16 1381.25 922.16L1376.9 907.05Z" fill="#FFB27D"></path> <path d="M1436.62 765.98C1475.15 777.1 1498.61 869.56 1493.19 897.24C1487.76 924.91 1379 926.36 1379 926.36C1379 926.36 1372.89 921.58 1372.17 916.64C1371.25 910.34 1372.24 907.44 1372.24 907.44C1372.24 907.44 1441.01 888.77 1442.58 880.83C1444.15 872.89 1409.48 830.8 1410 807.98C1410.53 785.16 1415.63 759.92 1436.62 765.98Z" fill="#F99746"></path> <path d="M1289.67 1152.23C1289.67 1152.23 1274.76 1128.65 1232.48 1133.62C1190.19 1138.58 1160.07 1161.32 1059.19 1135.94C958.31 1110.56 967.42 1156.1 909.97 1146.29C852.53 1136.48 827.31 1152.23 827.31 1152.23H1289.67Z" fill="#8C9DF4"></path> <path d="M1182.98 811.2C1182.98 811.2 1194.53 785.37 1216.78 790.08C1216.78 790.08 1222.49 791.51 1221.06 797.35C1219.63 803.19 1202.23 795.24 1182.98 811.2Z" fill="#8C9DF4"></path> </svg> 