<?xml version="1.0" encoding="UTF-8"?> <svg xmlns="http://www.w3.org/2000/svg" width="150" height="150" viewBox="0 0 150 150" fill="none"> <path opacity="0.3" d="M56.25 62.5C63.1536 62.5 68.75 56.9036 68.75 50C68.75 43.0964 63.1536 37.5 56.25 37.5C49.3464 37.5 43.75 43.0964 43.75 50C43.75 56.9036 49.3464 62.5 56.25 62.5Z" fill="#758BEA"></path> <path opacity="0.3" d="M56.25 93.75C39.375 93.75 20 101.813 18.75 106.313V112.5H93.75V106.25C92.5 101.813 73.125 93.75 56.25 93.75Z" fill="#758BEA"></path> <path d="M104.188 82.0625C112.75 87.875 118.75 95.75 118.75 106.25V125H143.75V106.25C143.75 92.625 121.438 84.5625 104.188 82.0625V82.0625ZM93.75 75C107.563 75 118.75 63.8125 118.75 50C118.75 36.1875 107.563 25 93.75 25C90.8125 25 88.0625 25.625 85.4375 26.5C90.8158 33.1514 93.7498 41.4463 93.7498 50C93.7498 58.5537 90.8158 66.8486 85.4375 73.5C88.0625 74.375 90.8125 75 93.75 75ZM56.25 75C70.0625 75 81.25 63.8125 81.25 50C81.25 36.1875 70.0625 25 56.25 25C42.4375 25 31.25 36.1875 31.25 50C31.25 63.8125 42.4375 75 56.25 75ZM56.25 37.5C63.125 37.5 68.75 43.125 68.75 50C68.75 56.875 63.125 62.5 56.25 62.5C49.375 62.5 43.75 56.875 43.75 50C43.75 43.125 49.375 37.5 56.25 37.5ZM56.25 81.25C39.5625 81.25 6.25 89.625 6.25 106.25V125H106.25V106.25C106.25 89.625 72.9375 81.25 56.25 81.25ZM93.75 112.5H18.75V106.313C20 101.813 39.375 93.75 56.25 93.75C73.125 93.75 92.5 101.813 93.75 106.25V112.5Z" fill="#758BEA"></path> </svg> 