<?xml version="1.0" encoding="UTF-8"?> <svg xmlns="http://www.w3.org/2000/svg" width="150" height="150" viewBox="0 0 150 150" fill="none"> <path d="M75 6.25L18.75 31.25V68.75C18.75 103.438 42.75 135.875 75 143.75C107.25 135.875 131.25 103.438 131.25 68.75V31.25L75 6.25ZM118.75 68.75C118.75 97 100.125 123.063 75 130.813C49.875 123.063 31.25 97 31.25 68.75V39.375L75 19.9375L118.75 39.375V68.75ZM46.3125 72.4375L37.5 81.25L62.5 106.25L112.5 56.25L103.688 47.375L62.5 88.5625L46.3125 72.4375Z" fill="#758BEA"></path> <path opacity="0.3" d="M31.25 39.375V68.75C31.25 97 49.875 123.062 75 130.812C100.125 123.125 118.75 97 118.75 68.75V39.375L75 19.9375L31.25 39.375ZM112.5 56.25L62.5 106.25L37.5 81.25L46.3125 72.4375L62.5 88.5625L103.688 47.375L112.5 56.25Z" fill="#758BEA"></path> </svg> 