<?xml version="1.0" encoding="UTF-8"?> <svg xmlns="http://www.w3.org/2000/svg" width="150" height="150" viewBox="0 0 150 150" fill="none"> <path opacity="0.3" d="M75 37.5C50.8125 37.5 31.25 57.0625 31.25 81.25C31.25 105.437 50.8125 125 75 125C99.1875 125 118.75 105.437 118.75 81.25C118.75 57.0625 99.1875 37.5 75 37.5ZM81.25 87.5H68.75V50H81.25V87.5Z" fill="#758BEA"></path> <path d="M56.25 6.25H93.75V18.75H56.25V6.25ZM118.938 46.1875L127.813 37.3125C125.125 34.125 122.188 31.125 119 28.5L110.125 37.375C100.171 29.3645 87.7771 24.9981 75 25C60.0816 25 45.7742 30.9263 35.2252 41.4752C24.6763 52.0242 18.75 66.3316 18.75 81.25C18.75 112.312 43.875 137.5 75 137.5C85.5894 137.506 95.9651 134.52 104.932 128.887C113.899 123.254 121.092 115.203 125.684 105.661C130.275 96.1186 132.078 85.4735 130.885 74.9516C129.691 64.4296 125.55 54.4588 118.938 46.1875V46.1875ZM75 125C50.8125 125 31.25 105.437 31.25 81.25C31.25 57.0625 50.8125 37.5 75 37.5C99.1875 37.5 118.75 57.0625 118.75 81.25C118.75 105.437 99.1875 125 75 125Z" fill="#758BEA"></path> <path d="M68.75 50H81.25V87.5H68.75V50Z" fill="#758BEA"></path> </svg> 