<?xml version="1.0" encoding="UTF-8"?> <svg xmlns="http://www.w3.org/2000/svg" width="516" height="126" viewBox="0 0 516 126" fill="none"> <path d="M187.04 50.12C187.04 51.5 187.7 51.86 188.78 51.86H193.7C194.78 51.86 195.44 51.5 195.44 50.12V39.8C195.44 38.72 195.08 38.06 193.7 38.06H190.82V9.26C190.82 7.88 190.16 7.52 189.08 7.52H166.04C164.96 7.52 164.3 7.88 164.3 9.26L162.38 34.1C162.2 36.32 161.66 38.06 158.36 38.06C156.98 38.06 156.62 38.72 156.62 39.8V50.12C156.62 51.5 157.28 51.86 158.36 51.86H163.34C164.42 51.86 165.08 51.5 165.08 50.12V46.34H187.04V50.12ZM171.62 34.58L173.12 15.62H181.7V38.48H169.22C170.66 38 171.5 36.8 171.62 34.58ZM232.706 20.18C232.706 10.7 223.706 6.62 216.566 6.62C209.426 6.62 200.546 10.7 200.546 20.18V34.34C200.546 43.82 209.426 47.9 216.566 47.9C223.706 47.9 232.706 43.82 232.706 34.34V20.18ZM223.286 33.5C223.286 37.34 220.526 39.56 216.566 39.56C212.666 39.56 209.906 37.34 209.906 33.5V21.02C209.906 17.18 212.666 14.96 216.566 14.96C220.526 14.96 223.286 17.18 223.286 21.02V33.5ZM275.758 7.46H269.998C268.018 7.46 267.718 8.78 267.298 9.5L259.018 24.26L250.798 9.5C250.318 8.78 250.078 7.46 248.038 7.46H242.098C240.718 7.46 240.358 8.12 240.358 9.2V45.26C240.358 46.64 241.018 47 242.098 47H248.038C249.118 47 249.778 46.64 249.778 45.26V24.92L255.838 35.42C256.138 35.9 256.618 36.68 257.518 36.68H260.518C261.418 36.68 261.958 35.9 262.258 35.42L268.258 24.92V45.26C268.258 46.64 268.918 47 269.998 47H275.758C276.838 47 277.498 46.64 277.498 45.26V9.2C277.498 8.12 277.138 7.46 275.758 7.46ZM304.383 7.46C303.303 7.46 302.643 7.82 302.643 9.2V45.26C302.643 46.34 303.003 47 304.383 47H319.743C330.063 47 335.523 42.98 335.523 34.34C335.523 25.82 330.483 22.1 319.863 22.1H312.063V15.56H330.123C331.503 15.56 331.863 14.9 331.863 13.82V9.2C331.863 8.12 331.503 7.46 330.123 7.46H304.383ZM319.863 29.96C324.543 29.96 326.343 31.28 326.343 34.28C326.343 37.4 324.183 38.72 319.683 38.72H312.063V29.96H319.863ZM358.02 47C368.34 47 373.74 41.84 373.74 33.56C373.74 25.04 368.22 20.3 357.96 20.3H352.2V9.2C352.2 7.82 351.54 7.46 350.46 7.46H344.52C343.44 7.46 342.78 7.82 342.78 9.2V45.26C342.78 46.34 343.14 47 344.52 47H358.02ZM357.96 28.4C362.64 28.4 364.68 30.5 364.68 33.5C364.68 36.62 362.64 38.54 357.96 38.54H352.2V28.4H357.96ZM388.86 9.2C388.86 7.82 388.2 7.46 387.12 7.46H381.18C380.1 7.46 379.44 7.82 379.44 9.2V45.26C379.44 46.64 380.1 47 381.18 47H387.12C388.2 47 388.86 46.64 388.86 45.26V9.2ZM424.441 7.52H396.601C395.221 7.52 394.861 8.18 394.861 9.26V14.24C394.861 15.32 395.221 15.98 396.601 15.98H405.841V45.26C405.841 46.64 406.501 47 407.581 47H413.521C414.601 47 415.261 46.64 415.261 45.26V15.98H424.441C425.821 15.98 426.181 15.32 426.181 14.24V9.26C426.181 8.18 425.821 7.52 424.441 7.52ZM463.048 45.32L449.788 9.38C449.248 8.12 448.648 7.52 447.328 7.52H441.568C440.248 7.52 439.588 8.12 439.108 9.38L425.788 45.32C425.488 46.04 425.488 47 426.808 47H433.108C434.428 47 434.908 46.64 435.388 45.2L437.068 40.46H451.768L453.448 45.2C453.928 46.64 454.408 47 455.728 47H462.028C463.348 47 463.348 46.04 463.048 45.32ZM439.948 32.06L444.448 18.8L448.948 32.06H439.948ZM164.3 69.52H160.16C158.72 69.52 158.42 70.18 158.42 71.26V84.82C158.42 85.9 158.72 86.56 160.16 86.56H164.3C165.68 86.56 166.04 85.9 166.04 84.82V71.26C166.04 70.18 165.68 69.52 164.3 69.52ZM176.42 69.52H172.22C170.9 69.52 170.54 70.18 170.54 71.26V84.82C170.54 85.9 170.9 86.56 172.22 86.56H176.42C177.74 86.56 178.1 85.9 178.1 84.82V71.26C178.1 70.18 177.74 69.52 176.42 69.52ZM214.182 88.54C214.722 88.3 218.562 86.38 218.562 80.32C218.562 74.68 214.362 69.46 204.582 69.46H187.782C186.402 69.46 186.042 70.12 186.042 71.2V107.26C186.042 108.34 186.402 109 187.782 109H205.422C213.762 109 219.702 105.1 219.702 97.48C219.702 91 214.662 88.72 214.182 88.54ZM205.542 100.48H195.462V77.92H204.582C207.702 77.92 209.562 78.58 209.562 81.28C209.562 83.62 208.062 84.88 204.582 84.88H203.802C202.422 84.88 202.062 85.54 202.062 86.62V91.18C202.062 92.26 202.422 92.92 203.802 92.92H205.182C208.062 92.92 210.162 93.76 210.162 96.58C210.162 99.28 208.482 100.48 205.542 100.48ZM229.033 69.52C227.953 69.52 227.293 69.88 227.293 71.26V107.26C227.293 108.34 227.653 109 229.033 109H234.493C235.993 109 236.413 108.16 237.193 106.96L249.913 86.38V107.26C249.913 108.64 250.573 109 251.653 109H257.593C258.673 109 259.333 108.64 259.333 107.26V71.26C259.333 70.18 258.973 69.52 257.593 69.52H251.953C250.453 69.52 250.033 70.36 249.253 71.56L236.533 92.08V71.26C236.533 69.88 235.873 69.52 234.793 69.52H229.033ZM298.551 97.3C298.551 95.86 298.071 95.26 296.751 95.26H290.871C289.551 95.26 289.431 96.22 289.251 97.42C288.771 100.3 286.191 101.5 282.951 101.5C278.991 101.5 276.291 99.34 276.291 95.5V83.02C276.291 79.24 278.991 77.02 282.951 77.02C286.191 77.02 287.871 77.92 289.131 79.9C289.611 80.62 289.671 81.76 290.931 81.76H296.691C298.071 81.76 298.551 81.46 298.551 80.02C297.771 72.4 290.391 68.62 282.951 68.62C275.811 68.62 266.871 72.76 266.871 82.18V96.34C266.871 105.76 275.811 109.9 282.951 109.9C290.391 109.9 298.551 105.04 298.551 97.3ZM336.522 69.52H330.582C329.502 69.52 328.842 69.88 328.842 71.26V84.82H315.462V71.26C315.462 69.88 314.862 69.52 313.722 69.52H307.782C306.702 69.52 306.042 69.88 306.042 71.26V107.26C306.042 108.64 306.702 109 307.782 109H313.722C314.862 109 315.462 108.64 315.462 107.26V93.7H328.842V107.26C328.842 108.64 329.502 109 330.582 109H336.522C337.602 109 338.262 108.64 338.262 107.26V71.26C338.262 69.88 337.602 69.52 336.522 69.52ZM378.136 82.18C378.136 72.7 369.136 68.62 361.996 68.62C354.856 68.62 345.976 72.7 345.976 82.18V96.34C345.976 105.82 354.856 109.9 361.996 109.9C369.136 109.9 378.136 105.82 378.136 96.34V82.18ZM368.716 95.5C368.716 99.34 365.956 101.56 361.996 101.56C358.096 101.56 355.336 99.34 355.336 95.5V83.02C355.336 79.18 358.096 76.96 361.996 76.96C365.956 76.96 368.716 79.18 368.716 83.02V95.5ZM401.028 69.52H387.528C386.148 69.52 385.788 70.18 385.788 71.26V107.26C385.788 108.64 386.448 109 387.528 109H393.468C394.548 109 395.208 108.64 395.208 107.26V97.3H400.968C411.228 97.3 416.748 91.78 416.748 83.44C416.748 75.16 411.348 69.52 401.028 69.52ZM400.968 89.2H395.208V77.98H400.968C405.648 77.98 407.688 80.5 407.688 83.62C407.688 86.62 405.648 89.2 400.968 89.2ZM428.323 69.52H424.183C422.743 69.52 422.443 70.18 422.443 71.26V84.82C422.443 85.9 422.743 86.56 424.183 86.56H428.323C429.703 86.56 430.063 85.9 430.063 84.82V71.26C430.063 70.18 429.703 69.52 428.323 69.52ZM440.443 69.52H436.243C434.923 69.52 434.563 70.18 434.563 71.26V84.82C434.563 85.9 434.923 86.56 436.243 86.56H440.443C441.763 86.56 442.123 85.9 442.123 84.82V71.26C442.123 70.18 441.763 69.52 440.443 69.52Z" fill="#2C3A64"></path> <path fill-rule="evenodd" clip-rule="evenodd" d="M62.56 0C28.0269 0 0 28.0269 0 62.56C0 97.0931 28.0269 125.12 62.56 125.12C97.0931 125.12 125.12 97.0931 125.12 62.56C125.12 28.0269 97.0931 0 62.56 0ZM93.2144 84.3934L84.456 93.1518C83.2048 94.403 81.2654 94.403 80.0142 93.1518L58.6813 71.8189C51.049 74.509 42.1654 72.8824 36.0346 66.7515C32.7416 63.4423 30.6039 59.1592 29.9389 54.5383C29.274 49.9175 30.1173 45.2054 32.3435 41.1019L47.0451 55.8035L55.8661 46.9826L41.1645 32.3435C49.4224 27.9018 59.8699 29.0904 66.8141 36.0346C72.945 42.1654 74.5715 51.049 71.8814 58.6813L93.2144 80.0142C94.403 81.2029 94.403 83.2048 93.2144 84.3934V84.3934Z" fill="#F99746"></path> </svg> 