<?xml version="1.0" encoding="UTF-8"?> <svg xmlns="http://www.w3.org/2000/svg" width="1826" height="1145" viewBox="0 0 1826 1145" fill="none"> <path d="M1810.59 1052.16C1789.23 1121.39 1753.13 1161.37 1752.42 1162.98C1644.86 1162.98 77.9881 1163.36 77.0907 1160.59L76.9352 1160.23C76.9352 1160.23 76.7868 1159.89 76.7868 1159.72C76.5395 1159.14 35.1578 1091.97 13.2514 994.164C-17.7707 855.611 -9.71491 655.589 209.751 496.314C356.241 389.997 200.586 319.819 317.071 201.47C432.708 83.9903 557.454 180.248 685.245 168.901C741.368 164.002 785.993 138.672 825.008 98.9563C916.732 5.68236 1059.9 -12.9951 1189.58 7.4992C1314.97 27.3643 1435.87 84.7397 1507.27 159.591C1526.72 179.986 1615.15 285.49 1545.44 430.505C1501.43 522.068 1685.82 609.517 1751.34 714.074C1840.18 855.837 1835 973.076 1810.59 1052.16Z" fill="#DCEAFF"></path> <path d="M627.14 520.99V522.47C627.14 550.84 603.1 573.92 573.56 573.92H412.98C395.14 573.92 380.63 587.85 380.63 604.98V609.89C380.63 627.02 395.14 640.95 412.98 640.95H590.25C593.85 640.95 596.79 643.87 596.79 647.48C596.79 651.31 595.24 654.77 592.72 657.28C590.22 659.79 586.75 661.34 582.93 661.34H412.98C383.43 661.34 359.39 638.26 359.39 609.89V604.98C359.39 576.62 383.43 553.54 412.98 553.54H573.56C591.39 553.54 605.91 539.59 605.91 522.47V520.99C605.91 503.86 591.39 489.92 573.56 489.92H409.99C380.45 489.92 356.41 466.84 356.41 438.47V431.58C356.41 403.21 380.45 380.13 409.99 380.13H573.56C591.39 380.13 605.91 366.2 605.91 349.07C605.91 331.94 591.39 318 573.56 318H251.1C253.02 311.3 255.21 304.51 257.68 297.62H573.57C603.11 297.62 627.15 320.7 627.15 349.07C627.15 377.43 603.11 400.52 573.57 400.52H409.99C392.16 400.52 377.64 414.45 377.64 431.58V438.47C377.64 455.61 392.16 469.54 409.99 469.54H573.56C603.1 469.54 627.14 492.62 627.14 520.99Z" fill="#BDD1F9"></path> <path d="M1495.58 303.71H1221.06V309.88H1495.58V303.71Z" fill="#99B9FF"></path> <path d="M1217.89 305.89C1217.89 302.29 1220.8 299.38 1224.4 299.38C1228 299.38 1230.91 302.29 1230.91 305.89C1230.91 309.49 1227.99 312.4 1224.4 312.4C1220.81 312.4 1217.89 309.49 1217.89 305.89Z" fill="#99B9FF"></path> <path d="M1487.19 305.89C1487.19 302.29 1490.11 299.38 1493.7 299.38C1497.3 299.38 1500.21 302.29 1500.21 305.89C1500.21 309.49 1497.3 312.4 1493.7 312.4C1490.11 312.4 1487.19 309.49 1487.19 305.89Z" fill="#99B9FF"></path> <path d="M1468.91 303.88V516.14C1447.84 519.74 1392.83 516.65 1361.48 520.25C1330.12 523.85 1258.97 519.02 1258.97 519.02V304.86C1258.97 301.34 1261.81 298.5 1265.33 298.49C1296.57 298.44 1433.54 298.23 1463.22 298.19C1466.37 298.19 1468.91 300.73 1468.91 303.88Z" fill="#F99746"></path> <path d="M1468.91 433.47V516.13C1447.84 519.73 1392.83 516.64 1361.48 520.24C1330.12 523.84 1258.97 519.01 1258.97 519.01V439.46C1259.46 436.62 1259.74 434.97 1259.74 434.97C1259.74 434.97 1305.45 438.51 1346.06 435.94C1386.46 433.39 1435.01 439.99 1468.91 433.47Z" fill="#FFAF73"></path> <path d="M1297.47 482.05C1280.29 482.05 1260.21 481.22 1259.08 481.18L1259.29 476.05C1259.66 476.06 1296.37 477.57 1313 476.57L1316.92 476.33C1337.07 475.08 1378.99 472.48 1396.51 475.4C1414.51 478.4 1470.06 474.72 1470.62 474.68L1470.96 479.81C1468.65 479.97 1414.24 483.56 1395.66 480.47C1378.72 477.65 1335.63 480.32 1317.24 481.46L1313.31 481.7C1308.98 481.95 1303.4 482.05 1297.47 482.05Z" fill="white"></path> <path d="M1297.47 493.36C1280.29 493.36 1260.21 492.53 1259.08 492.49L1259.29 487.35C1259.66 487.36 1296.37 488.87 1313 487.87L1316.92 487.63C1337.07 486.38 1378.99 483.78 1396.51 486.7C1414.51 489.7 1470.06 486.02 1470.62 485.99L1470.96 491.12C1468.65 491.27 1414.25 494.87 1395.66 491.78C1378.72 488.95 1335.63 491.63 1317.24 492.77L1313.31 493.01C1308.98 493.26 1303.4 493.36 1297.47 493.36Z" fill="white"></path> <path d="M1142.49 247.91H888.13V571.85H1142.49V247.91Z" fill="#99B9FF"></path> <path d="M1132.18 258.05H898.44V562.97H1132.18V258.05Z" fill="#BDD1F9"></path> <path d="M612.52 751.98H298.22V1138.88H612.52V751.98Z" fill="#BDD1F9"></path> <path d="M612.52 809.67H298.22V814.92H612.52V809.67Z" fill="#AEC3FF"></path> <path d="M391.22 804.55H307.68V759.9H391.22V804.55V804.55ZM308.73 803.5H390.17V760.95H308.73V803.5Z" fill="#AEC3FF"></path> <path d="M436.67 782.23C436.67 773.96 443.37 767.26 451.64 767.26C459.91 767.26 466.61 773.96 466.61 782.23C466.61 790.5 459.91 797.2 451.64 797.2C443.37 797.2 436.67 790.49 436.67 782.23Z" fill="#AEC3FF"></path> <path d="M477.13 782.23C477.13 775.49 482.59 770.02 489.33 770.02C496.07 770.02 501.53 775.48 501.53 782.23C501.53 788.97 496.07 794.43 489.33 794.43C482.59 794.43 477.13 788.97 477.13 782.23Z" fill="#AEC3FF"></path> <path d="M587.54 767.88H520.64V796.58H587.54V767.88Z" fill="#AEC3FF"></path> <path d="M451.64 1075.15C515.954 1075.15 568.09 1023.01 568.09 958.7C568.09 894.386 515.954 842.25 451.64 842.25C387.326 842.25 335.19 894.386 335.19 958.7C335.19 1023.01 387.326 1075.15 451.64 1075.15Z" fill="#AEC3FF"></path> <path d="M456.32 1052.23C507.974 1049.67 547.776 1005.73 545.222 954.076C542.667 902.422 498.722 862.62 447.068 865.175C395.414 867.729 355.612 911.674 358.166 963.328C360.721 1014.98 404.666 1054.78 456.32 1052.23Z" fill="#95B1EF"></path> <path d="M543.7 983.88H537.41C529.62 983.88 523.25 977.51 523.25 969.72V957.13C523.25 949.34 529.62 942.97 537.41 942.97H543.7C551.49 942.97 557.86 949.34 557.86 957.13V969.72C557.87 977.51 551.49 983.88 543.7 983.88Z" fill="#AEC3FF"></path> <path d="M1203.41 746.74H854.44V1138.23H1203.41V746.74Z" fill="#BDD1F9"></path> <path d="M1203.41 866.84H854.44V871.47H1203.41V866.84Z" fill="#AEC3FF"></path> <path d="M1059.6 767.88H1003.09C1001.23 767.88 999.7 766.35 999.7 764.49V763.51C999.7 761.65 1001.23 760.12 1003.09 760.12H1059.6C1061.46 760.12 1062.99 761.65 1062.99 763.51V764.49C1062.99 766.35 1061.46 767.88 1059.6 767.88Z" fill="#AEC3FF"></path> <path d="M1203.41 1008.91H854.44V1013.54H1203.41V1008.91Z" fill="#AEC3FF"></path> <path d="M1059.6 888.8H1003.09C1001.23 888.8 999.7 887.27 999.7 885.41V884.43C999.7 882.56 1001.23 881.04 1003.09 881.04H1059.6C1061.46 881.04 1062.99 882.57 1062.99 884.43V885.41C1062.99 887.28 1061.46 888.8 1059.6 888.8Z" fill="#AEC3FF"></path> <path d="M1059.6 1037.21H1003.09C1001.23 1037.21 999.7 1035.68 999.7 1033.82V1032.84C999.7 1030.98 1001.23 1029.45 1003.09 1029.45H1059.6C1061.46 1029.45 1062.99 1030.98 1062.99 1032.84V1033.82C1062.99 1035.68 1061.46 1037.21 1059.6 1037.21Z" fill="#AEC3FF"></path> <path d="M1222.67 726.33H832.7V751.98H1222.67V726.33Z" fill="#95B1EF"></path> <path d="M1010.6 670.42C1006.31 670.42 1002.81 666.91 1002.81 662.63V591.72C1002.81 587.43 1006.32 583.93 1010.6 583.93C1014.89 583.93 1018.39 587.44 1018.39 591.72V662.63C1018.39 666.92 1014.88 670.42 1010.6 670.42Z" fill="#95B1EF"></path> <path d="M969.29 631.71C969.29 631.71 988.13 624.63 994.48 628.93C1000.83 633.24 992.51 646.6 987.47 647.48C982.43 648.36 967.76 646.17 967.76 646.17L969.29 631.71Z" fill="#FFB27D"></path> <path d="M972.33 640.72C975.29 632.66 972.79 628.65 972.79 628.65C972.79 628.65 903.46 615.22 897 610.92C890.54 606.62 832.05 525.51 832.05 525.51L740.14 534.07C740.14 534.07 854.79 630.38 871.38 640.96C898.79 658.43 965.05 648.48 965.05 648.48C965.05 648.48 970 647.05 972.33 640.72Z" fill="#ED7D2B"></path> <path d="M970.064 652.939L976.49 658.238L1004.59 624.169L998.158 618.869L970.064 652.939Z" fill="#35488B"></path> <path d="M1005.22 606.82C1005.2 606.85 1005.22 606.82 1005.2 606.85C1003.42 609.67 1002.75 613.29 1005.07 615.68C1008.17 618.88 1011.89 617.64 1014.64 614.3C1014.65 614.29 1015.34 613.45 1015.36 613.43C1016.31 612.26 1018.87 614.8 1018.7 616.3C1018.4 619 1017.18 621.63 1015 623.7C1011.02 627.49 1004.83 628.04 1000.23 625.03C994.13 621.04 993 612.78 997.5 607.31C998.76 605.78 1000.32 604.65 1002.02 603.92C1003.66 603.22 1006.2 605.32 1005.22 606.82Z" fill="#35488B"></path> <path d="M969.95 671.47C969.97 671.44 969.95 671.47 969.97 671.44C971.75 668.63 972.42 665 970.1 662.61C967 659.41 963.28 660.65 960.53 663.99C960.52 664.01 959.83 664.84 959.81 664.86C958.86 666.03 956.3 663.49 956.47 661.99C956.77 659.29 957.99 656.66 960.17 654.59C964.16 650.8 970.34 650.25 974.94 653.26C981.04 657.25 982.17 665.51 977.67 670.98C976.41 672.51 974.85 673.64 973.15 674.37C971.51 675.07 968.97 672.97 969.95 671.47Z" fill="#35488B"></path> <path d="M994.48 628.93C994.48 628.93 983.52 628.59 983.17 634.02C982.82 639.45 981.97 647.79 987.47 647.47C992.98 647.16 1008.42 634.7 994.48 628.93Z" fill="#FFB27D"></path> <path d="M1032.81 639.71C1032.81 639.71 1101.97 576.74 1128.73 612.02C1135.71 621.22 1120.55 632.14 1109.64 633.83C1090.15 636.84 1057.89 626.76 1032.81 639.71Z" fill="#758BEA"></path> <path d="M1143.75 670.42C1143.75 694.39 1117.85 715.3 1079.42 726.4H953.13C914.71 715.3 888.81 694.39 888.81 670.42H1143.75Z" fill="#BDD1F9"></path> <path d="M1150.04 670.42H882.52C879.43 670.42 876.91 667.89 876.91 664.81C876.91 661.72 879.43 659.2 882.52 659.2H1150.04C1153.13 659.2 1155.65 661.72 1155.65 664.81C1155.65 667.9 1153.12 670.42 1150.04 670.42Z" fill="#A2C5FC"></path> <path d="M1061.83 681.68C1061.83 681.68 1066.47 707.79 1053.73 714.89C1040.98 722 1030.92 706.89 1042.1 700.08C1053.27 693.27 1057.73 693.58 1061.83 681.68Z" fill="#758BEA"></path> <path d="M1062.77 659.2C1062.77 659.2 1097.94 663.89 1111.77 690.22C1125.6 716.55 1136.58 753.51 1108.33 759.18C1080.08 764.85 1066.97 750.44 1075.75 717.27C1088.15 670.42 1062.77 659.2 1062.77 659.2Z" fill="#758BEA"></path> <path d="M557.52 1080.82C557.52 1080.82 545.14 1092.3 547.55 1100.45C549.97 1108.6 561.14 1114.04 562.65 1124.01C564.16 1133.98 570.2 1139.41 575.64 1139.41C581.08 1139.41 601.56 1139.41 601.56 1139.41C601.56 1139.41 605.56 1132.4 595.9 1130.28C586.24 1128.17 582.59 1116.46 583.2 1105.58C583.8 1094.71 582.29 1080.21 582.29 1080.21L561.75 1075.38L557.52 1080.82Z" fill="#2C3A64"></path> <path d="M709.42 1110.16C709.42 1110.16 706.53 1136.28 711.97 1138.99H782.08C782.08 1138.99 782.21 1130.69 771.03 1128.88C759.86 1127.07 740.23 1120.42 736.91 1105.63C733.58 1090.83 709.42 1110.16 709.42 1110.16Z" fill="#2C3A64"></path> <path d="M768.16 739.02C768.16 739.02 764.49 784.8 760.18 839.83C754.32 914.58 747.27 1006.41 746.57 1023.8C745.36 1054.01 740.53 1102.32 740.53 1102.32C740.53 1102.32 729.06 1113.8 706.1 1108.96C706.1 1108.96 685.64 1039.99 679.8 967.01C679.71 965.81 679.62 964.61 679.53 963.4C674.09 889.11 665.64 732.67 665.64 732.67L768.16 739.02Z" fill="#35488B"></path> <path d="M768.16 739.02C768.16 739.02 764.49 784.8 760.18 839.83L679.8 967.01C679.71 965.81 679.62 964.61 679.53 963.4C674.09 889.11 665.64 732.67 665.64 732.67L768.16 739.02Z" fill="#2C3A64"></path> <path d="M751.4 744.45C751.4 744.45 748 752.97 742.25 767.06C728.81 799.88 702.53 862.94 676.5 918.82C664.44 944.72 652.43 969.07 641.78 988.16C598.29 1066.09 584.7 1087.83 584.7 1087.83C584.7 1087.83 584.07 1087.58 583.03 1087.13C578.52 1085.23 566.02 1079.7 560.3 1074.63C558.91 1073.39 557.91 1072.19 557.53 1071.06C557.53 1071.06 574.16 920.65 603.28 883.98C619.73 863.26 639.06 801.08 639.97 779.35C640.37 769.76 641.57 756.05 642.78 743.69C643.86 732.53 644.98 722.5 645.52 717.65C645.75 715.68 645.87 714.57 645.87 714.57L722.23 736.2L751.4 744.45Z" fill="#35488B"></path> <path d="M735.86 765.77C701.66 763.99 686.46 760.19 666.88 755.39C655.1 752.51 647.32 746.45 642.77 743.68C643.85 732.52 644.97 722.49 645.51 717.64L676.22 733.35L735.86 765.77Z" fill="#2C3A64"></path> <path d="M780.54 483.45C780.54 483.45 807.53 530.93 833.9 537.13C833.9 537.13 833.1 525.47 828.85 515.26C827.49 512 828.11 508.25 830.33 505.51C831.39 504.2 832.39 502.95 833.32 501.77C839.96 493.26 843.12 488.05 843.12 488.05L834.17 463.98L828.1 447.65C825.18 452.95 821.96 457.46 818.61 461.33C801.31 481.21 780.54 483.45 780.54 483.45Z" fill="#FFB27D"></path> <path d="M818.6 461.33C818.6 461.33 815.38 485.12 833.32 501.76C839.96 493.25 843.12 488.04 843.12 488.04L834.17 463.97C824.56 461.06 818.6 461.33 818.6 461.33Z" fill="#ED975D"></path> <path d="M850.22 491.56C850.22 491.56 809.9 475.84 820.08 450.88C830.25 425.92 831.9 407.08 858.08 416.07C884.25 425.05 885.34 436.6 883.97 445.76C882.6 454.91 860.97 495 850.22 491.56Z" fill="#FFB27D"></path> <path d="M827.16 597.25C822.78 609.9 817.03 622.87 810.31 635.13C808.99 637.55 807.69 639.94 806.48 642.31C805.66 643.88 804.88 645.45 804.11 647C789.4 676.66 782.62 702.38 779.69 722.58C779.13 726.47 778.7 730.14 778.4 733.61C777.07 748.43 638.5 700.18 642.97 679.45C645.92 665.8 649.94 651.46 653.71 639.24C659.2 621.34 664.12 607.99 664.12 607.99C690.04 546.31 726.83 513.1 755.49 495.57C760.68 492.38 765.6 489.71 770.15 487.5C787.56 478.96 799.41 476.83 799.41 476.83C799.41 476.83 805.34 506.46 830.75 518.21C830.78 518.3 834.72 534.3 834.74 534.37C838.98 549.6 835.6 572.9 827.16 597.25Z" fill="#F99746"></path> <path d="M814.29 404.52C814.01 403.96 813.19 403.37 811.19 402.75C811.19 402.75 813.07 402.12 815.25 402.6C816.38 399.84 819.13 395.13 824.29 395.1C824.29 395.1 821.33 395.87 820.24 398.83C827.31 394.35 840.42 393.04 873.15 403.95C916.28 418.32 894.73 443.35 888.2 445.36C881.66 447.37 869.63 434.49 858.8 432.73C847.98 430.97 842.12 446.05 838 447.3C833.87 448.55 836.22 445.12 831.9 441.68C827.58 438.24 825.1 446.33 825.19 452C825.28 457.68 816.86 463.06 816.86 463.06C816.86 463.06 816.86 463.06 811.92 454C806.98 444.94 808.32 412.03 813.04 406.11C813.45 405.58 813.87 405.05 814.29 404.52Z" fill="#2B478B"></path> <path d="M741.73 574.73C741.73 574.73 746.37 609.85 762.06 636.44C777.75 663.02 784.7 621.65 784.7 621.65L741.73 574.73Z" fill="#ED7D2B"></path> <path d="M804.1 647C789.39 676.66 782.61 702.38 779.68 722.58C779.12 726.47 778.69 730.14 778.39 733.61C777.06 748.43 777.82 759.34 778.37 765.54C779.8 781.72 658.21 750.48 641.94 727.09C633 714.21 644.22 670.01 653.69 639.24C655.28 639.62 730.66 657.56 782.81 610.92L804.1 647Z" fill="#35488B"></path> <path d="M813.34 563.52L805.83 548.54C805.85 548.28 806.65 522.1 790.94 506.74C782.47 498.44 770.55 494.7 755.47 495.57C760.66 492.38 765.58 489.71 770.13 487.5C780.9 489.16 789.91 493.53 797.08 500.56C815.54 518.64 813.39 562.3 813.34 563.52Z" fill="#2C3A64"></path> <path d="M917.04 666.66C917.04 666.66 940.69 662.42 944.61 662.88C948.54 663.34 962.03 669.75 962.16 670.87C962.29 671.99 961.59 672.87 959.21 672.92C956.82 672.97 949.04 671.59 949.49 672.56C949.94 673.53 972.29 679.04 972.33 683.59C972.36 688.14 959.6 696 949.13 696.07C938.66 696.14 918.7 683.03 916.95 682.8C902.08 680.79 917.04 666.66 917.04 666.66Z" fill="#FFB27D"></path> <path d="M921.47 676.3C921.93 671.63 917.04 666.67 917.04 666.67C917.04 666.67 846.85 647.36 841.04 641.5C835.23 635.64 808.32 542.3 808.32 542.3C808.32 542.3 799.06 504.52 777.37 500.36C758.52 496.74 745.5 506.07 736.97 517C726.81 530.03 725.82 547.99 734.25 562.2C753.17 594.08 791.34 657.38 802.49 668.19C827.3 692.26 916.94 687.29 916.94 687.29C916.94 687.29 920.54 685.67 921.47 676.3Z" fill="#F99746"></path> <path d="M1287.9 923.539C1287.9 923.539 1219.07 939.289 1219.07 984.469C1219.07 984.469 1219.77 1007.22 1244.46 1000.93C1263.73 996.029 1242.19 969.259 1287.9 923.539Z" fill="#8C9DF4"></path> <path d="M1283.75 917.759C1283.75 917.759 1235.13 908.059 1230.66 919.429C1223.75 936.949 1257.49 913.879 1283.75 917.759Z" fill="#8C9DF4"></path> <path d="M1801.06 1143.52H21.9428C20.8759 1143.52 19.9998 1142.64 19.9998 1141.58V1141.08C19.9998 1140.02 20.8759 1139.14 21.9428 1139.14H1801.06C1802.12 1139.14 1803 1140.02 1803 1141.08V1141.58C1803.01 1142.64 1802.13 1143.52 1801.06 1143.52Z" fill="#233862"></path> <path d="M1338.52 919.989C1338.52 919.989 1368.03 953.999 1356.31 975.469C1354.67 978.469 1351.22 983.679 1341.76 980.269C1332.3 976.849 1343.77 964.439 1343.34 948.749C1342.99 936.289 1338.52 919.989 1338.52 919.989Z" fill="#8C9DF4"></path> <path d="M1313.31 913.34C1320.99 914.55 1338.86 909.21 1340.16 909.09C1351.24 908.03 1340.55 897.12 1340.55 897.12C1340.55 897.12 1323.13 893.29 1320.21 893.52C1319.25 893.6 1317.67 893.91 1315.96 894.33L1318.95 897.25C1318.95 897.25 1304.44 898.78 1304.28 902.15C1304.13 905.54 1306.61 912.29 1313.31 913.34Z" fill="#FFB27D"></path> <path d="M1320.22 893.52L1307.88 895.02C1307.88 898.26 1317.37 897.2 1317.84 898.8C1318.3 900.4 1320.49 896.57 1320.49 896.57L1320.22 893.52Z" fill="#FFB27D"></path> <path d="M1435.3 894.51C1435.3 894.51 1418.7 896.13 1419.77 897.89C1420.84 899.65 1428.12 900.42 1428.12 900.42L1433.96 896.67L1435.3 894.51Z" fill="#FFB27D"></path> <path d="M1337.14 902.52C1334.47 894.8 1338.19 892.39 1338.19 892.39C1338.19 892.39 1414.25 856.32 1420.47 852.35C1426.69 848.38 1468.51 772.22 1468.51 772.22C1468.51 772.22 1484.01 741.08 1503.75 741.71C1520.91 742.25 1530.44 752.95 1535.73 764.16C1542.03 777.52 1539.37 793.39 1529.23 804.13C1506.45 828.23 1460.72 875.96 1448.87 883.2C1422.5 899.32 1343.46 912.36 1343.46 912.36C1343.46 912.36 1339.24 908.58 1337.14 902.52Z" fill="#E58638"></path> <path d="M1348.27 985.18C1359.75 998.41 1383.96 1006.96 1430.67 1009.13C1434.42 1009.31 1438.19 1009.45 1441.98 1009.57C1445.88 1009.69 1449.79 1009.77 1453.7 1009.82C1466.39 1010 1479.02 1009.85 1491.06 1009.45C1502.73 1009.05 1513.85 1008.41 1523.92 1007.57C1543.62 1005.93 1559.34 1003.55 1567.46 1000.82C1569.89 1000 1571.64 999.16 1572.62 998.28C1573.45 997.54 1574.13 996.66 1574.64 995.67C1577.59 990.21 1576.05 981.25 1572.49 971.38C1567.3 957.01 1557.78 940.73 1551.37 930.53C1550.08 928.49 1548.94 926.71 1547.96 925.23C1546.01 922.24 1544.79 920.49 1544.79 920.49C1544.79 920.49 1522.97 922.52 1493.1 926.39C1487.01 927.18 1480.57 928.05 1473.92 928.99C1409.7 938.07 1345.71 954.4 1345.77 976.06C1345.78 979.34 1345.56 982.06 1348.27 985.18Z" fill="#2B478B"></path> <path d="M1427.79 1008.86C1431.69 1008.98 1449.79 1009.76 1453.7 1009.81C1466.39 1009.99 1479.02 1009.84 1491.06 1009.44L1502.38 963.83C1484.87 988.26 1433.42 1007.29 1427.79 1008.86Z" fill="#2C3A64"></path> <path d="M1465.62 1141.33H1403.36C1404.34 1138.96 1406.71 1135.87 1412.49 1134.86C1422.3 1133.14 1439.32 1127.84 1437.14 1113.68C1434.93 1099.33 1458.81 1097.48 1458.81 1097.48C1458.81 1097.48 1468.74 1135.87 1465.62 1141.33Z" fill="#2C3A64"></path> <path d="M1347.26 982.84C1347.26 982.84 1424.49 1104.34 1430.92 1118.78C1430.92 1118.78 1457.2 1121.23 1463.52 1102.45C1463.52 1102.45 1417.61 974.23 1397.43 963.66C1377.25 953.09 1347.26 982.84 1347.26 982.84Z" fill="#2B478B"></path> <path d="M1503.01 727.03C1503.01 727.03 1476.42 763.43 1452.71 765.38C1452.71 765.38 1454.41 757.67 1458.22 750.18C1460.66 745.36 1460.61 739.67 1457.94 734.97C1457.9 734.9 1457.86 734.83 1457.82 734.76C1453.16 726.51 1451.1 721.58 1451.1 721.58L1462 701.85L1464.25 691.24C1466.09 696.22 1468.25 700.81 1470.66 704.6C1483.08 724.1 1503.01 727.03 1503.01 727.03Z" fill="#FFB27D"></path> <path d="M1471.7 704.4C1471.7 704.4 1475.56 722.64 1457.82 734.75C1453.16 726.5 1451.1 721.57 1451.1 721.57L1462 701.84C1470.71 700.55 1471.7 704.4 1471.7 704.4Z" fill="#ED975D"></path> <path d="M1447.77 732.57C1447.77 732.57 1481.13 714.4 1469.49 693.79C1457.85 673.19 1454.32 656.97 1432.53 667.7C1410.74 678.43 1411.08 688.61 1413.29 696.43C1415.5 704.25 1438.8 736.76 1447.77 732.57Z" fill="#FFB27D"></path> <path d="M1469.38 652.77C1469.56 652.25 1470.21 651.64 1471.89 650.89C1471.89 650.89 1470.18 650.55 1468.34 651.21C1467.05 648.93 1464.13 645.14 1459.63 645.68C1459.63 645.68 1462.29 646.02 1463.57 648.48C1456.91 645.36 1445.35 645.69 1418.07 658.82C1382.11 676.13 1403.66 695.53 1409.58 696.55C1415.5 697.57 1424.54 685.01 1433.77 682.28C1443 679.54 1449.78 692.02 1453.51 692.65C1457.24 693.28 1454.82 690.55 1458.2 687.08C1461.58 683.61 1464.64 690.37 1465.19 695.32C1465.74 700.27 1471.71 704.39 1471.71 704.39C1471.71 704.39 1473.68 704.02 1476.97 695.58C1480.26 687.14 1475.43 658.63 1470.66 654C1470.23 653.61 1469.81 653.19 1469.38 652.77Z" fill="#2B478B"></path> <path d="M1668.57 1101.61C1668.57 1101.61 1676.33 1113.39 1678.14 1117.2C1679.94 1121.02 1676.4 1129.14 1671.08 1130.36C1666.39 1131.44 1665.69 1139.76 1665.69 1139.76H1688.44C1690.85 1139.76 1693.02 1138.43 1693.95 1136.39C1697.16 1129.33 1697.89 1120.15 1698.54 1117.07C1699.9 1110.61 1702.58 1105.19 1701.4 1098.62C1700.22 1092.07 1689.01 1088.27 1668.58 1088.33C1646.13 1088.41 1668.57 1101.61 1668.57 1101.61Z" fill="#233862"></path> <path d="M1601.68 959.6C1584.52 977.78 1458.55 940.17 1469.11 930.59C1471.8 928.16 1470.88 925.23 1471.97 921.31C1477.2 902.71 1466.79 870.89 1462.33 858.56C1461.29 855.7 1460.57 853.89 1460.44 853.53C1456.18 842.02 1452.89 830.03 1450.73 818.44C1446.58 796.21 1446.65 775.54 1452.33 762.88C1452.37 762.81 1452.38 762.75 1452.42 762.71C1476.02 755.81 1489.01 721.1 1489.01 721.1C1489.01 721.1 1563.77 742.33 1590.9 849.01C1590.9 849.01 1592.3 855.81 1594.03 866.02H1594.04C1594.56 869.15 1595.12 872.61 1595.68 876.29C1598.58 895.27 1600.26 919.61 1601.98 937.74C1602.05 938.37 1602.1 939.01 1602.17 939.66C1603.03 947.46 1604.53 956.58 1601.68 959.6Z" fill="#F99746"></path> <path d="M1502.48 941.56C1502.48 941.56 1515.04 943.21 1540.37 945.08C1566.62 947.02 1594.44 951.16 1598.96 959.98C1600.46 962.9 1599.41 970.29 1596.49 980.5C1590.02 1003.07 1574.33 1039.41 1556.42 1071.63C1602.43 1074.29 1665.03 1084.45 1665.03 1084.45C1675.27 1096.03 1670.98 1109.58 1670.98 1109.58C1667.7 1109.61 1657.82 1111 1644.35 1113.18C1595.53 1121.04 1536.07 1137.2 1499.21 1137.2C1491.15 1137.2 1485.11 1131.47 1482.66 1123.99V1123.98C1467.5 1077.86 1502.48 941.56 1502.48 941.56Z" fill="#2B478B"></path> <path d="M1596.49 983.92C1571.09 983.12 1507.4 951.85 1508.44 951.6C1520.3 948.68 1530.91 946.66 1540.38 945.39C1566.63 947.51 1594.45 952.01 1598.97 961.6C1600.45 964.78 1599.41 972.81 1596.49 983.92Z" fill="#2C3A64"></path> <path d="M1501.55 726.29C1501.55 726.29 1469.59 732.94 1466.47 760.94C1464.2 781.33 1480.39 827.52 1480.39 827.52L1490.74 823.27C1490.74 823.27 1471.17 766.25 1474.18 756.55C1478.04 744.11 1496.41 725.51 1513.31 732.94L1501.55 726.29Z" fill="#2B478B"></path> <path d="M1601.68 959.6C1584.52 977.78 1455.84 940.57 1466.39 930.99C1469.07 928.56 1470.87 925.23 1471.96 921.31C1477.19 902.71 1466.78 870.89 1462.32 858.56C1461.28 855.7 1451.44 821.82 1451.3 821.46L1487.53 813.62C1487.53 813.62 1497.78 831.27 1511.09 840.33C1528.54 852.22 1556.75 865.96 1594.02 866.02H1594.03C1594.55 869.15 1595.11 872.61 1595.67 876.29C1598.57 895.27 1600.25 919.61 1601.97 937.74C1602.04 938.37 1602.09 939.01 1602.16 939.66C1603.03 947.46 1604.53 956.58 1601.68 959.6Z" fill="#2B478B"></path> <path d="M1328.54 1138.23H1303.6V860.29C1303.6 840.85 1287.79 825.03 1268.35 825.03H1203.42V800.09H1268.35C1301.54 800.09 1328.55 827.09 1328.55 860.29V1138.23H1328.54Z" fill="#BDD1F9"></path> <path d="M1259.18 797.2H1254.68V829.07H1259.18V797.2Z" fill="#91B5F8"></path> <path d="M1332.98 883.241V878.741H1301.11V883.241H1332.98Z" fill="#91B5F8"></path> <path d="M1332.97 936.748V932.248H1301.1V936.748H1332.97Z" fill="#91B5F8"></path> <path d="M1330.55 1101H1300.41V1138.22H1330.55V1101Z" fill="#91B5F8"></path> <path d="M1332.33 873.37L1449.49 919.41C1451.83 920.33 1454.48 919.18 1455.4 916.84L1456.17 914.87C1456.95 912.89 1455.97 910.66 1454 909.88L1336.18 863.58L1332.33 873.37Z" fill="#2B478B"></path> <path d="M1320.96 869.52L1323.57 870.54L1324.36 864.61C1325.04 859.51 1330.17 856.3 1334.75 858.1L1368.97 871.55L1372.36 862.92L1329.02 845.89C1324.8 844.23 1320.05 847.05 1319.2 851.72L1317.24 862.56C1316.7 865.55 1318.25 868.46 1320.96 869.52Z" fill="#2B478B"></path> <path d="M1344.68 870.564L1366.08 878.971L1370.89 866.742L1349.49 858.334L1344.68 870.564Z" fill="#2B478B"></path> <path d="M1363.19 871.46C1363.48 870.71 1363.12 869.87 1362.37 869.58C1361.62 869.29 1360.78 869.65 1360.49 870.4C1360.2 871.15 1360.57 871.99 1361.31 872.28C1362.06 872.57 1362.9 872.2 1363.19 871.46Z" fill="#6C7AFF"></path> <path d="M1354.56 868.07C1354.85 867.33 1354.49 866.48 1353.74 866.19C1352.99 865.9 1352.15 866.26 1351.86 867.01C1351.57 867.76 1351.93 868.6 1352.68 868.89C1353.43 869.18 1354.27 868.81 1354.56 868.07Z" fill="#6C7AFF"></path> <path d="M1459.9 893.05C1459.9 893.05 1454.16 894.4 1448.01 894.6C1442.47 894.78 1436.61 893.76 1433.96 894.87C1428.35 897.21 1410.58 909.42 1419.16 914.65C1427.74 919.88 1436.58 918.05 1442.45 913.3C1448.31 908.55 1464.25 908.16 1464.25 908.16L1459.9 893.05Z" fill="#FFB27D"></path> <path d="M1519.62 751.98C1558.15 763.1 1581.61 855.56 1576.19 883.24C1570.76 910.91 1462 912.36 1462 912.36C1462 912.36 1455.89 907.58 1455.17 902.64C1454.25 896.34 1455.24 893.44 1455.24 893.44C1455.24 893.44 1524.01 874.77 1525.58 866.83C1527.15 858.89 1492.48 816.8 1493 793.98C1493.53 771.16 1498.63 745.92 1519.62 751.98Z" fill="#F99746"></path> <path d="M1372.67 1138.23C1372.67 1138.23 1357.76 1114.65 1315.48 1119.62C1273.19 1124.58 1243.07 1147.32 1142.19 1121.94C1041.31 1096.56 1050.42 1142.1 992.97 1132.29C935.53 1122.48 910.31 1138.23 910.31 1138.23H1372.67Z" fill="#8C9DF4"></path> <path d="M1265.98 797.2C1265.98 797.2 1277.53 771.37 1299.78 776.08C1299.78 776.08 1305.49 777.51 1304.06 783.35C1302.63 789.19 1285.23 781.24 1265.98 797.2Z" fill="#8C9DF4"></path> </svg> 