<?xml version="1.0" encoding="UTF-8"?> <svg xmlns="http://www.w3.org/2000/svg" width="1826" height="1163" viewBox="0 0 1826 1163" fill="none"> <path d="M1810.59 1052.16C1789.23 1121.39 1753.13 1161.37 1752.42 1162.98C1644.86 1162.98 77.9881 1163.36 77.0907 1160.59L76.9352 1160.23C76.9352 1160.23 76.7868 1159.89 76.7868 1159.72C76.5395 1159.14 35.1578 1091.97 13.2514 994.164C-17.7707 855.611 -9.71491 655.589 209.751 496.314C356.241 389.997 200.586 319.819 317.071 201.47C432.708 83.9903 557.454 180.248 685.245 168.901C741.368 164.002 785.993 138.672 825.008 98.9563C916.732 5.68236 1059.9 -12.9951 1189.58 7.4992C1314.97 27.3643 1435.87 84.7397 1507.27 159.591C1526.72 179.986 1615.15 285.49 1545.44 430.505C1501.43 522.068 1685.82 609.517 1751.34 714.074C1840.18 855.837 1835 973.076 1810.59 1052.16Z" fill="#DCEAFF"></path> <path d="M674.14 520.99V522.47C674.14 550.84 650.1 573.92 620.56 573.92H459.98C442.14 573.92 427.63 587.85 427.63 604.98V609.89C427.63 627.02 442.14 640.95 459.98 640.95H637.25C640.85 640.95 643.79 643.87 643.79 647.48C643.79 651.31 642.24 654.77 639.72 657.28C637.22 659.79 633.75 661.34 629.93 661.34H459.98C430.43 661.34 406.39 638.26 406.39 609.89V604.98C406.39 576.62 430.43 553.54 459.98 553.54H620.56C638.39 553.54 652.91 539.59 652.91 522.47V520.99C652.91 503.86 638.39 489.92 620.56 489.92H456.99C427.45 489.92 403.41 466.84 403.41 438.47V431.58C403.41 403.21 427.45 380.13 456.99 380.13H620.56C638.39 380.13 652.91 366.2 652.91 349.07C652.91 331.94 638.39 318 620.56 318H298.1C300.02 311.3 302.21 304.51 304.68 297.62H620.57C650.11 297.62 674.15 320.7 674.15 349.07C674.15 377.43 650.11 400.52 620.57 400.52H456.99C439.16 400.52 424.64 414.45 424.64 431.58V438.47C424.64 455.61 439.16 469.54 456.99 469.54H620.56C650.1 469.54 674.14 492.62 674.14 520.99Z" fill="#BDD1F9"></path> <path d="M1495.58 303.71H1221.06V309.88H1495.58V303.71Z" fill="#99B9FF"></path> <path d="M1217.89 305.89C1217.89 302.29 1220.8 299.38 1224.4 299.38C1228 299.38 1230.91 302.29 1230.91 305.89C1230.91 309.49 1227.99 312.4 1224.4 312.4C1220.81 312.4 1217.89 309.49 1217.89 305.89Z" fill="#99B9FF"></path> <path d="M1487.19 305.89C1487.19 302.29 1490.11 299.38 1493.7 299.38C1497.3 299.38 1500.21 302.29 1500.21 305.89C1500.21 309.49 1497.3 312.4 1493.7 312.4C1490.11 312.4 1487.19 309.49 1487.19 305.89Z" fill="#99B9FF"></path> <path d="M1468.91 303.88V516.14C1447.84 519.74 1392.83 516.65 1361.48 520.25C1330.12 523.85 1258.97 519.02 1258.97 519.02V304.86C1258.97 301.34 1261.81 298.5 1265.33 298.49C1296.57 298.44 1433.54 298.23 1463.22 298.19C1466.37 298.19 1468.91 300.73 1468.91 303.88Z" fill="#F99746"></path> <path d="M1468.91 433.47V516.13C1447.84 519.73 1392.83 516.64 1361.48 520.24C1330.12 523.84 1258.97 519.01 1258.97 519.01V439.46C1259.46 436.62 1259.74 434.97 1259.74 434.97C1259.74 434.97 1305.45 438.51 1346.06 435.94C1386.46 433.39 1435.01 439.99 1468.91 433.47Z" fill="#FFAF73"></path> <path d="M1297.47 482.05C1280.29 482.05 1260.21 481.22 1259.08 481.18L1259.29 476.05C1259.66 476.06 1296.37 477.57 1313 476.57L1316.92 476.33C1337.07 475.08 1378.99 472.48 1396.51 475.4C1414.51 478.4 1470.06 474.72 1470.62 474.68L1470.96 479.81C1468.65 479.97 1414.24 483.56 1395.66 480.47C1378.72 477.65 1335.63 480.32 1317.24 481.46L1313.31 481.7C1308.98 481.95 1303.4 482.05 1297.47 482.05Z" fill="white"></path> <path d="M1297.47 493.36C1280.29 493.36 1260.21 492.53 1259.08 492.49L1259.29 487.35C1259.66 487.36 1296.37 488.87 1313 487.87L1316.92 487.63C1337.07 486.38 1378.99 483.78 1396.51 486.7C1414.51 489.7 1470.06 486.02 1470.62 485.99L1470.96 491.12C1468.65 491.27 1414.25 494.87 1395.66 491.78C1378.72 488.95 1335.63 491.63 1317.24 492.77L1313.31 493.01C1308.98 493.26 1303.4 493.36 1297.47 493.36Z" fill="white"></path> <path d="M1142.49 247.91H888.13V571.85H1142.49V247.91Z" fill="#99B9FF"></path> <path d="M1132.18 258.05H898.44V562.97H1132.18V258.05Z" fill="#BDD1F9"></path> <path d="M659.52 751.98H345.22V1138.88H659.52V751.98Z" fill="#BDD1F9"></path> <path d="M659.52 809.67H345.22V814.92H659.52V809.67Z" fill="#AEC3FF"></path> <path d="M438.22 804.55H354.68V759.9H438.22V804.55V804.55ZM355.73 803.5H437.17V760.95H355.73V803.5Z" fill="#AEC3FF"></path> <path d="M483.67 782.23C483.67 773.96 490.37 767.26 498.64 767.26C506.91 767.26 513.61 773.96 513.61 782.23C513.61 790.5 506.91 797.2 498.64 797.2C490.37 797.2 483.67 790.49 483.67 782.23Z" fill="#AEC3FF"></path> <path d="M524.13 782.23C524.13 775.49 529.59 770.02 536.33 770.02C543.07 770.02 548.53 775.48 548.53 782.23C548.53 788.97 543.07 794.43 536.33 794.43C529.59 794.43 524.13 788.97 524.13 782.23Z" fill="#AEC3FF"></path> <path d="M634.54 767.88H567.64V796.58H634.54V767.88Z" fill="#AEC3FF"></path> <path d="M498.64 1075.15C562.954 1075.15 615.09 1023.01 615.09 958.7C615.09 894.386 562.954 842.25 498.64 842.25C434.326 842.25 382.19 894.386 382.19 958.7C382.19 1023.01 434.326 1075.15 498.64 1075.15Z" fill="#AEC3FF"></path> <path d="M503.32 1052.23C554.974 1049.67 594.776 1005.73 592.222 954.076C589.667 902.422 545.722 862.62 494.068 865.175C442.414 867.729 402.612 911.674 405.166 963.328C407.721 1014.98 451.666 1054.78 503.32 1052.23Z" fill="#95B1EF"></path> <path d="M590.7 983.88H584.41C576.62 983.88 570.25 977.51 570.25 969.72V957.13C570.25 949.34 576.62 942.97 584.41 942.97H590.7C598.49 942.97 604.86 949.34 604.86 957.13V969.72C604.87 977.51 598.49 983.88 590.7 983.88Z" fill="#AEC3FF"></path> <path d="M1203.41 746.74H854.44V1138.23H1203.41V746.74Z" fill="#BDD1F9"></path> <path d="M1203.41 866.84H854.44V871.47H1203.41V866.84Z" fill="#AEC3FF"></path> <path d="M1059.6 767.88H1003.09C1001.23 767.88 999.7 766.35 999.7 764.49V763.51C999.7 761.65 1001.23 760.12 1003.09 760.12H1059.6C1061.46 760.12 1062.99 761.65 1062.99 763.51V764.49C1062.99 766.35 1061.46 767.88 1059.6 767.88Z" fill="#AEC3FF"></path> <path d="M1203.41 1008.91H854.44V1013.54H1203.41V1008.91Z" fill="#AEC3FF"></path> <path d="M1059.6 888.8H1003.09C1001.23 888.8 999.7 887.27 999.7 885.41V884.43C999.7 882.56 1001.23 881.04 1003.09 881.04H1059.6C1061.46 881.04 1062.99 882.57 1062.99 884.43V885.41C1062.99 887.28 1061.46 888.8 1059.6 888.8Z" fill="#AEC3FF"></path> <path d="M1059.6 1037.21H1003.09C1001.23 1037.21 999.7 1035.68 999.7 1033.82V1032.84C999.7 1030.98 1001.23 1029.45 1003.09 1029.45H1059.6C1061.46 1029.45 1062.99 1030.98 1062.99 1032.84V1033.82C1062.99 1035.68 1061.46 1037.21 1059.6 1037.21Z" fill="#AEC3FF"></path> <path d="M1222.67 726.33H832.7V751.98H1222.67V726.33Z" fill="#95B1EF"></path> <path d="M1010.6 670.42C1006.31 670.42 1002.81 666.91 1002.81 662.63V591.72C1002.81 587.43 1006.32 583.93 1010.6 583.93C1014.89 583.93 1018.39 587.44 1018.39 591.72V662.63C1018.39 666.92 1014.88 670.42 1010.6 670.42Z" fill="#95B1EF"></path> <path d="M1143.75 670.42C1143.75 694.39 1117.85 715.3 1079.42 726.4H953.13C914.71 715.3 888.81 694.39 888.81 670.42H1143.75Z" fill="#BDD1F9"></path> <path d="M1150.04 670.42H882.52C879.43 670.42 876.91 667.89 876.91 664.81C876.91 661.72 879.43 659.2 882.52 659.2H1150.04C1153.13 659.2 1155.65 661.72 1155.65 664.81C1155.65 667.9 1153.12 670.42 1150.04 670.42Z" fill="#A2C5FC"></path> <path d="M1287.9 923.539C1287.9 923.539 1219.07 939.289 1219.07 984.469C1219.07 984.469 1219.77 1007.22 1244.46 1000.93C1263.73 996.029 1242.19 969.259 1287.9 923.539Z" fill="#8C9DF4"></path> <path d="M1283.75 917.759C1283.75 917.759 1235.13 908.059 1230.66 919.429C1223.75 936.949 1257.49 913.879 1283.75 917.759Z" fill="#8C9DF4"></path> <path d="M1801.06 1143.52H21.9428C20.8759 1143.52 19.9998 1142.64 19.9998 1141.58V1141.08C19.9998 1140.02 20.8759 1139.14 21.9428 1139.14H1801.06C1802.12 1139.14 1803 1140.02 1803 1141.08V1141.58C1803.01 1142.64 1802.13 1143.52 1801.06 1143.52Z" fill="#233862"></path> <path d="M1338.52 919.989C1338.52 919.989 1368.03 953.999 1356.31 975.469C1354.67 978.469 1351.22 983.679 1341.76 980.269C1332.3 976.849 1343.77 964.439 1343.34 948.749C1342.99 936.289 1338.52 919.989 1338.52 919.989Z" fill="#8C9DF4"></path> <path d="M1313.31 913.34C1320.99 914.55 1338.86 909.21 1340.16 909.09C1351.24 908.03 1340.55 897.12 1340.55 897.12C1340.55 897.12 1323.13 893.29 1320.21 893.52C1319.25 893.6 1317.67 893.91 1315.96 894.33L1318.95 897.25C1318.95 897.25 1304.44 898.78 1304.28 902.15C1304.13 905.54 1306.61 912.29 1313.31 913.34Z" fill="#FFB27D"></path> <path d="M1320.22 893.52L1307.88 895.02C1307.88 898.26 1317.37 897.2 1317.84 898.8C1318.3 900.4 1320.49 896.57 1320.49 896.57L1320.22 893.52Z" fill="#FFB27D"></path> <path d="M1435.3 894.51C1435.3 894.51 1418.7 896.13 1419.77 897.89C1420.84 899.65 1428.12 900.42 1428.12 900.42L1433.96 896.67L1435.3 894.51Z" fill="#FFB27D"></path> <path d="M1337.14 902.52C1334.47 894.8 1338.19 892.39 1338.19 892.39C1338.19 892.39 1414.25 856.32 1420.47 852.35C1426.69 848.38 1468.51 772.22 1468.51 772.22C1468.51 772.22 1484.01 741.08 1503.75 741.71C1520.91 742.25 1530.44 752.95 1535.73 764.16C1542.03 777.52 1539.37 793.39 1529.23 804.13C1506.45 828.23 1460.72 875.96 1448.87 883.2C1422.5 899.32 1343.46 912.36 1343.46 912.36C1343.46 912.36 1339.24 908.58 1337.14 902.52Z" fill="#E58638"></path> <path d="M1348.27 985.18C1359.75 998.41 1383.96 1006.96 1430.67 1009.13C1434.42 1009.31 1438.19 1009.45 1441.98 1009.57C1445.88 1009.69 1449.79 1009.77 1453.7 1009.82C1466.39 1010 1479.02 1009.85 1491.06 1009.45C1502.73 1009.05 1513.85 1008.41 1523.92 1007.57C1543.62 1005.93 1559.34 1003.55 1567.46 1000.82C1569.89 1000 1571.64 999.16 1572.62 998.28C1573.45 997.54 1574.13 996.66 1574.64 995.67C1577.59 990.21 1576.05 981.25 1572.49 971.38C1567.3 957.01 1557.78 940.73 1551.37 930.53C1550.08 928.49 1548.94 926.71 1547.96 925.23C1546.01 922.24 1544.79 920.49 1544.79 920.49C1544.79 920.49 1522.97 922.52 1493.1 926.39C1487.01 927.18 1480.57 928.05 1473.92 928.99C1409.7 938.07 1345.71 954.4 1345.77 976.06C1345.78 979.34 1345.56 982.06 1348.27 985.18Z" fill="#2B478B"></path> <path d="M1427.79 1008.86C1431.69 1008.98 1449.79 1009.76 1453.7 1009.81C1466.39 1009.99 1479.02 1009.84 1491.06 1009.44L1502.38 963.83C1484.87 988.26 1433.42 1007.29 1427.79 1008.86Z" fill="#2C3A64"></path> <path d="M1465.62 1141.33H1403.36C1404.34 1138.96 1406.71 1135.87 1412.49 1134.86C1422.3 1133.14 1439.32 1127.84 1437.14 1113.68C1434.93 1099.33 1458.81 1097.48 1458.81 1097.48C1458.81 1097.48 1468.74 1135.87 1465.62 1141.33Z" fill="#2C3A64"></path> <path d="M1347.26 982.84C1347.26 982.84 1424.49 1104.34 1430.92 1118.78C1430.92 1118.78 1457.2 1121.23 1463.52 1102.45C1463.52 1102.45 1417.61 974.23 1397.43 963.66C1377.25 953.09 1347.26 982.84 1347.26 982.84Z" fill="#2B478B"></path> <path d="M1503.01 727.03C1503.01 727.03 1476.42 763.43 1452.71 765.38C1452.71 765.38 1454.41 757.67 1458.22 750.18C1460.66 745.36 1460.61 739.67 1457.94 734.97C1457.9 734.9 1457.86 734.83 1457.82 734.76C1453.16 726.51 1451.1 721.58 1451.1 721.58L1462 701.85L1464.25 691.24C1466.09 696.22 1468.25 700.81 1470.66 704.6C1483.08 724.1 1503.01 727.03 1503.01 727.03Z" fill="#FFB27D"></path> <path d="M1471.7 704.4C1471.7 704.4 1475.56 722.64 1457.82 734.75C1453.16 726.5 1451.1 721.57 1451.1 721.57L1462 701.84C1470.71 700.55 1471.7 704.4 1471.7 704.4Z" fill="#ED975D"></path> <path d="M1447.77 732.57C1447.77 732.57 1481.13 714.4 1469.49 693.79C1457.85 673.19 1454.32 656.97 1432.53 667.7C1410.74 678.43 1411.08 688.61 1413.29 696.43C1415.5 704.25 1438.8 736.76 1447.77 732.57Z" fill="#FFB27D"></path> <path d="M1469.38 652.77C1469.56 652.25 1470.21 651.64 1471.89 650.89C1471.89 650.89 1470.18 650.55 1468.34 651.21C1467.05 648.93 1464.13 645.14 1459.63 645.68C1459.63 645.68 1462.29 646.02 1463.57 648.48C1456.91 645.36 1445.35 645.69 1418.07 658.82C1382.11 676.13 1403.66 695.53 1409.58 696.55C1415.5 697.57 1424.54 685.01 1433.77 682.28C1443 679.54 1449.78 692.02 1453.51 692.65C1457.24 693.28 1454.82 690.55 1458.2 687.08C1461.58 683.61 1464.64 690.37 1465.19 695.32C1465.74 700.27 1471.71 704.39 1471.71 704.39C1471.71 704.39 1473.68 704.02 1476.97 695.58C1480.26 687.14 1475.43 658.63 1470.66 654C1470.23 653.61 1469.81 653.19 1469.38 652.77Z" fill="#2B478B"></path> <path d="M1668.57 1101.61C1668.57 1101.61 1676.33 1113.39 1678.14 1117.2C1679.94 1121.02 1676.4 1129.14 1671.08 1130.36C1666.39 1131.44 1665.69 1139.76 1665.69 1139.76H1688.44C1690.85 1139.76 1693.02 1138.43 1693.95 1136.39C1697.16 1129.33 1697.89 1120.15 1698.54 1117.07C1699.9 1110.61 1702.58 1105.19 1701.4 1098.62C1700.22 1092.07 1689.01 1088.27 1668.58 1088.33C1646.13 1088.41 1668.57 1101.61 1668.57 1101.61Z" fill="#233862"></path> <path d="M1601.68 959.6C1584.52 977.78 1458.55 940.17 1469.11 930.59C1471.8 928.16 1470.88 925.23 1471.97 921.31C1477.2 902.71 1466.79 870.89 1462.33 858.56C1461.29 855.7 1460.57 853.89 1460.44 853.53C1456.18 842.02 1452.89 830.03 1450.73 818.44C1446.58 796.21 1446.65 775.54 1452.33 762.88C1452.37 762.81 1452.38 762.75 1452.42 762.71C1476.02 755.81 1489.01 721.1 1489.01 721.1C1489.01 721.1 1563.77 742.33 1590.9 849.01C1590.9 849.01 1592.3 855.81 1594.03 866.02H1594.04C1594.56 869.15 1595.12 872.61 1595.68 876.29C1598.58 895.27 1600.26 919.61 1601.98 937.74C1602.05 938.37 1602.1 939.01 1602.17 939.66C1603.03 947.46 1604.53 956.58 1601.68 959.6Z" fill="#F99746"></path> <path d="M1502.48 941.56C1502.48 941.56 1515.04 943.21 1540.37 945.08C1566.62 947.02 1594.44 951.16 1598.96 959.98C1600.46 962.9 1599.41 970.29 1596.49 980.5C1590.02 1003.07 1574.33 1039.41 1556.42 1071.63C1602.43 1074.29 1665.03 1084.45 1665.03 1084.45C1675.27 1096.03 1670.98 1109.58 1670.98 1109.58C1667.7 1109.61 1657.82 1111 1644.35 1113.18C1595.53 1121.04 1536.07 1137.2 1499.21 1137.2C1491.15 1137.2 1485.11 1131.47 1482.66 1123.99V1123.98C1467.5 1077.86 1502.48 941.56 1502.48 941.56Z" fill="#2B478B"></path> <path d="M1596.49 983.92C1571.09 983.12 1507.4 951.85 1508.44 951.6C1520.3 948.68 1530.91 946.66 1540.38 945.39C1566.63 947.51 1594.45 952.01 1598.97 961.6C1600.45 964.78 1599.41 972.81 1596.49 983.92Z" fill="#2C3A64"></path> <path d="M1501.55 726.29C1501.55 726.29 1469.59 732.94 1466.47 760.94C1464.2 781.33 1480.39 827.52 1480.39 827.52L1490.74 823.27C1490.74 823.27 1471.17 766.25 1474.18 756.55C1478.04 744.11 1496.41 725.51 1513.31 732.94L1501.55 726.29Z" fill="#2B478B"></path> <path d="M1601.68 959.6C1584.52 977.78 1455.84 940.57 1466.39 930.99C1469.07 928.56 1470.87 925.23 1471.96 921.31C1477.19 902.71 1466.78 870.89 1462.32 858.56C1461.28 855.7 1451.44 821.82 1451.3 821.46L1487.53 813.62C1487.53 813.62 1497.78 831.27 1511.09 840.33C1528.54 852.22 1556.75 865.96 1594.02 866.02H1594.03C1594.55 869.15 1595.11 872.61 1595.67 876.29C1598.57 895.27 1600.25 919.61 1601.97 937.74C1602.04 938.37 1602.09 939.01 1602.16 939.66C1603.03 947.46 1604.53 956.58 1601.68 959.6Z" fill="#2B478B"></path> <path d="M1328.54 1138.23H1303.6V860.29C1303.6 840.85 1287.79 825.03 1268.35 825.03H1203.42V800.09H1268.35C1301.54 800.09 1328.55 827.09 1328.55 860.29V1138.23H1328.54Z" fill="#BDD1F9"></path> <path d="M1259.18 797.2H1254.68V829.07H1259.18V797.2Z" fill="#91B5F8"></path> <path d="M1332.98 883.241V878.741H1301.11V883.241H1332.98Z" fill="#91B5F8"></path> <path d="M1332.97 936.748V932.248H1301.1V936.748H1332.97Z" fill="#91B5F8"></path> <path d="M1330.55 1101H1300.41V1138.22H1330.55V1101Z" fill="#91B5F8"></path> <path d="M1332.33 873.37L1449.49 919.41C1451.83 920.33 1454.48 919.18 1455.4 916.84L1456.17 914.87C1456.95 912.89 1455.97 910.66 1454 909.88L1336.18 863.58L1332.33 873.37Z" fill="#2B478B"></path> <path d="M1320.96 869.52L1323.57 870.54L1324.36 864.61C1325.04 859.51 1330.17 856.3 1334.75 858.1L1368.97 871.55L1372.36 862.92L1329.02 845.89C1324.8 844.23 1320.05 847.05 1319.2 851.72L1317.24 862.56C1316.7 865.55 1318.25 868.46 1320.96 869.52Z" fill="#2B478B"></path> <path d="M1344.68 870.564L1366.08 878.971L1370.89 866.742L1349.49 858.334L1344.68 870.564Z" fill="#2B478B"></path> <path d="M1363.19 871.46C1363.48 870.71 1363.12 869.87 1362.37 869.58C1361.62 869.29 1360.78 869.65 1360.49 870.4C1360.2 871.15 1360.57 871.99 1361.31 872.28C1362.06 872.57 1362.9 872.2 1363.19 871.46Z" fill="#6C7AFF"></path> <path d="M1354.56 868.07C1354.85 867.33 1354.49 866.48 1353.74 866.19C1352.99 865.9 1352.15 866.26 1351.86 867.01C1351.57 867.76 1351.93 868.6 1352.68 868.89C1353.43 869.18 1354.27 868.81 1354.56 868.07Z" fill="#6C7AFF"></path> <path d="M1459.9 893.05C1459.9 893.05 1454.16 894.4 1448.01 894.6C1442.47 894.78 1436.61 893.76 1433.96 894.87C1428.35 897.21 1410.58 909.42 1419.16 914.65C1427.74 919.88 1436.58 918.05 1442.45 913.3C1448.31 908.55 1464.25 908.16 1464.25 908.16L1459.9 893.05Z" fill="#FFB27D"></path> <path d="M1519.62 751.98C1558.15 763.1 1581.61 855.56 1576.19 883.24C1570.76 910.91 1462 912.36 1462 912.36C1462 912.36 1455.89 907.58 1455.17 902.64C1454.25 896.34 1455.24 893.44 1455.24 893.44C1455.24 893.44 1524.01 874.77 1525.58 866.83C1527.15 858.89 1492.48 816.8 1493 793.98C1493.53 771.16 1498.63 745.92 1519.62 751.98Z" fill="#F99746"></path> <path d="M1372.67 1138.23C1372.67 1138.23 1357.76 1114.65 1315.48 1119.62C1273.19 1124.58 1243.07 1147.32 1142.19 1121.94C1041.31 1096.56 1050.42 1142.1 992.97 1132.29C935.53 1122.48 910.31 1138.23 910.31 1138.23H1372.67Z" fill="#8C9DF4"></path> <path d="M1265.98 797.2C1265.98 797.2 1277.53 771.37 1299.78 776.08C1299.78 776.08 1305.49 777.51 1304.06 783.35C1302.63 789.19 1285.23 781.24 1265.98 797.2Z" fill="#8C9DF4"></path> </svg> 